<?xml version="1.0" encoding="utf-8"?>
<!-- Generator: Adobe Illustrator 27.0.0, SVG Export Plug-In . SVG Version: 6.00 Build 0)  -->
<svg version="1.1" id="Layer_1" xmlns="http://www.w3.org/2000/svg" xmlns:xlink="http://www.w3.org/1999/xlink" x="0px" y="0px"
	 viewBox="0 0 300 300" style="enable-background:new 0 0 300 300;" xml:space="preserve">
<style type="text/css">
	.st0{fill:#00005B;}
	.st1{fill:#9999FF;}
</style>
<g id="Premiere" transform="translate(4175 308)">
	<path id="Прямоугольник_26" class="st0" d="M-4128.1-308h206.3c25.9,0,46.9,21,46.9,46.9v206.3
		c0,25.9-21,46.9-46.9,46.9h-206.3c-25.9,0-46.9-21-46.9-46.9v-206.3C-4175-287-4154-308-4128.1-308z"/>
	<path id="Контур_52" class="st1" d="M-4104.3-95.7v-126.4c0-1.1,0.5-1.6,1.1-1.6h27.8c3.8,0,8.6,1.1,12.3,1.1
		c8.5-0.1,17,1.1,25.2,3.8c6.3,2,11.9,5.5,16.6,10.2c4,4,7,8.7,9.1,13.9c1.7,5.2,2.6,10.6,2.7,16.1c0.4,9.4-2.2,18.5-7.5,26.3
		c-4.8,7-11.8,12.2-19.8,15c-8.9,3.2-18.4,4.9-27.8,4.8h-5.9c-1.1,0-5.9-1.1-8.6-1.1v39.1c0.1,0.8-0.4,1.5-1.2,1.6
		c-0.1,0-0.2,0-0.4,0h-22.5C-4103.7-94-4104.3-94.6-4104.3-95.7z M-4078.5-200.1v41.3c1.6,0,6.4,1.1,8,1.1h6.4
		c4.7,0.1,9.4-0.6,13.9-2.2c4-1.1,7.5-3.3,10.2-6.4c2.8-3.7,4.2-8.3,3.8-12.8c-0.1-3.7-1-7.4-2.7-10.7c-2-3.2-5-5.6-8.6-7
		c-4.6-1.7-9.5-2.6-14.5-2.7h-8.6C-4073.2-199.4-4075.9-199.6-4078.5-200.1z"/>
	<path id="Контур_53" class="st1" d="M-3992.3-191.5h21.4c1.2,0.2,2.2,1,2.7,2.2c0.5,1.1,1.1,1.6,1.1,2.7
		c0.4,1.2,0.6,2.5,0.5,3.7v4.3c3.7-4.4,8.3-8,13.4-10.7c5.1-3.2,11.1-4.7,17.2-4.3c1.1,0,1.6,0.5,1.6,1.1v24.7
		c0,1.1-0.5,1.6-2.2,1.6c-4-0.5-8-0.1-11.8,1.1c-3.5,0.5-7,1.6-10.2,3.2c-2.9,1.1-5.7,2.7-8,4.8v62.6c0.1,0.8-0.4,1.5-1.2,1.6
		c-0.1,0-0.2,0-0.4,0h-22.5c-1.1,0-1.6-0.5-2.2-1.6v-77.7c0.1-3.2-0.1-6.4-0.5-9.7c0-2.7-0.5-5.3-0.5-8c0-0.5,0-0.5,0.5-1.1
		C-3993.4-191.5-3992.8-191.5-3992.3-191.5z"/>
</g>
</svg>
