<svg version="1.1" id="Layer_1" xmlns="http://www.w3.org/2000/svg"
   xmlns:xlink="http://www.w3.org/1999/xlink" x="0px" y="0px"
   viewBox="0 0 512 512" style="enable-background:new 0 0 512 512;" xml:space="preserve">
<style type="text/css">
	.st0{fill:#00005B;}
	.st1{fill:#9999FF;}
</style>
<g id="Premiere" transform="translate(4175 308)">
	<path id="Прямоугольник_26" class="st0" d="M-4095.03-308h352.05c44.13,0,79.97,35.84,79.97,79.97v352.05
		c0,44.13-35.84,79.97-79.97,79.97h-352.05c-44.13,0-79.97-35.84-79.97-79.97v-352.05C-4175-272.16-4139.16-308-4095.03-308z"/>
	<path id="Контур_52" class="st1" d="M-4054.27,54.39v-215.76c0-1.84,0.92-2.76,1.84-2.76h47.51c6.45,0,14.64,1.84,20.99,1.84
		c14.54-0.2,29.08,1.95,43.01,6.45c10.75,3.48,20.38,9.42,28.36,17.41c6.76,6.76,11.98,14.85,15.56,23.76
		c2.87,8.91,4.4,18.12,4.61,27.44c0.72,15.97-3.79,31.64-12.8,44.85c-8.19,11.98-20.07,20.89-33.79,25.6
		c-15.26,5.43-31.33,8.29-47.51,8.19h-10.04c-1.84,0-10.04-1.84-14.64-1.84v66.76c0.2,1.33-0.72,2.56-2.05,2.76
		c-0.2,0-0.41,0-0.72,0h-38.4C-4053.35,57.16-4054.27,56.24-4054.27,54.39z M-4010.34-123.88v70.45c2.76,0,10.96,1.84,13.72,1.84
		h10.96c8.09,0.2,16.08-1.02,23.76-3.69c6.76-1.84,12.8-5.63,17.41-10.96c4.81-6.25,7.17-14.13,6.45-21.91
		c-0.1-6.35-1.64-12.6-4.61-18.33c-3.48-5.43-8.6-9.52-14.64-11.88c-7.88-2.87-16.28-4.4-24.68-4.61h-14.64
		C-4001.23-122.66-4005.84-122.96-4010.34-123.88z"/>
	<path id="Контур_53" class="st1" d="M-3863.19-109.24h36.56c2.05,0.31,3.79,1.74,4.61,3.69c0.92,1.84,1.84,2.76,1.84,4.61
		c0.72,2.05,1.02,4.2,0.92,6.35v7.27c6.35-7.58,14.13-13.72,22.84-18.33c8.7-5.53,18.94-8.09,29.29-7.27c1.84,0,2.76,0.92,2.76,1.84
		V-69c0,1.84-0.92,2.76-3.69,2.76c-6.76-0.82-13.62-0.2-20.07,1.84c-6.04,0.82-11.88,2.66-17.41,5.53
		c-5.02,1.84-9.73,4.61-13.72,8.19V56.24c0.2,1.33-0.72,2.56-2.05,2.76c-0.2,0-0.41,0-0.72,0h-38.4c-1.84,0-2.76-0.92-3.69-2.76
		V-76.37c0.1-5.53-0.2-10.96-0.92-16.49c0-4.61-0.92-9.11-0.92-13.72c0-0.92,0-0.92,0.92-1.84
		C-3865.04-109.24-3864.11-109.24-3863.19-109.24z"/>
</g>
</svg>