<?xml version="1.0" encoding="utf-8"?>
<!-- Generator: Adobe Illustrator 27.0.0, SVG Export Plug-In . SVG Version: 6.00 Build 0)  -->
<svg version="1.1" id="Layer_1" xmlns="http://www.w3.org/2000/svg" xmlns:xlink="http://www.w3.org/1999/xlink" x="0px" y="0px"
	 viewBox="0 0 300 300" style="enable-background:new 0 0 300 300;" xml:space="preserve">
<style type="text/css">
	.st0{fill:#001E36;}
	.st1{fill:#31A8FF;}
</style>
<g id="Layer_2_1_">
	<g id="Surfaces">
		<g id="Photo_Surface">
			<g id="Outline_no_shadow">
				<path class="st0" d="M54.5,0h191.1C275.7,0,300,24.4,300,54.5v191.1c0,30.2-24.4,54.5-54.5,54.5H54.5C24.3,300,0,275.6,0,245.5
					V54.5C0,24.3,24.4,0,54.5,0z"/>
			</g>
		</g>
	</g>
	<g id="Outlined_Mnemonics_Logos">
		<g id="Ps">
			<path class="st1" d="M65.3,210.4V78.5c0-0.9,0.4-1.4,1.3-1.4c2.2,0,4.2,0,7.2-0.1c3.1-0.1,6.3-0.1,9.7-0.2
				c3.4-0.1,7.2-0.1,11.1-0.2c4-0.1,7.8-0.1,11.7-0.1c10.5,0,19.3,1.3,26.4,4c6.4,2.2,12.3,5.8,17.2,10.5c4.1,4.1,7.3,9.1,9.4,14.7
				c1.9,5.4,3,10.9,3,16.7c0,11-2.6,20.1-7.7,27.3c-5.1,7.2-12.3,12.6-20.6,15.6c-8.7,3.2-18.3,4.4-28.9,4.4c-3.1,0-5.1,0-6.4-0.1
				c-1.3-0.1-3.1-0.1-5.5-0.1v41.2c0.1,0.9-0.5,1.7-1.4,1.8c-0.1,0-0.2,0-0.5,0H66.9C65.8,212,65.3,211.6,65.3,210.4z M93.3,101.8
				v43.1c1.8,0.1,3.4,0.2,5,0.2h6.8c5,0,10-0.8,14.8-2.3c4.1-1.2,7.7-3.6,10.5-6.8c2.7-3.2,4-7.6,4-13.2c0.1-4-0.9-7.9-3-11.4
				c-2.2-3.3-5.2-5.9-9-7.3c-4.7-1.9-9.8-2.7-15.1-2.6c-3.3,0-6.3,0-8.7,0.1C96,101.6,94.2,101.7,93.3,101.8L93.3,101.8z"/>
			<path class="st1" d="M242.3,137.1c-3.9-2-7.9-3.4-12.3-4.4c-4.7-1-9.5-1.7-14.3-1.7c-2.6-0.1-5.2,0.2-7.7,0.9
				c-1.7,0.4-3.1,1.3-4,2.6c-0.6,1-1,2.3-1,3.4c0,1.2,0.5,2.3,1.3,3.3c1.2,1.4,2.7,2.6,4.4,3.4c3,1.5,6,3,9.1,4.2
				c7,2.3,13.6,5.5,19.8,9.4c4.2,2.7,7.7,6.3,10.2,10.6c2,4.1,3.1,8.6,3,13.2c0.1,6-1.7,12.1-5,17c-3.6,5.1-8.6,9.1-14.3,11.4
				c-6.3,2.7-14,4.1-23.2,4.1c-5.9,0-11.7-0.5-17.4-1.7c-4.5-0.8-9-2.2-13.1-4.1c-0.9-0.5-1.5-1.4-1.4-2.5v-22.3
				c0-0.4,0.1-0.9,0.5-1.2s0.8-0.1,1.2,0.1c5,3,10.3,5,15.9,6.3c4.9,1.3,10,1.9,15.1,1.9c4.9,0,8.3-0.6,10.6-1.8
				c2-0.9,3.4-3.1,3.4-5.4c0-1.8-1-3.4-3.1-5.1c-2-1.7-6.3-3.6-12.6-6c-6.5-2.3-12.6-5.4-18.2-9.2c-4-2.8-7.3-6.5-9.7-10.9
				c-2-4.1-3.1-8.6-3-13c0-5.5,1.5-10.8,4.4-15.5c3.2-5.1,7.9-9.2,13.5-11.8c6-3.1,13.6-4.5,22.7-4.5c5.2,0,10.6,0.4,15.9,1.2
				c3.9,0.5,7.6,1.5,11,3c0.5,0.1,1,0.6,1.3,1.2c0.1,0.5,0.2,1,0.2,1.5v20.9c0,0.5-0.2,1-0.6,1.3
				C243.5,137.3,242.8,137.3,242.3,137.1z"/>
		</g>
	</g>
</g>
</svg>
