<?xml version="1.0" encoding="utf-8"?>
<!-- Generator: Adobe Illustrator 27.0.0, SVG Export Plug-In . SVG Version: 6.00 Build 0)  -->
<svg version="1.1" id="Layer_1" xmlns="http://www.w3.org/2000/svg" xmlns:xlink="http://www.w3.org/1999/xlink" x="0px" y="0px"
	 viewBox="0 0 300 300" style="enable-background:new 0 0 300 300;" xml:space="preserve">
<style type="text/css">
	.st0{fill:#49021F;}
	.st1{fill:#FF3366;}
</style>
<g id="InDesign" transform="translate(2511 308)">
	<path id="Прямоугольник_18" class="st0" d="M-2464.1-308h206.3c25.9,0,46.9,21,46.9,46.9v206.3
		c0,25.9-21,46.9-46.9,46.9h-206.3c-25.9,0-46.9-21-46.9-46.9v-206.3C-2511-287-2490-308-2464.1-308z"/>
	<path id="Контур_34" class="st1" d="M-2404.4-219.3V-95c0,1.3-0.6,2-1.8,2h-22.7c-1.1,0-1.6-0.7-1.6-2v-124.2
		c0-1.1,0.6-1.6,1.8-1.6h22.7c0.8-0.1,1.5,0.4,1.6,1.2C-2404.4-219.5-2404.4-219.4-2404.4-219.3L-2404.4-219.3z"/>
	<path id="Контур_35" class="st1" d="M-2330.8-90.4c-9.1,0.1-18.2-1.7-26.5-5.5c-7.7-3.6-14.2-9.4-18.5-16.7
		c-4.8-8.6-7.1-18.2-6.7-28.1c-0.1-9.1,2.2-18.1,6.7-26c4.6-8,11.4-14.6,19.6-19c9.6-5,20.3-7.4,31.1-7.1c0.7,0,1.5,0.1,2.6,0.1
		s3.4,0.2,4.8,0.3v-37.5c0-0.9,0.4-1.4,1.2-1.4h23c0.6-0.1,1.1,0.3,1.2,0.9c0,0.1,0,0.2,0,0.3v115.6c0,2.2,0.1,4.7,0.3,7.3
		c0.2,2.6,0.4,5,0.5,7.1c0.1,0.8-0.4,1.6-1.2,2c-6.1,2.7-12.5,4.7-19.1,5.9C-2318.1-91-2324.5-90.4-2330.8-90.4z M-2317.7-114.9
		V-169c-1.4-0.3-2.9-0.5-4.3-0.6c-1.4-0.1-2.7-0.2-4.1-0.2c-4.8-0.1-9.5,1-13.9,3.2c-9.5,4.5-15.2,14.3-14.5,24.8
		c-0.1,4.3,0.6,8.6,2.1,12.7c1.2,3.3,3.1,6.2,5.5,8.7c2.3,2.3,5.2,4,8.3,5c3.3,1.1,6.7,1.6,10.2,1.6c1.9,0,3.5-0.1,5.2-0.2
		C-2321.3-114.3-2319.5-114.5-2317.7-114.9L-2317.7-114.9z"/>
</g>
</svg>
