<svg version="1.1" id="Layer_1" xmlns="http://www.w3.org/2000/svg" xmlns:xlink="http://www.w3.org/1999/xlink" x="0px" y="0px"
	 viewBox="0 0 512 512" style="enable-background:new 0 0 512 512;" xml:space="preserve">
<style type="text/css">
	.st0{fill:#49021F;}
	.st1{fill:#FF3366;}
</style>
<g id="InDesign" transform="translate(2511 308)">
	<path id="Прямоугольник_18" class="st0" d="M-2431.03-308h352.05c44.13,0,79.97,35.84,79.97,79.97v352.05
		c0,44.13-35.84,79.97-79.97,79.97h-352.05c-44.13,0-79.97-35.84-79.97-79.97v-352.05C-2511-272.16-2475.16-308-2431.03-308z"/>
	<path id="Контур_34" class="st1" d="M-2329.14-156.55V55.52c0,2.25-1.02,3.38-3.07,3.38h-38.71c-1.84,0-2.66-1.13-2.66-3.38
		v-211.97c0-1.84,1.02-2.66,3.07-2.66h38.71c1.33-0.2,2.56,0.72,2.66,2.05C-2329.14-156.96-2329.14-156.76-2329.14-156.55
		L-2329.14-156.55z"/>
	<path id="Контур_35" class="st1" d="M-2203.49,63.4c-15.56,0.2-31.03-2.97-45.16-9.42c-13.21-6.14-24.27-16.08-31.64-28.57
		c-8.19-14.64-12.08-31.13-11.47-47.92c-0.1-15.56,3.79-30.82,11.47-44.34c7.88-13.72,19.46-24.99,33.48-32.46
		c16.38-8.5,34.61-12.7,53.15-12.19c1.13,0,2.56,0.1,4.4,0.2c1.84,0.1,5.73,0.31,8.19,0.51v-64c0-1.54,0.72-2.36,2.05-2.36h39.22
		c1.02-0.1,1.84,0.51,2.05,1.54c0,0.2,0,0.31,0,0.51V22.14c0,3.79,0.2,7.99,0.51,12.49c0.31,4.51,0.61,8.6,0.82,12.19
		c0.1,1.43-0.72,2.76-2.05,3.38c-10.44,4.61-21.4,7.99-32.56,10.14C-2181.78,62.38-2192.64,63.4-2203.49,63.4z M-2181.07,21.52
		v-92.36c-2.46-0.51-4.92-0.82-7.37-1.02c-2.36-0.2-4.61-0.31-6.96-0.31c-8.19-0.1-16.28,1.74-23.65,5.43
		c-16.18,7.68-25.91,24.47-24.68,42.29c-0.2,7.37,1.02,14.75,3.58,21.61c2.05,5.63,5.32,10.65,9.42,14.85
		c3.99,3.89,8.91,6.76,14.23,8.5c5.63,1.84,11.47,2.76,17.41,2.66c3.17,0,6.04-0.1,8.81-0.31
		C-2187.21,22.65-2184.14,22.24-2181.07,21.52L-2181.07,21.52z"/>
</g>
</svg>