<svg id="a" data-name="Layer 1" xmlns="http://www.w3.org/2000/svg" xmlns:xlink="http://www.w3.org/1999/xlink" viewBox="0 0 19.18005 27.28314">
  <defs>
    <linearGradient id="b" x1="9.59003" y1="18.38" x2="9.59003" y2="0" gradientUnits="userSpaceOnUse">
      <stop offset="0" stop-color="#150426"/>
      <stop offset="1" stop-color="#020016"/>
    </linearGradient>
  </defs>
  <path d="M19.18005,18.38c-1.77002-.94-3.42004-1.53998-5.97003-2.01996l-2.84998-9.77002c-.14001-.48999-.35004-1.42999-.77002-1.42999s-.63,.94-.77002,1.42999l-2.84998,9.77002c-2.54999,.47998-4.20001,1.07996-5.97003,2.01996C0,18.38,4.92004,2.26001,5.08002,1.75c.15002-.51001,.59003-1.75,1.88-1.75h5.26001c1.28998,0,1.72998,1.23999,1.88,1.75,.15997,.51001,5.08002,16.63,5.08002,16.63Z" style="fill: url(#b);"/>
  <path d="M5.07917,18.65814c-.35156,1.82812-.16406,3.58594,1.07812,5.03906,.04688-.65625,.375-1.38281,1.35938-1.38281s1.17188,.91406,1.17188,1.75781,.07031,2.27344,1.96875,3.21094c-.30469-1.125-.60938-2.27344,1.28906-3.44531s3.07031-2.78906,2.27344-4.64062c-1.58203,.92578-2.95312,1.08398-4.62305,1.08398s-3.39258-.29297-4.51758-1.62305Z" style="fill: #ff5309;"/>
</svg>