<?xml version="1.0" encoding="utf-8"?>
<!-- Generator: Adobe Illustrator 27.0.0, SVG Export Plug-In . SVG Version: 6.00 Build 0)  -->
<svg version="1.1" id="a" xmlns="http://www.w3.org/2000/svg" xmlns:xlink="http://www.w3.org/1999/xlink" x="0px" y="0px"
	 viewBox="0 0 30 30" style="enable-background:new 0 0 30 30;" xml:space="preserve">
<style type="text/css">
	.st0{fill:url(#SVGID_1_);}
	.st1{fill:#FF5309;}
</style>
<linearGradient id="SVGID_1_" gradientUnits="userSpaceOnUse" x1="15" y1="18.4216" x2="15" y2="4.159832e-02" gradientTransform="matrix(1 0 0 1 0 2.7169)">
	<stop  offset="0" style="stop-color:#150426"/>
	<stop  offset="1" style="stop-color:#020016"/>
</linearGradient>
<path class="st0" d="M24.6,21.1c-1.8-0.9-3.4-1.5-6-2l-2.8-9.8c-0.1-0.5-0.4-1.4-0.8-1.4s-0.6,0.9-0.8,1.4l-2.8,9.8
	c-2.5,0.5-4.2,1.1-6,2c0,0,4.9-16.1,5.1-16.6c0.2-0.5,0.6-1.8,1.9-1.8h5.3c1.3,0,1.7,1.2,1.9,1.8C19.7,5,24.6,21.1,24.6,21.1z"/>
<path class="st1" d="M10.5,21.4c-0.4,1.8-0.2,3.6,1.1,5c0-0.7,0.4-1.4,1.4-1.4s1.2,0.9,1.2,1.8s0.1,2.3,2,3.2
	c-0.3-1.1-0.6-2.3,1.3-3.4s3.1-2.8,2.3-4.6c-1.6,0.9-3,1.1-4.6,1.1S11.6,22.7,10.5,21.4z"/>
</svg>
