<?xml version="1.0" encoding="utf-8"?>
<!-- Generator: Adobe Illustrator 27.0.0, SVG Export Plug-In . SVG Version: 6.00 Build 0)  -->
<svg version="1.1" id="a" xmlns="http://www.w3.org/2000/svg" xmlns:xlink="http://www.w3.org/1999/xlink" x="0px" y="0px"
	 viewBox="0 0 300 300" style="enable-background:new 0 0 300 300;" xml:space="preserve">
<style type="text/css">
	.st0{fill:url(#SVGID_1_);}
	.st1{fill:#FF5309;}
</style>
<linearGradient id="SVGID_1_" gradientUnits="userSpaceOnUse" x1="150" y1="100.096" x2="150" y2="302.074" gradientTransform="matrix(1 0 0 -1 0 302.7169)">
	<stop  offset="0" style="stop-color:#150426"/>
	<stop  offset="1" style="stop-color:#020016"/>
</linearGradient>
<path class="st0" d="M255.5,202.2c-19.8-9.9-37.4-16.5-65.9-22L158.8,72.5c-1.1-5.5-4.4-15.4-8.8-15.4s-6.6,9.9-8.8,15.4
	l-30.8,107.7c-27.5,5.5-46.2,12.1-65.9,22c0,0,53.8-176.9,56-182.4c2.2-5.5,6.6-19.8,20.9-19.8h58.2c14.3,0,18.7,13.2,20.9,19.8
	C201.6,25.3,255.5,202.2,255.5,202.2z"/>
<path class="st1" d="M100.5,205.5c-4.4,19.8-2.2,39.6,12.1,54.9c0-7.7,4.4-15.4,15.4-15.4s13.2,9.9,13.2,19.8
	c0,9.9,1.1,25.3,22,35.2c-3.3-12.1-6.6-25.3,14.3-37.4c20.9-12.1,34.1-30.8,25.3-50.5c-17.6,9.9-33,12.1-50.5,12.1
	S112.6,219.8,100.5,205.5z"/>
</svg>
