<?xml version="1.0" encoding="utf-8"?>
<!-- Generator: Adobe Illustrator 27.0.0, SVG Export Plug-In . SVG Version: 6.00 Build 0)  -->
<svg version="1.1" id="Layer_1" xmlns="http://www.w3.org/2000/svg" xmlns:xlink="http://www.w3.org/1999/xlink" x="0px" y="0px"
	 viewBox="0 0 2500 2500" style="enable-background:new 0 0 2500 2500;" xml:space="preserve">
<style type="text/css">
	.st0{fill:#FFFFFF;}
	.st1{fill:#005385;}
	.st2{fill:#FF7021;}
</style>
<g>
	<path class="st0" d="M2010.3,1717.2c-99.1,101.1-237.7,158.2-387.8,158.4c-150.2,0.3-288.9-56.5-388-157.2
		c-48.4-49.1-83.9-105.5-106-165.8c-21.6-59.2-29.8-122.4-24.3-185.1c5.3-61.2,23.4-120.6,53.1-174.4c29-52.5,68.8-100,117.9-140.1
		c96.3-78.5,218.8-120.9,347.2-121.1s250.8,42,347.2,120.1c49,40,88.8,87.2,117.7,139.7c29.8,53.7,47.9,113.1,53.2,174.3
		c5.5,62.8-2.8,125.9-24.4,185.2C2094.3,1611.5,2058.7,1667.9,2010.3,1717.2L2010.3,1717.2z"/>
	<path class="st1" d="M1302.3,1374c4.5-81.7,44.6-153.8,105-204.9c59.3-50.2,139.1-80.8,226-80.8c87,0.1,166.8,30.7,226,80.8
		c60.4,51.1,100.5,123.1,105.1,204.9c4.6,84-29.2,162.1-88.4,220c-60.4,58.9-146.4,95.9-242.7,95.9c-96.3,0-182.4-37-242.8-95.9
		C1331.4,1536.1,1297.7,1458,1302.3,1374L1302.3,1374z"/>
	<path class="st2" d="M774.9,1539.5c0.6,31.9,10.8,94.1,26.1,142.7c32.2,102.8,86.7,197.9,162.7,281.8
		c78,86.1,173.9,155.3,284.8,204.4c116.6,51.6,242.9,78,373.9,77.7c131.1-0.2,257.3-27,373.8-79c110.8-49.6,206.7-119,284.6-205.4
		c75.9-84.2,130.4-179.5,162.5-282.3c16-51.2,26.4-104.1,30.6-157.5c4-52.1,2.3-104.7-5-156.5c-14.4-101.7-49.6-197-103.8-284
		c-49.6-79.8-113.4-149.8-189.3-208.8l0.1-0.1l-765.9-588c-0.6-0.5-1.3-1.1-1.9-1.6c-50.4-38.5-134.9-38.4-190.1,0.3
		c-56,39.1-62.3,103.8-12.6,144.6l-0.2,0.1l319.5,259.9l-974,1h-1.3c-80.4,0.1-157.8,52.9-173.2,119.6
		c-15.6,68,39,124.3,122.7,124.7l-0.1,0.3l493.7-1l-880.9,676.2c-1.1,0.9-2.3,1.7-3.3,2.5c-83,63.6-109.9,169.5-57.7,236.4
		c53.1,68.1,166.1,68.2,250.1,0.3l480.7-393.4C781.5,1454.4,774.4,1507.6,774.9,1539.5L774.9,1539.5z M2010.3,1717.2
		c-99.1,101.1-237.7,158.2-387.8,158.4c-150.2,0.3-288.9-56.5-388-157.2c-48.4-49.1-83.9-105.5-106-165.8
		c-21.6-59.2-29.8-122.4-24.3-185.1c5.3-61.2,23.4-120.6,53.1-174.4c29-52.5,68.8-100,117.9-140.1
		c96.3-78.5,218.8-120.9,347.2-121.1s250.8,42,347.2,120.1c49,40,88.8,87.2,117.7,139.7c29.8,53.7,47.9,113.1,53.2,174.3
		c5.5,62.8-2.8,125.9-24.4,185.2C2094.3,1611.5,2058.7,1667.9,2010.3,1717.2L2010.3,1717.2z"/>
</g>
</svg>
