<?xml version="1.0" encoding="utf-8"?>
<!-- Generator: Adobe Illustrator 27.0.0, SVG Export Plug-In . SVG Version: 6.00 Build 0)  -->
<svg version="1.1" id="Layer_1" xmlns="http://www.w3.org/2000/svg" xmlns:xlink="http://www.w3.org/1999/xlink" x="0px" y="0px"
	 viewBox="0 0 300 300" style="enable-background:new 0 0 300 300;" xml:space="preserve">
<style type="text/css">
	.st0{fill:#FFFFFF;}
	.st1{fill:#005385;}
	.st2{fill:#FF7021;}
</style>
<g>
	<path class="st0" d="M226.6,192.1c-7.4,7.2-17.9,11.7-29.7,11.7c-11.8,0-22.3-4.5-29.7-11.7c-7.2-7.1-11.4-16.6-10.8-26.9
		c0.6-10,5.5-18.8,12.8-25.1c7.3-6.1,17-9.9,27.6-9.9c10.6,0,20.4,3.8,27.6,9.9c7.4,6.3,12.3,15.1,12.9,25.1
		C238,175.4,233.8,185,226.6,192.1z"/>
	<path class="st1" d="M226.6,192.1c-7.4,7.2-17.9,11.7-29.7,11.7c-11.8,0-22.3-4.5-29.7-11.7c-7.2-7.1-11.4-16.6-10.8-26.9
		c0.6-10,5.5-18.8,12.8-25.1c7.3-6.1,17-9.9,27.6-9.9c10.6,0,20.4,3.8,27.6,9.9c7.4,6.3,12.3,15.1,12.9,25.1
		C238,175.4,233.8,185,226.6,192.1z"/>
	<path class="st2" d="M299.1,164.1c-1.8-12.4-6.1-24.1-12.7-34.7c-6.1-9.8-13.9-18.3-23.2-25.5l0,0l-93.7-71.9
		c-0.1-0.1-0.2-0.1-0.2-0.2c-6.2-4.7-16.5-4.7-23.3,0c-6.9,4.8-7.6,12.7-1.5,17.7l0,0l39.1,31.8L64.5,81.3h-0.2
		c-9.8,0-19.3,6.5-21.2,14.6c-1.9,8.3,4.8,15.2,15,15.3l0,0l60.4-0.1L10.7,193.9c-0.1,0.1-0.3,0.2-0.4,0.3
		c-10.2,7.8-13.4,20.7-7.1,28.9c6.5,8.3,20.3,8.3,30.6,0L92.7,175c0,0-0.9,6.5-0.8,10.4c0.1,3.9,1.3,11.5,3.2,17.5
		c3.9,12.6,10.6,24.2,19.9,34.5c9.5,10.5,21.3,19,34.8,25c14.3,6.3,29.7,9.5,45.7,9.5c16,0,31.5-3.3,45.7-9.7
		c13.6-6.1,25.3-14.6,34.8-25.1c9.3-10.3,16-22,19.9-34.5c2-6.3,3.2-12.7,3.7-19.3C300.2,176.9,300,170.4,299.1,164.1z M256,186.8
		c-2.7,7.4-7,14.3-12.9,20.3c-12.1,12.4-29.1,19.4-47.4,19.4c-18.4,0-35.3-6.9-47.5-19.2c-5.9-6-10.3-12.9-13-20.3
		c-2.6-7.2-3.6-15-3-22.6c0.6-7.5,2.9-14.8,6.5-21.3c3.5-6.4,8.4-12.2,14.4-17.1c11.8-9.6,26.8-14.8,42.5-14.8
		c15.7,0,30.7,5.1,42.5,14.7c6,4.9,10.9,10.7,14.4,17.1c3.6,6.6,5.9,13.8,6.5,21.3C259.6,171.9,258.6,179.6,256,186.8z"/>
</g>
</svg>
