<?xml version="1.0" encoding="utf-8"?>
<!-- Generator: Adobe Illustrator 27.0.0, SVG Export Plug-In . SVG Version: 6.00 Build 0)  -->
<svg version="1.1" id="Layer_1" xmlns="http://www.w3.org/2000/svg" xmlns:xlink="http://www.w3.org/1999/xlink" x="0px" y="0px"
	 viewBox="0 0 300 300" style="enable-background:new 0 0 300 300;" xml:space="preserve">
<style type="text/css">
	.st0{fill:#9A4993;}
	.st1{fill:#6A1577;}
	.st2{fill:#813084;}
	.st3{fill:#FFFFFF;}
</style>
<g>
	<path class="st0" d="M237.1,144.9v10.6h10.7v-10.6H237.1z M237.1,144.9v10.6h10.7v-10.6H237.1z M237.1,144.9v10.6h10.7v-10.6H237.1
		z M237.1,144.9v10.6h10.7v-10.6H237.1z M283.4,88.1c0-5-1.1-9.5-3.3-13.3c-2.1-3.8-5.3-6.9-9.6-9.4C235,45,199.4,24.5,163.9,4
		c-9.6-5.5-18.8-5.3-28.4,0.2c-14.1,8.3-84.9,48.9-106,61.2c-8.7,5-12.9,12.7-12.9,22.8v123.6c0,4.9,1.1,9.3,3.1,13c0,0,0,0,0,0.1
		c2.1,3.9,5.4,7.1,9.8,9.7c21.1,12.3,91.9,52.8,106,61.2c4.6,2.7,9.1,4.1,13.6,4.3c0.8,0,1.7,0,2.5,0c4.1-0.3,8.2-1.6,12.3-4
		c35.5-20.5,71.1-40.9,106.6-61.4c4.5-2.5,7.7-5.7,9.8-9.7c2.1-3.8,3.1-8.1,3.1-13C283.4,211.7,283.4,129.3,283.4,88.1z
		 M263.7,155.5v8.8h-7.1v7.1h-8.8v-7.1h-10.7v7.1h-8.8v-7.1h-7.1v-8.8h7.1v-10.6h-7.1v-8.8h7.1v-7.2h8.8v7.2h10.7v-7.2h8.8v7.2h7.1
		v8.8h-7.1v10.6H263.7z M150,238.4c-32.8,0-61.6-17.9-76.9-44.4c0,0,0,0,0,0c-7.5-13-11.8-28.1-11.8-44.1
		c0-48.9,39.6-88.6,88.6-88.6c32.8,0,61.3,17.9,76.7,44.3l-38.5,22.2c-7.7-13.1-21.8-22-38.1-22c-24.4,0-44.1,19.7-44.1,44.1
		c0,8,2.2,15.3,5.8,21.8l0,0c0,0,0,0,0,0c1.5,2.6,3.2,4.9,5.1,7.1c0.3,0.3,0.5,0.6,0.8,0.9c0.3,0.4,0.7,0.7,1,1
		c1.3,1.4,2.7,2.6,4.2,3.8c0.3,0.2,0.6,0.4,0.9,0.7c0.6,0.4,1.2,0.8,1.7,1.2c0.3,0.2,0.6,0.4,0.9,0.6c3.4,2.2,7.2,3.9,11.1,5.1
		c0.8,0.2,1.5,0.4,2.3,0.6c2.3,0.5,4.7,0.9,7.2,1.1c1,0.1,2,0.1,3.1,0.1c0.8,0,1.5,0,2.3-0.1c0.2,0,0.3,0,0.5,0c0.2,0,0.3,0,0.5,0
		c1.2-0.1,2.3-0.2,3.4-0.4c0.4-0.1,0.7-0.1,1.1-0.2c0.9-0.2,1.8-0.4,2.7-0.6c0.2-0.1,0.5-0.1,0.7-0.2c1.8-0.5,3.6-1.1,5.3-1.8
		c0.9-0.4,1.7-0.7,2.6-1.1c8.2-3.9,14.9-10.3,19.4-18.1l38.5,22.3C211.6,220.5,182.9,238.4,150,238.4z M237.1,155.5h10.7v-10.6
		h-10.7V155.5z M237.1,144.9v10.6h10.7v-10.6H237.1z M237.1,144.9v10.6h10.7v-10.6H237.1z"/>
	<path class="st1" d="M188.4,171.6c-4.4,7.8-11.2,14.2-19.4,18.1c-0.8,0.4-1.7,0.8-2.6,1.1c-1.7,0.7-3.5,1.3-5.3,1.8
		c-0.2,0.1-0.5,0.1-0.7,0.2c-0.9,0.2-1.8,0.4-2.7,0.6c-0.4,0.1-0.7,0.1-1.1,0.2c-1.1,0.2-2.3,0.3-3.4,0.4c-0.2,0-0.3,0-0.5,0
		c-0.2,0-0.3,0-0.5,0c-0.7,0-1.5,0.1-2.3,0.1c-1,0-2,0-3.1-0.1c-2.5-0.2-4.9-0.5-7.2-1.1c-0.8-0.2-1.5-0.4-2.3-0.6
		c-4-1.2-7.7-2.9-11.1-5.1c-0.3-0.2-0.6-0.4-0.9-0.6c-0.6-0.4-1.2-0.8-1.7-1.2c-0.3-0.2-0.6-0.4-0.9-0.7c-1.5-1.2-2.9-2.4-4.2-3.8
		c-0.3-0.3-0.7-0.7-1-1c-0.3-0.3-0.6-0.6-0.8-0.9c-1.9-2.2-3.6-4.6-5.1-7.1l0,0l38.6-22.3L188.4,171.6L188.4,171.6z"/>
	<path class="st1" d="M280.2,224.8c-2.1,4-5.3,7.2-9.8,9.7c-35.6,20.5-71.1,40.9-106.6,61.4c-4.1,2.4-8.1,3.7-12.2,4
		c-0.8,0.1-1.7,0.1-2.5,0c-4.5-0.1-9.1-1.6-13.7-4.3c-14.1-8.4-84.9-48.9-106-61.2c-4.3-2.6-7.7-5.9-9.8-9.7l0.1-0.1L73.1,194
		c0,0,0,0,0,0c15.3,26.6,44.1,44.4,76.9,44.4c32.9,0,61.6-17.9,76.9-44.5L280.2,224.8z"/>
	<path class="st1" d="M188.3,171.5C188.3,171.6,188.3,171.6,188.3,171.5c-4.4,7.9-11.2,14.2-19.3,18.2c-0.8,0.4-1.7,0.8-2.6,1.1
		c-1.7,0.7-3.5,1.3-5.3,1.8c-0.2,0.1-0.5,0.1-0.7,0.2c-0.9,0.2-1.8,0.4-2.7,0.6c-0.4,0.1-0.7,0.1-1.1,0.2c-1.1,0.2-2.3,0.3-3.4,0.4
		c-0.2,0-0.3,0-0.5,0c-0.2,0-0.3,0-0.5,0c-0.7,0-1.5,0.1-2.3,0.1c-1,0-2,0-3.1-0.1c-2.5-0.2-4.9-0.5-7.2-1.1
		c-0.8-0.2-1.5-0.4-2.3-0.6c-4-1.2-7.7-2.9-11.1-5.1c-0.3-0.2-0.6-0.4-0.9-0.6c-0.6-0.4-1.2-0.8-1.7-1.2c-0.3-0.2-0.6-0.4-0.9-0.7
		c-1.5-1.2-2.9-2.4-4.2-3.8c-0.3-0.3-0.7-0.7-1-1c-0.3-0.3-0.6-0.6-0.8-0.9c-1.9-2.2-3.6-4.6-5.1-7.1c0,0,0,0,0,0l0,0l38.6-22.3
		L188.3,171.5z"/>
	<path class="st2" d="M237.1,144.9v10.6h10.7v-10.6H237.1z M237.1,144.9v10.6h10.7v-10.6H237.1z M237.1,144.9v10.6h10.7v-10.6H237.1
		z M237.1,144.9v10.6h10.7v-10.6H237.1z M283.4,88.1c0-5-1.1-9.5-3.3-13.3l-53.5,30.8l-38.5,22.2l-37.7,21.7l38,22l0,0l38.5,22.3
		l53.4,30.9c2.1-3.8,3.1-8.1,3.1-13C283.4,211.7,283.4,129.3,283.4,88.1z M263.7,144.9h-7.1v10.6h7.1v8.8h-7.1v7.1h-8.8v-7.1h-10.7
		v7.1h-8.8v-7.1h-7.1v-8.8h7.1v-10.6h-7.1v-8.8h7.1v-7.2h8.8v7.2h10.7v-7.2h8.8v7.2h7.1V144.9z M237.1,155.5h10.7v-10.6h-10.7V155.5
		z M237.1,144.9v10.6h10.7v-10.6H237.1z M237.1,144.9v10.6h10.7v-10.6H237.1z"/>
	<path class="st3" d="M139.7,192.9c-0.8-0.2-1.5-0.4-2.3-0.6C138.1,192.5,138.9,192.7,139.7,192.9z"/>
	<path class="st3" d="M146.9,194c-2.5-0.2-4.9-0.5-7.2-1.1C142,193.4,144.4,193.8,146.9,194z"/>
	<path class="st3" d="M116.7,178.9c-1.9-2.2-3.6-4.6-5.1-7.1c0,0,0,0,0,0l0,0v0c0,0,0,0,0,0C113.1,174.3,114.8,176.7,116.7,178.9z"
		/>
	<path class="st3" d="M226.6,105.6l-38.5,22.2c0,0,0,0,0-0.1L226.6,105.6C226.6,105.6,226.6,105.6,226.6,105.6z"/>
	<path class="st3" d="M227,193.7c0,0.1-0.1,0.1-0.1,0.2c0,0,0,0,0,0l-38.5-22.3c0,0,0,0,0,0c0,0,0,0,0,0L227,193.7z"/>
</g>
</svg>
