<?xml version="1.0" encoding="utf-8"?>
<!-- Generator: Adobe Illustrator 27.0.0, SVG Export Plug-In . SVG Version: 6.00 Build 0)  -->
<svg version="1.1" id="Layer_1" xmlns="http://www.w3.org/2000/svg" xmlns:xlink="http://www.w3.org/1999/xlink" x="0px" y="0px"
	 viewBox="0 0 300 300" style="enable-background:new 0 0 300 300;" xml:space="preserve">
<style type="text/css">
	.st0{fill:#0ACF83;}
	.st1{fill:#A259FF;}
	.st2{fill:#F24E1E;}
	.st3{fill:#FF7262;}
	.st4{fill:#1ABCFE;}
</style>
<g>
	<path class="st0" d="M100,300c27.6,0,50-22.4,50-50v-50h-50c-27.6,0-50,22.4-50,50S72.4,300,100,300z"/>
	<path class="st1" d="M50,150c0-27.6,22.4-50,50-50h50v100h-50C72.4,200,50,177.6,50,150z"/>
	<path class="st2" d="M50,50c0-27.6,22.4-50,50-50h50v100h-50C72.4,100,50,77.6,50,50z"/>
	<path class="st3" d="M150,0h50c27.6,0,50,22.4,50,50s-22.4,50-50,50h-50V0z"/>
	<path class="st4" d="M250,150c0,27.6-22.4,50-50,50s-50-22.4-50-50s22.4-50,50-50S250,122.4,250,150z"/>
</g>
</svg>
