<?xml version="1.0" encoding="utf-8"?>
<!-- Generator: Adobe Illustrator 27.0.0, SVG Export Plug-In . SVG Version: 6.00 Build 0)  -->
<svg version="1.1" id="Layer_1" xmlns="http://www.w3.org/2000/svg" xmlns:xlink="http://www.w3.org/1999/xlink" x="0px" y="0px"
	 viewBox="0 0 300 300" style="enable-background:new 0 0 300 300;" xml:space="preserve">
<style type="text/css">
	.st0{fill:#FFA000;}
	.st1{fill:#F57F17;}
	.st2{fill:#FFCA28;}
</style>
<g>
	<path class="st0" d="M183.9,108.4l-30,27.9l-27.9-56.2l14.4-32.3c3.6-6.4,9.6-6.5,13.2,0L183.9,108.4z"/>
	<path class="st1" d="M153.9,136.3L41.7,240.7l84.4-160.6L153.9,136.3z"/>
	<path class="st2" d="M216.8,65.6c5.4-5.1,10.9-3.4,12.3,3.9l29.2,169.7l-96.8,58.1c-3.4,1.9-12.4,2.6-12.4,2.6s-8.2-1-11.3-2.7
		l-96.1-56.6L216.8,65.6z"/>
	<path class="st0" d="M126.1,80.1L41.7,240.7L79.3,6c1.4-7.3,5.5-8,9.3-1.6L126.1,80.1z"/>
</g>
</svg>
