<?xml version="1.0" encoding="utf-8"?>
<!-- Generator: Adobe Illustrator 27.0.0, SVG Export Plug-In . SVG Version: 6.00 Build 0)  -->
<svg version="1.1" id="Layer_1" xmlns="http://www.w3.org/2000/svg" xmlns:xlink="http://www.w3.org/1999/xlink" x="0px" y="0px"
	 viewBox="0 0 300 300" style="enable-background:new 0 0 300 300;" xml:space="preserve">
<style type="text/css">
	.st0{fill:#161614;}
</style>
<g>
	<path class="st0" d="M150,3.7C67.2,3.7,0,70.9,0,153.7C0,220,43,276.2,102.6,296c7.5,1.4,10.3-3.3,10.3-7.2
		c0-3.6-0.1-15.4-0.2-27.9c-41.7,9.1-50.5-17.7-50.5-17.7c-6.8-17.3-16.6-21.9-16.6-21.9c-13.6-9.3,1-9.1,1-9.1
		c15.1,1.1,23,15.5,23,15.5c13.4,22.9,35.1,16.3,43.6,12.5c1.3-9.7,5.2-16.3,9.5-20.1c-33.3-3.8-68.3-16.7-68.3-74.1
		c0-16.4,5.9-29.8,15.5-40.3c-1.6-3.8-6.7-19,1.5-39.7c0,0,12.6-4,41.3,15.4c12-3.3,24.8-5,37.5-5c12.7,0.1,25.6,1.7,37.6,5
		c28.6-19.4,41.2-15.4,41.2-15.4c8.2,20.7,3,35.9,1.5,39.7c9.6,10.5,15.4,23.9,15.4,40.3c0,57.6-35.1,70.3-68.5,74
		c5.4,4.7,10.2,13.8,10.2,27.8c0,20.1-0.2,36.2-0.2,41.2c0,4,2.7,8.7,10.3,7.2C257.1,276.2,300,220,300,153.7
		C300,70.9,232.9,3.7,150,3.7"/>
	<path class="st0" d="M56.2,217.4c-0.3,0.7-1.5,1-2.6,0.5c-1.1-0.5-1.7-1.5-1.3-2.3c0.3-0.8,1.5-1,2.6-0.5
		C55.9,215.6,56.6,216.6,56.2,217.4 M63.6,224c-0.7,0.7-2.1,0.3-3.1-0.7c-1-1-1.2-2.4-0.4-3.1c0.7-0.7,2.1-0.3,3.1,0.7
		C64.1,221.9,64.3,223.3,63.6,224 M68.6,232.4c-0.9,0.6-2.4,0-3.3-1.3c-0.9-1.3-0.9-2.9,0-3.6c0.9-0.6,2.4-0.1,3.3,1.3
		C69.6,230.1,69.6,231.7,68.6,232.4 M77.2,242.1c-0.8,0.9-2.6,0.7-3.9-0.6c-1.3-1.2-1.7-2.9-0.9-3.8c0.8-0.9,2.6-0.7,3.9,0.6
		C77.7,239.5,78.1,241.3,77.2,242.1 M88.3,245.4c-0.4,1.2-2,1.7-3.7,1.2c-1.7-0.5-2.8-1.9-2.5-3.1c0.3-1.2,2-1.7,3.8-1.2
		C87.5,242.9,88.6,244.2,88.3,245.4 M100.8,246.8c0,1.2-1.4,2.3-3.2,2.3c-1.8,0-3.2-1-3.3-2.2c0-1.3,1.4-2.3,3.2-2.3
		C99.4,244.6,100.8,245.6,100.8,246.8 M113.2,246.4c0.2,1.2-1,2.4-2.8,2.8c-1.7,0.3-3.3-0.4-3.6-1.6c-0.2-1.2,1-2.5,2.8-2.8
		C111.4,244.4,113,245.1,113.2,246.4"/>
</g>
</svg>
