<?xml version="1.0" encoding="utf-8"?>
<!-- Generator: Adobe Illustrator 27.0.0, SVG Export Plug-In . SVG Version: 6.00 Build 0)  -->
<svg version="1.1" id="Layer_1" xmlns="http://www.w3.org/2000/svg" xmlns:xlink="http://www.w3.org/1999/xlink" x="0px" y="0px"
	 viewBox="0 0 300 300.1" style="enable-background:new 0 0 300 300.1;" xml:space="preserve">
<style type="text/css">
	.st0{fill:#F9AB00;}
	.st1{fill:#E37400;}
</style>
<g>
	<path class="st0" d="M285.6,262.6c0.1,20.6-16.5,37.4-37.1,37.5c-1.5,0-3.1-0.1-4.6-0.3c-19.1-2.8-33.1-19.5-32.6-38.8V39
		c-0.5-19.3,13.6-36,32.7-38.8c20.5-2.4,39,12.2,41.4,32.7c0.2,1.5,0.3,3,0.2,4.5V262.6z"/>
	<path class="st1" d="M51.6,225.8c20.5,0,37.2,16.6,37.2,37.2s-16.6,37.2-37.2,37.2S14.4,283.5,14.4,263S31.1,225.8,51.6,225.8z
		 M149.4,113.1c-20.6,1.1-36.6,18.4-36.2,39.1v99.8c0,27.1,11.9,43.5,29.4,47.1c20.2,4.1,39.8-8.9,43.9-29.1c0.5-2.5,0.8-5,0.7-7.5
		v-112c0-20.6-16.6-37.3-37.2-37.4C149.9,113.1,149.6,113.1,149.4,113.1z"/>
</g>
</svg>
