<?xml version="1.0" encoding="utf-8"?>
<!-- Generator: Adobe Illustrator 27.0.0, SVG Export Plug-In . SVG Version: 6.00 Build 0)  -->
<svg version="1.1" id="Layer_1" xmlns="http://www.w3.org/2000/svg" xmlns:xlink="http://www.w3.org/1999/xlink" x="0px" y="0px"
	 viewBox="0 0 300 300" style="enable-background:new 0 0 300 300;" xml:space="preserve">
<style type="text/css">
	.st0{fill-rule:evenodd;clip-rule:evenodd;fill:#7B7B7B;}
	.st1{fill:#5A5A5A;}
	.st2{fill-rule:evenodd;clip-rule:evenodd;fill:#E6E7E8;}
	.st3{fill-rule:evenodd;clip-rule:evenodd;fill:#D0D1D2;}
	.st4{fill-rule:evenodd;clip-rule:evenodd;fill:#458CF5;}
	.st5{fill:#FFFFFF;}
	.st6{fill-rule:evenodd;clip-rule:evenodd;fill:#D2D3D4;}
	.st7{fill:#D2D3D4;}
	.st8{fill-rule:evenodd;clip-rule:evenodd;fill:#505050;}
</style>
<g>
	<path class="st0" d="M84.1,38.5l22.3-22.3v42.6H84.1V38.5z M215.9,38.5l-22.3-22.3v42.6h22.3V38.5z"/>
	<path class="st1" d="M106.4,16.2h87.2v21.3h-87.2V16.2z"/>
	<g>
		<path class="st2" d="M275.7,283.8H24.3C10.9,283.8,0,272.9,0,259.5V100.6l41.8-41.8h216.4l41.8,41.8v158.9
			C300,272.9,289.1,283.8,275.7,283.8z"/>
		<path class="st3" d="M0,144.9v-44.4l41.8-41.8h216.4l41.8,41.8v44.4H0z"/>
		<path class="st4" d="M34.5,283.8V111.5c0-5.6,4.5-10.1,10.1-10.1h210.8c5.6,0,10.1,4.5,10.1,10.1v172.3H34.5z"/>
	</g>
	<path class="st5" d="M34.5,144.9h231.1v138.9H34.5V144.9z"/>
	<path class="st6" d="M196.6,283.8v-41.6L176.4,222l-13.2-36.5l9.1-23.3l51.7,51.7l9.1-38.5l32.4,32.4v76L196.6,283.8L196.6,283.8z"
		/>
	<path class="st7" d="M49.7,161.1h77v86.1h-77V161.1z M49.7,266.6H149v17.2H49.7V266.6z"/>
	<path class="st8" d="M215.9,251.4v32.3h-42.6v-31.9c-25.2-11.5-36.4-41.2-24.9-66.5c4.9-10.7,13.3-19.3,23.9-24.4v47.7l21.3,13.2
		l22.3-13.2V161c25,12,35.4,42,23.4,67C234.3,238.3,226.1,246.5,215.9,251.4L215.9,251.4z"/>
	<path class="st2" d="M58.3,112.5c4.8,0,8.6,3.9,8.6,8.6s-3.9,8.6-8.6,8.6s-8.6-3.9-8.6-8.6S53.5,112.5,58.3,112.5z M83.6,112.5
		c4.8,0,8.6,3.9,8.6,8.6s-3.9,8.6-8.6,8.6s-8.6-3.9-8.6-8.6S78.9,112.5,83.6,112.5z"/>
</g>
</svg>
