<?xml version="1.0" encoding="utf-8"?>
<!-- Generator: Adobe Illustrator 27.0.0, SVG Export Plug-In . SVG Version: 6.00 Build 0)  -->
<svg version="1.1" id="Layer_1" xmlns="http://www.w3.org/2000/svg" xmlns:xlink="http://www.w3.org/1999/xlink" x="0px" y="0px"
	 viewBox="0 0 300 300" style="enable-background:new 0 0 300 300;" xml:space="preserve">
<style type="text/css">
	.st0{fill:#E34F26;}
	.st1{fill:#EF652A;}
</style>
<g>
	<path class="st0" d="M18.6,0l22,269L151,300l107.2-31L281.4,0.5L18.6,0z M148.8,243.2L81,224.2l-4.5-52.3h33l2,25.6l37.3,10.8
		l2.2-0.6l34.6-9.3l4.5-42.9H75.2L66,54.8h166.5l-3.1,32.8H102.3l3.4,34.5h120.7l-9.2,102.1L151,242.6L148.8,243.2z"/>
	<polygon class="st1" points="185.6,198.4 151,207.8 151,155.5 190.1,155.5 	"/>
	<polygon class="st1" points="259.2,26 239.9,248.2 151,274 151,242.6 217.2,224.2 226.4,122.1 151,122.1 151,87.7 229.5,87.7 
		232.5,54.8 151,54.8 151,25.6 	"/>
</g>
</svg>
