<?xml version="1.0" encoding="utf-8"?>
<!-- Generator: Adobe Illustrator 27.0.0, SVG Export Plug-In . SVG Version: 6.00 Build 0)  -->
<svg version="1.1" id="Layer_1" xmlns="http://www.w3.org/2000/svg" xmlns:xlink="http://www.w3.org/1999/xlink" x="0px" y="0px"
	 viewBox="0 0 300 300" style="enable-background:new 0 0 300 300;" xml:space="preserve">
<style type="text/css">
	.st0{fill:#F0DB4F;}
	.st1{fill:#323330;}
</style>
<g>
	<path class="st0" d="M0,0h300v300H0V0z"/>
	<path class="st1" d="M275.4,228.5c-2.2-13.7-11.1-25.2-37.6-35.9c-9.2-4.2-19.4-7.2-22.5-14.2c-1.1-4-1.2-6.3-0.5-8.8
		c2-8,11.5-10.4,19-8.2c4.8,1.6,9.4,5.4,12.2,11.3c12.9-8.4,12.9-8.3,22-14.1c-3.3-5.1-5.1-7.5-7.2-9.7
		c-7.8-8.7-18.4-13.2-35.4-12.8c-2.9,0.4-5.9,0.8-8.8,1.1c-8.5,2.1-16.5,6.6-21.3,12.5c-14.2,16.1-10.2,44.3,7.1,55.9
		c17,12.8,42,15.7,45.2,27.6c3.1,14.6-10.8,19.4-24.5,17.7c-10.2-2.1-15.8-7.3-21.9-16.7c-11.2,6.5-11.2,6.5-22.8,13.1
		c2.7,6,5.6,8.7,10.2,13.9c21.7,22,76.1,21,85.9-12.4C274.9,247.9,277.6,240.2,275.4,228.5z M163.1,137.9H135
		c0,24.2-0.1,48.3-0.1,72.5c0,15.4,0.8,29.6-1.7,33.9c-4.1,8.5-14.7,7.5-19.6,5.8c-4.9-2.4-7.4-5.9-10.4-10.8
		c-0.8-1.4-1.4-2.5-1.6-2.6c-7.6,4.6-15.2,9.3-22.8,14c3.8,7.8,9.4,14.5,16.5,18.9c10.7,6.4,25.1,8.4,40.1,4.9
		c9.8-2.9,18.2-8.8,22.6-17.7c6.4-11.8,5-26,5-41.8C163.2,189.4,163.1,163.7,163.1,137.9L163.1,137.9z"/>
</g>
</svg>
