<?xml version="1.0" encoding="utf-8"?>
<!-- Generator: Adobe Illustrator 27.0.0, SVG Export Plug-In . SVG Version: 6.00 Build 0)  -->
<svg version="1.1" id="Layer_1" xmlns="http://www.w3.org/2000/svg" xmlns:xlink="http://www.w3.org/1999/xlink" x="0px" y="0px"
	 viewBox="0 0 300 300" style="enable-background:new 0 0 300 300;" xml:space="preserve">
<style type="text/css">
	.st0{fill:#6BA0AB;}
</style>
<g>
	<path class="st0" d="M85.7,140.8L85.7,140.8l-2.4,8.5L85.7,140.8z M98.1,159.2l-2.6,0L98.1,159.2z M97.4,171.9L97.4,171.9
		l-15.8,0.1L97.4,171.9z M100.7,159.2l-2.6,0L100.7,159.2z M98.8,170.8l2.8-10.5L98.8,170.8L98.8,170.8L98.8,170.8z M157,122.4
		l-5.1,24.1L157,122.4z M143.8,122.4l-3.9,18L143.8,122.4L143.8,122.4z"/>
	<path class="st0" d="M156.1,121.3h-11c-0.6,0-1.2,0.5-1.3,1.1l-3.9,18l-3.9,18c-0.1,0.6-0.7,1.1-1.3,1.1h-7.8
		c-7.7,0-6.8-5.3-5.2-12.6l0-0.2l0.2-0.9c0-0.1,0-0.1,0-0.2l0.3-1.9l0.4-2c0.1-0.6,0.3-1.5,0.4-2l1.8-8.7l1.8-8.7
		c0.1-0.6-0.3-1.1-0.9-1.1h-11.3c-0.6,0-1.2,0.5-1.3,1.1l-2.4,11.5l-2.4,11.5v0l-0.2,1.1c-2.8,12.7-2.1,24.9,13.1,25.3
		c0.3,0,0.4,0,0.4,0h23.8c0.6,0,1.2-0.5,1.3-1.1l5.1-24.1l5.1-24.1C157.2,121.8,156.8,121.3,156.1,121.3L156.1,121.3z M199.9,159.7
		c0.6,0,1,0.5,0.9,1.1l-1.1,5.2 M198.7,171.2l1.1-5.2L198.7,171.2L198.7,171.2z M197.4,172.3L197.4,172.3c-3.2,0-12.9,0.1-20.2,0.1
		C186,172.4,197.4,172.3,197.4,172.3z M170.6,153c0-0.6,0.6-1.5,1.2-1.5l-1.4,0C169.8,157.6,170.6,153,170.6,153z"/>
	<path class="st0" d="M178.1,172.4c-0.1,0-0.1,0-0.2,0C178,172.4,178.1,172.4,178.1,172.4z M199.9,159.7c0.6,0,1,0.5,0.9,1.1
		l-1.1,5.2l-0.2,0.9 M183.3,172.4L183.3,172.4L183.3,172.4z M180.6,172.4h-0.2H180.6z M179.8,172.4c-0.1,0-0.2,0-0.3,0
		C179.6,172.4,179.7,172.4,179.8,172.4z M179,172.4h-0.2H179z M180.5,172.4h-0.7H180.5z M197.4,172.3c-2.4,0-8.2,0.1-14,0.1
		C189.2,172.3,195,172.3,197.4,172.3z M198.7,171.2l0.9-4.4L198.7,171.2L198.7,171.2L198.7,171.2z M179.6,172.4H179H179.6z
		 M177.9,172.4h-0.8H177.9z M178.8,172.4h-0.6H178.8z M18.1,153.1l1.7-7.6l-1.9,8.6L16,163l1.6-7.7C17.8,154.7,18,153.7,18.1,153.1
		L18.1,153.1z M38.6,121.2H26.5c-0.6,0-1.2,0.5-1.4,1.1l-1.1,5l-1.1,5.1c-0.1,0.6,0.3,1.1,0.9,1.1h12.1c0.6,0,1.2-0.5,1.3-1.1l1.1-5
		l1.1-5l0,0C39.6,121.7,39.2,121.2,38.6,121.2L38.6,121.2z M35.9,138L35.9,138l-3.5,16.3L35.9,138L35.9,138z M0.9,192.2
		c0,0,6.1,0.1,9.9,0.1C7.9,192.3,3.1,192.2,0.9,192.2L0.9,192.2L0.9,192.2z M21.6,138l-1.7,7.6L21.6,138z"/>
	<path class="st0" d="M35.1,136.9H22.9c-0.6,0-1.2,0.5-1.4,1.1l-1.7,7.6l-1.7,7.6c-0.1,0.6-0.3,1.6-0.5,2.2L16,163l-1.6,7.7
		c-0.1,0.6-0.4,1.6-0.6,2.1c0,0-2.3,6.8-6.1,6.7c-0.2,0-0.3,0-0.5,0c-1.8,0-3.3-0.1-3.3-0.1l0,0c-0.6,0-1.2,0.5-1.4,1.1l-1.3,5.3
		L0,191.1c-0.1,0.6,0.2,1.1,0.9,1.1c2.2,0,7,0.1,10,0.1c9.5,0,14.6-5.3,17.8-20.5l3.8-17.4l3.5-16.4
		C36.1,137.4,35.7,136.9,35.1,136.9L35.1,136.9z M207.7,171.8c-0.6,0-1-0.5-0.9-1.1l9.1-42.8 M220.4,170.7l3.7-18.3L220.4,170.7z"/>
	<path class="st0" d="M206.9,171.2c-0.1-0.3,0-1,0.1-1.6l4.3-20.3l-4.6,21.4c-0.1,0.6,0.3,1.1,0.9,1.1h1.1
		C208.2,171.8,207,171.5,206.9,171.2z M219.7,171.5c-0.3,0.1-1.1,0.2-1.7,0.2h1.1c0.6,0,1.2-0.5,1.3-1.1l0.2-1.1
		C220.5,170.2,220,171.4,219.7,171.5L219.7,171.5z M222.3,161.5l1.6-8.1v0L222.3,161.5L222.3,161.5z M258.3,130.7l0.5,2.1
		c0.1,0.6-0.3,1.1-0.9,1.1 M220.6,169.6l1.6-8.1L220.6,169.6z M257.8,128.6l0.5,2.1L257.8,128.6z M223.9,153.5
		c0.1-0.6,0.3-1.6,0.4-2.2l1.7-8.2l-2,9.3L223.9,153.5z M216.1,127.1c-0.1,0.6-0.3,1.3-0.4,1.8l-4.3,20.3l4.6-21.4L216.1,127.1z"/>
	<path class="st0" d="M258.8,132.8l-0.5-2.1l-0.5-2.1l-0.3-1.1c-1-3.8-3.9-6.1-10.2-6.1l-9.8,0l-9,0h-10.2c-0.6,0-1.2,0.5-1.3,1.1
		l-0.4,2.1l-0.5,2.5l-0.1,0.7l-4.6,21.4l-4.3,20.3c-0.1,0.6-0.2,1.3-0.1,1.6s1.2,0.5,1.9,0.5h9.2c0.6,0,1.4-0.1,1.7-0.2
		c0.3-0.1,0.8-1.3,0.9-1.9l1.6-8.1l1.6-8.1v0l0.2-1.1l2-9.2l1.7-8.2c0.1-0.6,0.7-1.1,1.3-1.1l28.8,0
		C258.6,133.9,259,133.4,258.8,132.8L258.8,132.8z"/>
	<path class="st0" d="M295.9,114c-0.6,0-1.6,0-2.2,0h-9.2c-0.6,0-1.4,0.4-1.7,0.9l-20.4,29.9c-0.3,0.5-0.7,0.4-0.9-0.2L260,138
		c-0.1-0.6-0.7-1.1-1.4-1.1h-13.1c-0.6,0-1,0.5-0.8,1.1l5.9,20.6c0.2,0.6,0.2,1.5,0,2.1l-2.6,10c-0.2,0.6,0.2,1.1,0.8,1.1h13
		c0.6,0,1.2-0.5,1.4-1.1l2.6-10c0.2-0.6,0.6-1.5,0.9-2l33.1-43.9c0.4-0.5,0.2-0.9-0.4-0.9L295.9,114L295.9,114z M191.8,139.8
		L191.8,139.8c-0.1,0.6-0.7,1.1-1.3,1.1h-16.6c-0.6,0-0.9-0.4-0.8-0.9c0,0,0,0,0,0c0,0,0,0,0,0c0,0,0,0,0-0.1c0,0,0-0.1,0.1-0.3
		c1.6-4.2,4.8-7,10.9-7C190.9,132.7,192.2,136,191.8,139.8L191.8,139.8z M186.9,120.6c-21.3,0-26.4,13-29.2,26
		c-2.8,13.3-2.6,25.8,19.5,25.8h0.8c0.1,0,0.1,0,0.2,0h1.4c0.1,0,0.2,0,0.3,0h0.7h0.2c0.9,0,1.8,0,2.7,0h0c5.8,0,11.7-0.1,14-0.1
		c0.6,0,1.2-0.5,1.3-1.1l0.9-4.4l0.2-0.9l1.1-5.2c0.1-0.6-0.3-1.1-0.9-1.1h-19.8c-7.9,0-10.2-2.1-9.4-8.3h31.7l0,0c0,0,0,0,0,0
		c0.5,0,1-0.4,1.2-0.8c0-0.1,0.1-0.2,0.1-0.3l0,0C208.4,132.5,207.1,120.6,186.9,120.6L186.9,120.6z M86,139.7l-0.3,1.1l0,0
		l-2.4,8.5l-2.4,8.5c-0.2,0.6-0.8,1.1-1.4,1.1H66.9c-9.6,0-12-7.5-9.6-18.6c2.3-11.3,6.9-18.4,16.4-19.1
		C86.6,120.1,89.2,129.2,86,139.7L86,139.7z M94.7,158.2c0,0,6-14.5,7.3-22.9c1.9-11.2-3.8-27.5-25.5-27.5
		c-21.6,0-31,15.5-34.5,32.4c-3.6,17,1.1,31.9,22.6,31.8l16.9-0.1l15.8-0.1c0.6,0,1.2-0.5,1.4-1.1l2.8-10.5c0.2-0.6-0.2-1.1-0.8-1.1
		l-2.6,0l-2.6,0c-0.5,0-0.8-0.3-0.8-0.8C94.7,158.3,94.7,158.2,94.7,158.2L94.7,158.2L94.7,158.2L94.7,158.2z"/>
	<path class="st0" d="M201.6,148.4c0,0.4-0.3,0.7-0.7,0.7c-0.4,0-0.7-0.3-0.7-0.7c0-0.4,0.3-0.7,0.7-0.7
		C201.3,147.7,201.6,148,201.6,148.4z"/>
</g>
</svg>
