<?xml version="1.0" encoding="utf-8"?>
<!-- Generator: Adobe Illustrator 27.0.0, SVG Export Plug-In . SVG Version: 6.00 Build 0)  -->
<svg version="1.1" id="Layer_1" xmlns="http://www.w3.org/2000/svg" xmlns:xlink="http://www.w3.org/1999/xlink" x="0px" y="0px"
	 viewBox="0 0 300 300" style="enable-background:new 0 0 300 300;" xml:space="preserve">
<style type="text/css">
	.st0{fill:#FF2D20;}
</style>
<path class="st0" d="M295.5,67.9c0.1,0.4,0.2,0.8,0.2,1.2v64.4c0,1.7-0.9,3.2-2.4,4.1l-54.1,31.1v61.7c0,1.7-0.9,3.2-2.3,4.1
	l-112.8,64.9c-0.3,0.1-0.5,0.2-0.8,0.3c-0.1,0-0.2,0.1-0.3,0.1c-0.8,0.2-1.6,0.2-2.4,0c-0.1,0-0.2-0.1-0.4-0.2
	c-0.3-0.1-0.5-0.2-0.8-0.3L6.6,234.4c-1.5-0.8-2.4-2.4-2.4-4.1V37.2c0-0.4,0.1-0.8,0.2-1.2c0-0.1,0.1-0.3,0.2-0.4
	c0.1-0.2,0.2-0.5,0.3-0.7c0.1-0.2,0.2-0.3,0.3-0.4c0.1-0.2,0.3-0.4,0.4-0.5c0.1-0.1,0.3-0.2,0.5-0.4c0.2-0.1,0.3-0.3,0.5-0.4l0,0
	L63.1,0.6c1.4-0.8,3.2-0.8,4.7,0l56.4,32.5h0c0.2,0.1,0.4,0.3,0.5,0.4c0.2,0.1,0.3,0.2,0.5,0.4c0.2,0.2,0.3,0.4,0.4,0.6
	c0.1,0.1,0.2,0.3,0.3,0.4c0.1,0.2,0.2,0.5,0.3,0.7c0,0.1,0.1,0.3,0.2,0.4c0.1,0.4,0.2,0.8,0.2,1.2v120.7l47-27.1V69.1
	c0-0.4,0.1-0.8,0.2-1.2c0-0.1,0.1-0.3,0.2-0.4c0.1-0.2,0.2-0.5,0.3-0.7c0.1-0.2,0.2-0.3,0.3-0.4c0.1-0.2,0.3-0.4,0.4-0.5
	c0.1-0.1,0.3-0.2,0.5-0.4c0.2-0.1,0.3-0.3,0.5-0.4l0,0l56.4-32.5c1.4-0.8,3.2-0.8,4.7,0L293.4,65c0.2,0.1,0.4,0.3,0.5,0.4
	c0.1,0.1,0.3,0.2,0.4,0.4c0.2,0.2,0.3,0.4,0.4,0.6c0.1,0.1,0.2,0.3,0.3,0.4c0.1,0.2,0.2,0.5,0.3,0.7
	C295.4,67.6,295.5,67.7,295.5,67.9L295.5,67.9z M286.3,130.8V77.2l-19.7,11.4l-27.3,15.7v53.5L286.3,130.8L286.3,130.8z
	 M229.9,227.6v-53.6l-26.8,15.3l-76.6,43.7v54.1L229.9,227.6z M13.7,45.3v182.3l103.4,59.5v-54.1l-54-30.6l0,0l0,0
	c-0.2-0.1-0.3-0.3-0.5-0.4c-0.1-0.1-0.3-0.2-0.4-0.3l0,0c-0.2-0.1-0.3-0.3-0.4-0.5c-0.1-0.2-0.3-0.3-0.4-0.5v0
	c-0.1-0.2-0.2-0.4-0.2-0.6c-0.1-0.2-0.2-0.3-0.2-0.5l0,0c-0.1-0.2-0.1-0.5-0.1-0.7c0-0.2-0.1-0.4-0.1-0.5V72.4L33.4,56.7L13.7,45.3
	L13.7,45.3z M65.4,10.1l-47,27l47,27l47-27.1L65.4,10.1L65.4,10.1z M89.8,178.9l27.3-15.7V45.3L97.4,56.7L70.1,72.4v117.9
	L89.8,178.9z M234.6,42l-47,27l47,27l47-27.1L234.6,42z M229.9,104.3l-27.3-15.7l-19.7-11.4v53.5l27.3,15.7l19.7,11.4V104.3z
	 M121.8,225l68.9-39.3l34.4-19.7l-47-27l-54.1,31.1l-49.3,28.4L121.8,225z"/>
</svg>
