<?xml version="1.0" encoding="utf-8"?>
<!-- Generator: Adobe Illustrator 27.0.0, SVG Export Plug-In . SVG Version: 6.00 Build 0)  -->
<svg version="1.1" id="Layer_1" xmlns="http://www.w3.org/2000/svg" xmlns:xlink="http://www.w3.org/1999/xlink" x="0px" y="0px"
	 viewBox="0 0 300 300" style="enable-background:new 0 0 300 300;" xml:space="preserve">
<style type="text/css">
	.st0{fill:#4D4E53;}
	.st1{fill:url(#XMLID_00000159453785481905226770000000701026703495593658_);}
	.st2{fill:url(#XMLID_00000078735296830001737810000014396900320321578145_);}
	.st3{fill:url(#XMLID_00000119078222369035179590000014120883075308199335_);}
	.st4{fill:url(#XMLID_00000101785317885535417010000005922695734066167968_);}
	.st5{fill:url(#XMLID_00000173153497390794709120000004438651494958109322_);}
	.st6{clip-path:url(#SVGID_00000140716189389013286840000003697365173245723569_);fill:#FFFFFF;}
	.st7{clip-path:url(#SVGID_00000075850541346169436290000003254287202159043718_);fill:#F1F2F2;}
	.st8{clip-path:url(#SVGID_00000138547092771038364770000016206550330268074633_);fill:#FFFFFF;}
	.st9{clip-path:url(#SVGID_00000078751691346342218090000013464318332498576011_);fill:#F1F2F2;}
	.st10{clip-path:url(#SVGID_00000171707669133578425150000012419125517013435029_);fill:#FFFFFF;}
</style>
<g>
	<g>
		<polygon id="XMLID_3_" class="st0" points="57.4,294.4 55,299.1 53.9,299.1 51.6,294.4 51.6,299.8 49.6,299.8 49.6,291.2 
			52.2,291.2 54.5,295.9 56.7,291.2 59.4,291.2 59.4,299.8 57.4,299.8 		"/>
		<path id="XMLID_6_" class="st0" d="M68.5,298.6c-0.8,0.8-2,1.3-3.2,1.3c-1.3,0-2.3-0.5-3.2-1.3c-0.8-0.8-1.3-1.9-1.3-3.2
			c0-1.3,0.5-2.3,1.3-3.2c0.8-0.8,2-1.3,3.2-1.3c1.3,0,2.3,0.5,3.2,1.3c0.8,0.8,1.3,1.9,1.3,3.2C69.8,296.7,69.4,297.8,68.5,298.6z
			 M67.8,295.4c0-0.8-0.2-1.4-0.7-2c-0.5-0.5-1.1-0.8-1.9-0.8c-0.7,0-1.3,0.2-1.9,0.8c-0.5,0.5-0.7,1.2-0.7,2s0.2,1.4,0.7,2
			c0.5,0.5,1.1,0.8,1.9,0.8c0.7,0,1.3-0.2,1.9-0.8C67.5,296.8,67.8,296.2,67.8,295.4z"/>
		<polygon id="XMLID_7_" class="st0" points="70.3,299.8 70.3,298.5 74.9,292.8 70.4,292.8 70.4,291.2 77.5,291.2 77.5,292.5 
			73,298.2 77.6,298.2 77.6,299.8 		"/>
		<rect id="XMLID_8_" x="79" y="291.2" class="st0" width="1.9" height="8.7"/>
		<polygon id="XMLID_9_" class="st0" points="82.7,299.8 82.7,291.2 84.7,291.2 84.7,298.1 88.3,298.1 88.3,299.8 		"/>
		<polygon id="XMLID_10_" class="st0" points="89.3,299.8 89.3,291.2 91.2,291.2 91.2,298.1 94.9,298.1 94.9,299.8 		"/>
		<path id="XMLID_13_" class="st0" d="M102.6,299.8l-0.8-1.9h-3.6l-0.8,1.9h-2l3.8-8.7h1.9l3.8,8.7H102.6z M100,293.8l-1.1,2.5h2.2
			L100,293.8z"/>
		<path id="XMLID_16_" class="st0" d="M115.9,292.3c0.8,0.8,1.3,1.9,1.3,3.2c0,1.3-0.4,2.5-1.2,3.2c-0.8,0.8-2,1.2-3.7,1.2h-2.9
			v-8.7h3.1C113.8,291.1,115,291.5,115.9,292.3z M114.4,297.5c0.5-0.5,0.7-1.1,0.7-2c0-0.8-0.2-1.5-0.7-2c-0.5-0.5-1.2-0.7-2.2-0.7
			h-1.1v5.3h1.3C113.3,298.1,114,297.8,114.4,297.5z"/>
		<polygon id="XMLID_17_" class="st0" points="124.7,291.1 124.7,292.9 120.5,292.9 120.5,294.6 124.3,294.6 124.3,296.3 
			120.5,296.3 120.5,298.1 124.9,298.1 124.9,299.8 118.4,299.8 118.4,291.1 		"/>
		<polygon id="XMLID_18_" class="st0" points="129.7,296.6 131.9,291.1 134,291.1 130.5,299.8 128.9,299.8 125.4,291.1 127.4,291.1 
					"/>
		<polygon id="XMLID_19_" class="st0" points="141.1,291.1 141.1,292.9 136.7,292.9 136.7,294.6 140.6,294.6 140.6,296.3 
			136.7,296.3 136.7,298.1 141.2,298.1 141.2,299.8 134.8,299.8 134.8,291.1 		"/>
		<polygon id="XMLID_20_" class="st0" points="142.6,299.8 142.6,291.1 144.5,291.1 144.5,298.1 148.3,298.1 148.3,299.8 		"/>
		<path id="XMLID_23_" class="st0" d="M156.4,298.6c-0.8,0.8-2,1.3-3.2,1.3s-2.3-0.5-3.2-1.3c-0.8-0.8-1.3-1.9-1.3-3.2
			c0-1.3,0.5-2.3,1.3-3.2c0.8-0.8,2-1.3,3.2-1.3c1.3,0,2.3,0.5,3.2,1.3c0.8,0.8,1.3,1.9,1.3,3.2
			C157.7,296.6,157.2,297.8,156.4,298.6z M155.7,295.4c0-0.8-0.2-1.4-0.7-2c-0.5-0.5-1.1-0.8-1.9-0.8c-0.7,0-1.3,0.2-1.9,0.8
			c-0.5,0.5-0.7,1.2-0.7,2c0,0.8,0.2,1.4,0.7,2c0.5,0.5,1.1,0.8,1.9,0.8c0.7,0,1.3-0.2,1.9-0.8C155.4,296.9,155.7,296.2,155.7,295.4
			z"/>
		<path id="XMLID_26_" class="st0" d="M164.9,292c0.6,0.5,0.9,1.3,0.9,2.3c0,1.1-0.4,1.9-0.9,2.3c-0.7,0.5-1.6,0.7-2.8,0.7h-1.2v2.5
			H159v-8.7h3.1C163.3,291.1,164.3,291.4,164.9,292z M163.6,295.4c0.2-0.2,0.4-0.7,0.4-1.1c0-0.4-0.2-0.8-0.5-1.1
			c-0.4-0.2-0.8-0.4-1.4-0.4H161v2.9h1.3C162.9,295.7,163.3,295.6,163.6,295.4z"/>
		<polygon id="XMLID_27_" class="st0" points="173.3,291.1 173.3,292.9 169,292.9 169,294.6 172.9,294.6 172.9,296.3 169,296.3 
			169,298.1 173.4,298.1 173.4,299.8 167,299.8 167,291.1 		"/>
		<path id="XMLID_30_" class="st0" d="M182,294.1c0,1.4-0.5,2.3-1.7,2.7l2.2,3.1h-2.3l-1.9-2.8h-1.3v2.8h-2v-8.8h3.3
			c1.4,0,2.3,0.2,2.9,0.7C181.6,292.3,182,293,182,294.1z M179.6,295c0.2-0.2,0.4-0.5,0.4-1.1c0-0.5-0.2-0.8-0.4-1
			c-0.2-0.2-0.7-0.2-1.3-0.2h-1.4v2.6h1.4C178.9,295.4,179.3,295.3,179.6,295z"/>
		<polygon id="XMLID_31_" class="st0" points="192.8,291.1 194.9,291.1 194.9,299.9 192.8,299.9 188.8,294.5 188.8,299.9 
			186.8,299.9 186.8,291.1 188.6,291.1 192.8,296.8 		"/>
		<polygon id="XMLID_32_" class="st0" points="202.9,291.1 202.9,293 198.6,293 198.6,294.7 202.6,294.7 202.6,296.4 198.6,296.4 
			198.6,298.1 203,298.1 203,299.9 196.6,299.9 196.6,291.1 		"/>
		<polygon id="XMLID_33_" class="st0" points="208.1,292.9 208.1,299.9 206.2,299.9 206.2,292.9 203.7,292.9 203.7,291.1 
			210.6,291.1 210.6,292.9 		"/>
		<polygon id="XMLID_34_" class="st0" points="214.8,296.2 216.4,291.1 218.5,291.1 220,296.2 221.6,291.1 223.7,291.1 220.7,299.9 
			219.3,299.9 217.4,293.9 215.5,299.9 214.1,299.9 211,291.1 213.1,291.1 		"/>
		<path id="XMLID_37_" class="st0" d="M231.5,298.7c-0.8,0.8-2,1.3-3.2,1.3c-1.3,0-2.3-0.5-3.2-1.3c-0.8-0.8-1.3-1.9-1.3-3.2
			c0-1.3,0.5-2.3,1.3-3.2c0.8-0.8,2-1.3,3.2-1.3c1.3,0,2.3,0.5,3.2,1.3c0.9,0.8,1.3,1.9,1.3,3.2S232.4,297.8,231.5,298.7z
			 M230.8,295.5c0-0.8-0.2-1.4-0.7-2c-0.5-0.5-1.1-0.8-1.9-0.8c-0.7,0-1.3,0.2-1.9,0.8c-0.5,0.5-0.7,1.2-0.7,2s0.2,1.4,0.7,2
			c0.5,0.5,1.1,0.8,1.9,0.8c0.7,0,1.3-0.2,1.9-0.8C230.6,296.9,230.8,296.2,230.8,295.5z"/>
		<path id="XMLID_40_" class="st0" d="M241.2,294.1c0,1.4-0.5,2.3-1.7,2.7l2.2,3.1h-2.3l-1.9-2.8h-1.3v2.8h-1.9v-8.8h3.3
			c1.3,0,2.3,0.2,2.9,0.7C240.9,292.4,241.2,293,241.2,294.1z M238.8,295.1c0.2-0.2,0.4-0.5,0.4-1.1c0-0.5-0.2-0.8-0.4-1
			c-0.2-0.2-0.7-0.2-1.3-0.2H236v2.6h1.4C238.1,295.5,238.6,295.3,238.8,295.1z"/>
		<path id="XMLID_41_" class="st0" d="M242.8,291.1h1.9v3.6l3.3-3.6h2.3l-3.4,3.8c0.4,0.4,0.8,1.2,1.7,2.3c0.8,1.1,1.4,2,1.7,2.5
			H248l-2.6-3.4l-0.8,1v2.5h-1.9L242.8,291.1L242.8,291.1z"/>
	</g>
	<g>
		
			<linearGradient id="XMLID_00000093873385904095355560000003202505034687458739_" gradientUnits="userSpaceOnUse" x1="613.8297" y1="-19.9441" x2="619.9116" y2="-19.9441" gradientTransform="matrix(0 -38.336 -38.336 0 -614.5759 23764.9316)">
			<stop  offset="0" style="stop-color:#1C75BC"/>
			<stop  offset="1" style="stop-color:#27AAE1"/>
		</linearGradient>
		<polygon id="XMLID_42_" style="fill:url(#XMLID_00000093873385904095355560000003202505034687458739_);" points="216.3,0 216.3,0 
			215.8,0 215.8,0 215.8,0 150,26.4 84.2,0 84.2,0 84.2,0 83.7,0 83.7,0 17.9,26.4 17.9,233.2 84.2,208 150,233.2 150,233.2 
			150,233.2 150,233.2 150,233.2 215.8,208 282.1,233.2 282.1,26.4 		"/>
		
			<linearGradient id="XMLID_00000003809892626158928230000016119417918543992466_" gradientUnits="userSpaceOnUse" x1="613.8297" y1="-17.787" x2="619.9116" y2="-17.787" gradientTransform="matrix(0 -38.336 -38.336 0 -630.8518 23764.9316)">
			<stop  offset="0" style="stop-color:#0469A7"/>
			<stop  offset="1" style="stop-color:#1599C8"/>
		</linearGradient>
		<polygon id="XMLID_43_" style="fill:url(#XMLID_00000003809892626158928230000016119417918543992466_);" points="17.9,26.4 
			17.9,233.2 84.2,208 84.2,0 		"/>
		
			<linearGradient id="XMLID_00000052075218875418217250000007951363904746130863_" gradientUnits="userSpaceOnUse" x1="613.8297" y1="-19.2209" x2="619.9116" y2="-19.2209" gradientTransform="matrix(0 -38.336 -38.336 0 -620.0012 23764.9316)">
			<stop  offset="0" style="stop-color:#1C75BC"/>
			<stop  offset="1" style="stop-color:#27AAE1"/>
		</linearGradient>
		<polygon id="XMLID_44_" style="fill:url(#XMLID_00000052075218875418217250000007951363904746130863_);" points="150,26.4 
			150,233.2 83.7,208 83.7,0 		"/>
		
			<linearGradient id="XMLID_00000170277115190285735910000017506220835813117848_" gradientUnits="userSpaceOnUse" x1="613.8297" y1="-20.6673" x2="619.9116" y2="-20.6673" gradientTransform="matrix(0 -38.336 -38.336 0 -609.1501 23764.9316)">
			<stop  offset="0" style="stop-color:#0469A7"/>
			<stop  offset="1" style="stop-color:#1599C8"/>
		</linearGradient>
		<polygon id="XMLID_45_" style="fill:url(#XMLID_00000170277115190285735910000017506220835813117848_);" points="150,26.4 
			150,233.2 216.3,208 216.3,0 		"/>
		
			<linearGradient id="XMLID_00000134961181505139313970000008570906770627179694_" gradientUnits="userSpaceOnUse" x1="613.8297" y1="-22.1011" x2="619.9116" y2="-22.1011" gradientTransform="matrix(0 -38.336 -38.336 0 -598.2991 23764.9316)">
			<stop  offset="0" style="stop-color:#1C75BC"/>
			<stop  offset="1" style="stop-color:#27AAE1"/>
		</linearGradient>
		<polygon id="XMLID_46_" style="fill:url(#XMLID_00000134961181505139313970000008570906770627179694_);" points="282.1,26.4 
			282.1,233.2 215.8,208 215.8,0 		"/>
		<g id="XMLID_49_">
			<g>
				<g>
					<g>
						<defs>
							<path id="SVGID_1_" d="M244.8,121c-2.3-6.7-1.8-18.7-2.6-20.5c-7.8-10.6-36-12.7-48.7-26.4c2.3-6.7-2.3-12.7-6.7-17.1
								c-6.7-5.2-16.6-2.6-24.1-0.8c-8.5-1.8-16.3-4.7-24.4-7.3c-18.4-2.1-36.2,10.9-36.2,10.9c-13.2,8-33.7,25.4-43.5,35.8
								c2.3,0.2,5.2-1.3,7.8-1.8L85,89.1C77.2,95.6,60.7,107,55.7,116c5.7-2.1,18.4-8.8,24.4-9.1c-5.5,4.7-16.6,13.5-19.9,19.4
								l0.2,1c4.7-2.3,16.1-9.1,20.7-9.6c-5.2,5.5-15,16.1-17.1,23c4.4-3.1,16.1-8.8,21-10.9c-1,2.6-3.6,4.7-5.5,7.5
								c-2.3,3.6-7.8,8-7.8,13c4.1-3.6,8.8-7.3,14-9.6c-2.3,4.9-6.5,8.5-7.5,14c3.4-3.1,9.6-4.7,13.5-6.2l-0.2,0.2
								c-0.2,0.2-5.2,3.6-8,7.5c2.6,0,0.8-0.8,4.4,0.2h2.1c-1,0.8-2.1,1-3.1,1.8c-1.8,1-3.6,2.1-5.5,3.1
								c7.8,9.8,17.6,17.9,28.5,23.3c14.5,7.3,30.3,9.6,46.1,7.5c-0.2-1-0.2-1.8-0.8-2.6l0,0c-0.2-1-0.8-2.3-1-3.4v-0.2
								c5.5-10.1,2.6-27.2,16.3-34.2c9.1-4.7,10.6-7.5,21-5.5c5.7,1,18.4,5.5,24.4,4.1c5.5-3.1,8-4.4,13-8c6.2,1,7.8,0.2,10.1-2.6
								c-2.1,2.6,3.6-10.9,6.5-16.1L244.8,121z"/>
						</defs>
						<clipPath id="SVGID_00000142168270743582024040000015597325150395758492_">
							<use xlink:href="#SVGID_1_"  style="overflow:visible;"/>
						</clipPath>
						
							<ellipse id="XMLID_50_" style="clip-path:url(#SVGID_00000142168270743582024040000015597325150395758492_);fill:#FFFFFF;" cx="149.8" cy="121.7" rx="122.5" ry="83.2"/>
					</g>
				</g>
			</g>
		</g>
		<g id="XMLID_52_">
			<g>
				<g>
					<g>
						<defs>
							<path id="SVGID_00000147899281244018626780000011495780585223090103_" d="M244.8,121c-2.3-6.7-1.8-18.7-2.6-20.5
								c-7.8-10.6-36-12.7-48.7-26.4c2.3-6.7-2.3-12.7-6.7-17.1c-6.7-5.2-16.6-2.6-24.1-0.8c-8.5-1.8-16.3-4.7-24.4-7.3
								c-18.4-2.1-36.2,10.9-36.2,10.9c-13.2,8-33.7,25.4-43.5,35.8c2.3,0.2,5.2-1.3,7.8-1.8L85,89.1C77.2,95.6,60.7,107,55.7,116
								c5.7-2.1,18.4-8.8,24.4-9.1c-5.5,4.7-16.6,13.5-19.9,19.4l0.2,1c4.7-2.3,16.1-9.1,20.7-9.6c-5.2,5.5-15,16.1-17.1,23
								c4.4-3.1,16.1-8.8,21-10.9c-1,2.6-3.6,4.7-5.5,7.5c-2.3,3.6-7.8,8-7.8,13c4.1-3.6,8.8-7.3,14-9.6c-2.3,4.9-6.5,8.5-7.5,14
								c3.4-3.1,9.6-4.7,13.5-6.2l-0.2,0.2c-0.2,0.2-5.2,3.6-8,7.5c2.6,0,0.8-0.8,4.4,0.2h2.1c-1,0.8-2.1,1-3.1,1.8
								c-1.8,1-3.6,2.1-5.5,3.1c7.8,9.8,17.6,17.9,28.5,23.3c14.5,7.3,30.3,9.6,46.1,7.5c-0.2-1-0.2-1.8-0.8-2.6l0,0
								c-0.2-1-0.8-2.3-1-3.4v-0.2c5.5-10.1,2.6-27.2,16.3-34.2c9.1-4.7,10.6-7.5,21-5.5c5.7,1,18.4,5.5,24.4,4.1
								c5.5-3.1,8-4.4,13-8c6.2,1,7.8,0.2,10.1-2.6c-2.1,2.6,3.6-10.9,6.5-16.1L244.8,121z"/>
						</defs>
						<clipPath id="SVGID_00000127039372970760758150000002294072560623567009_">
							<use xlink:href="#SVGID_00000147899281244018626780000011495780585223090103_"  style="overflow:visible;"/>
						</clipPath>
						
							<polygon id="XMLID_53_" style="clip-path:url(#SVGID_00000127039372970760758150000002294072560623567009_);fill:#F1F2F2;" points="
							19.4,30.5 19.4,238.9 85.3,213.5 85.3,3.9 						"/>
					</g>
				</g>
			</g>
		</g>
		<g id="XMLID_55_">
			<g>
				<g>
					<g>
						<defs>
							<path id="SVGID_00000018917201564720134890000015682056347154056846_" d="M244.8,121c-2.3-6.7-1.8-18.7-2.6-20.5
								c-7.8-10.6-36-12.7-48.7-26.4c2.3-6.7-2.3-12.7-6.7-17.1c-6.7-5.2-16.6-2.6-24.1-0.8c-8.5-1.8-16.3-4.7-24.4-7.3
								c-18.4-2.1-36.2,10.9-36.2,10.9c-13.2,8-33.7,25.4-43.5,35.8c2.3,0.2,5.2-1.3,7.8-1.8L85,89.1C77.2,95.6,60.7,107,55.7,116
								c5.7-2.1,18.4-8.8,24.4-9.1c-5.5,4.7-16.6,13.5-19.9,19.4l0.2,1c4.7-2.3,16.1-9.1,20.7-9.6c-5.2,5.5-15,16.1-17.1,23
								c4.4-3.1,16.1-8.8,21-10.9c-1,2.6-3.6,4.7-5.5,7.5c-2.3,3.6-7.8,8-7.8,13c4.1-3.6,8.8-7.3,14-9.6c-2.3,4.9-6.5,8.5-7.5,14
								c3.4-3.1,9.6-4.7,13.5-6.2l-0.2,0.2c-0.2,0.2-5.2,3.6-8,7.5c2.6,0,0.8-0.8,4.4,0.2h2.1c-1,0.8-2.1,1-3.1,1.8
								c-1.8,1-3.6,2.1-5.5,3.1c7.8,9.8,17.6,17.9,28.5,23.3c14.5,7.3,30.3,9.6,46.1,7.5c-0.2-1-0.2-1.8-0.8-2.6l0,0
								c-0.2-1-0.8-2.3-1-3.4v-0.2c5.5-10.1,2.6-27.2,16.3-34.2c9.1-4.7,10.6-7.5,21-5.5c5.7,1,18.4,5.5,24.4,4.1
								c5.5-3.1,8-4.4,13-8c6.2,1,7.8,0.2,10.1-2.6c-2.1,2.6,3.6-10.9,6.5-16.1L244.8,121z"/>
						</defs>
						<clipPath id="SVGID_00000160181747457478135060000011796819235919571855_">
							<use xlink:href="#SVGID_00000018917201564720134890000015682056347154056846_"  style="overflow:visible;"/>
						</clipPath>
						
							<polygon id="XMLID_56_" style="clip-path:url(#SVGID_00000160181747457478135060000011796819235919571855_);fill:#FFFFFF;" points="
							150.8,30.5 150.8,238.9 84.7,213.5 84.7,3.9 						"/>
					</g>
				</g>
			</g>
		</g>
		<g id="XMLID_58_">
			<g>
				<g>
					<g>
						<defs>
							<path id="SVGID_00000179647479362900868250000014037296837177126542_" d="M244.8,121c-2.3-6.7-1.8-18.7-2.6-20.5
								c-7.8-10.6-36-12.7-48.7-26.4c2.3-6.7-2.3-12.7-6.7-17.1c-6.7-5.2-16.6-2.6-24.1-0.8c-8.5-1.8-16.3-4.7-24.4-7.3
								c-18.4-2.1-36.2,10.9-36.2,10.9c-13.2,8-33.7,25.4-43.5,35.8c2.3,0.2,5.2-1.3,7.8-1.8L85,89.1C77.2,95.6,60.7,107,55.7,116
								c5.7-2.1,18.4-8.8,24.4-9.1c-5.5,4.7-16.6,13.5-19.9,19.4l0.2,1c4.7-2.3,16.1-9.1,20.7-9.6c-5.2,5.5-15,16.1-17.1,23
								c4.4-3.1,16.1-8.8,21-10.9c-1,2.6-3.6,4.7-5.5,7.5c-2.3,3.6-7.8,8-7.8,13c4.1-3.6,8.8-7.3,14-9.6c-2.3,4.9-6.5,8.5-7.5,14
								c3.4-3.1,9.6-4.7,13.5-6.2l-0.2,0.2c-0.2,0.2-5.2,3.6-8,7.5c2.6,0,0.8-0.8,4.4,0.2h2.1c-1,0.8-2.1,1-3.1,1.8
								c-1.8,1-3.6,2.1-5.5,3.1c7.8,9.8,17.6,17.9,28.5,23.3c14.5,7.3,30.3,9.6,46.1,7.5c-0.2-1-0.2-1.8-0.8-2.6l0,0
								c-0.2-1-0.8-2.3-1-3.4v-0.2c5.5-10.1,2.6-27.2,16.3-34.2c9.1-4.7,10.6-7.5,21-5.5c5.7,1,18.4,5.5,24.4,4.1
								c5.5-3.1,8-4.4,13-8c6.2,1,7.8,0.2,10.1-2.6c-2.1,2.6,3.6-10.9,6.5-16.1L244.8,121z"/>
						</defs>
						<clipPath id="SVGID_00000060740592099410377060000001899153980936241584_">
							<use xlink:href="#SVGID_00000179647479362900868250000014037296837177126542_"  style="overflow:visible;"/>
						</clipPath>
						
							<polygon id="XMLID_59_" style="clip-path:url(#SVGID_00000060740592099410377060000001899153980936241584_);fill:#F1F2F2;" points="
							150.2,30.5 150.2,238.9 215.8,213.5 215.8,3.9 						"/>
					</g>
				</g>
			</g>
		</g>
		<g id="XMLID_61_">
			<g>
				<g>
					<g>
						<defs>
							<path id="SVGID_00000059281585515243142970000016104357253950095020_" d="M244.8,121c-2.3-6.7-1.8-18.7-2.6-20.5
								c-7.8-10.6-36-12.7-48.7-26.4c2.3-6.7-2.3-12.7-6.7-17.1c-6.7-5.2-16.6-2.6-24.1-0.8c-8.5-1.8-16.3-4.7-24.4-7.3
								c-18.4-2.1-36.2,10.9-36.2,10.9c-13.2,8-33.7,25.4-43.5,35.8c2.3,0.2,5.2-1.3,7.8-1.8L85,89.1C77.2,95.6,60.7,107,55.7,116
								c5.7-2.1,18.4-8.8,24.4-9.1c-5.5,4.7-16.6,13.5-19.9,19.4l0.2,1c4.7-2.3,16.1-9.1,20.7-9.6c-5.2,5.5-15,16.1-17.1,23
								c4.4-3.1,16.1-8.8,21-10.9c-1,2.6-3.6,4.7-5.5,7.5c-2.3,3.6-7.8,8-7.8,13c4.1-3.6,8.8-7.3,14-9.6c-2.3,4.9-6.5,8.5-7.5,14
								c3.4-3.1,9.6-4.7,13.5-6.2l-0.2,0.2c-0.2,0.2-5.2,3.6-8,7.5c2.6,0,0.8-0.8,4.4,0.2h2.1c-1,0.8-2.1,1-3.1,1.8
								c-1.8,1-3.6,2.1-5.5,3.1c7.8,9.8,17.6,17.9,28.5,23.3c14.5,7.3,30.3,9.6,46.1,7.5c-0.2-1-0.2-1.8-0.8-2.6l0,0
								c-0.2-1-0.8-2.3-1-3.4v-0.2c5.5-10.1,2.6-27.2,16.3-34.2c9.1-4.7,10.6-7.5,21-5.5c5.7,1,18.4,5.5,24.4,4.1
								c5.5-3.1,8-4.4,13-8c6.2,1,7.8,0.2,10.1-2.6c-2.1,2.6,3.6-10.9,6.5-16.1L244.8,121z"/>
						</defs>
						<clipPath id="SVGID_00000052082007701115836620000015100984561016609462_">
							<use xlink:href="#SVGID_00000059281585515243142970000016104357253950095020_"  style="overflow:visible;"/>
						</clipPath>
						
							<polygon id="XMLID_62_" style="clip-path:url(#SVGID_00000052082007701115836620000015100984561016609462_);fill:#FFFFFF;" points="
							281.1,30.5 281.1,238.9 215.5,213.5 215.5,3.9 						"/>
					</g>
				</g>
			</g>
		</g>
	</g>
	<g>
		<polygon id="XMLID_47_" class="st0" points="119.3,256.4 107.6,280 101.9,280 90.4,256.4 90.4,283.4 80.7,283.4 80.7,240.5 
			93.7,240.5 104.8,264.2 115.9,240.5 128.9,240.5 128.9,283.4 119.3,283.4 		"/>
		<path id="XMLID_65_" class="st0" d="M167.9,246.2c4,3.8,6.1,9,6.1,15.6c0,6.7-2,11.9-6,15.9c-4,3.9-10.1,5.9-18.3,5.9h-14.6v-43
			h15.2C157.9,240.5,163.7,242.3,167.9,246.2z M160.9,271.7c2.4-2.2,3.5-5.4,3.5-9.7s-1.1-7.5-3.5-9.8c-2.4-2.2-6-3.4-10.9-3.4h-5.4
			V275h6.1C155.1,275.1,158.5,273.9,160.9,271.7z"/>
		<polygon id="XMLID_66_" class="st0" points="209.7,240.5 219.3,240.5 219.3,283.4 209.7,283.4 189.2,256.6 189.2,283.4 
			179.6,283.4 179.6,240.5 188.6,240.5 209.7,268.2 		"/>
	</g>
</g>
</svg>
