<?xml version="1.0" encoding="utf-8"?>
<!-- Generator: Adobe Illustrator 27.0.0, SVG Export Plug-In . SVG Version: 6.00 Build 0)  -->
<svg version="1.1" id="Layer_1" xmlns="http://www.w3.org/2000/svg" xmlns:xlink="http://www.w3.org/1999/xlink" x="0px" y="0px"
	 viewBox="0 0 500 500" style="enable-background:new 0 0 500 500;" xml:space="preserve">
<style type="text/css">
	.st0{fill:#4D4E53;}
	.st1{fill:url(#XMLID_00000019653129945078768320000013000778217796741007_);}
	.st2{fill:url(#XMLID_00000041274721736817075230000018370065913164681354_);}
	.st3{fill:url(#XMLID_00000026144614075191179890000015735939197053888431_);}
	.st4{fill:url(#XMLID_00000168080833323930722280000012798595169241914800_);}
	.st5{fill:url(#XMLID_00000061447169770605117550000009696044827276908209_);}
	.st6{clip-path:url(#SVGID_00000087386668177347246880000013875470040974411911_);fill:#FFFFFF;}
	.st7{clip-path:url(#SVGID_00000036936119002728265510000005653535276458925754_);fill:#F1F2F2;}
	.st8{clip-path:url(#SVGID_00000011716265554992383260000016486972672307679115_);fill:#FFFFFF;}
	.st9{clip-path:url(#SVGID_00000082340766623240949850000016155625843931506570_);fill:#F1F2F2;}
	.st10{clip-path:url(#SVGID_00000112593686950418872810000004355621451487105684_);fill:#FFFFFF;}
</style>
<g>
	<polygon id="XMLID_3_" class="st0" points="95.6,490.6 91.7,498.5 89.8,498.5 86,490.6 86,499.6 82.7,499.6 82.7,485.3 87,485.3 
		90.8,493.2 94.5,485.3 99,485.3 99,499.6 95.6,499.6 	"/>
	<path id="XMLID_6_" class="st0" d="M114.1,497.7c-1.4,1.4-3.3,2.2-5.4,2.2c-2.1,0-3.9-0.8-5.4-2.2c-1.4-1.4-2.2-3.2-2.2-5.4
		c0-2.1,0.8-3.9,2.2-5.4c1.4-1.4,3.3-2.2,5.4-2.2c2.1,0,3.9,0.8,5.4,2.2c1.4,1.4,2.2,3.2,2.2,5.4S115.6,496.3,114.1,497.7z
		 M113,492.4c0-1.3-0.4-2.4-1.2-3.3c-0.8-0.8-1.8-1.3-3.1-1.3c-1.2,0-2.2,0.4-3.1,1.3c-0.8,0.8-1.2,2-1.2,3.3c0,1.3,0.4,2.4,1.2,3.3
		c0.8,0.8,1.8,1.3,3.1,1.3c1.2,0,2.2-0.4,3.1-1.3C112.5,494.7,113,493.6,113,492.4z"/>
	<polygon id="XMLID_7_" class="st0" points="117.2,499.6 117.2,497.5 124.8,488 117.4,488 117.4,485.3 129.2,485.3 129.2,487.5 
		121.6,497 129.3,497 129.3,499.6 	"/>
	<rect id="XMLID_8_" x="131.6" y="485.3" class="st0" width="3.2" height="14.5"/>
	<polygon id="XMLID_9_" class="st0" points="137.8,499.6 137.8,485.3 141.1,485.3 141.1,496.8 147.2,496.8 147.2,499.6 	"/>
	<polygon id="XMLID_10_" class="st0" points="148.8,499.6 148.8,485.3 152,485.3 152,496.8 158.1,496.8 158.1,499.6 	"/>
	<path id="XMLID_13_" class="st0" d="M171,499.6l-1.3-3.1h-6l-1.3,3.1h-3.4l6.3-14.5h3.1l6.3,14.5H171z M166.6,489.6l-1.8,4.2h3.6
		L166.6,489.6z"/>
	<path id="XMLID_16_" class="st0" d="M193.2,487.1c1.4,1.3,2.1,3.1,2.1,5.3s-0.7,4.1-2,5.4c-1.3,1.3-3.4,2-6.1,2h-4.9v-14.5h5.2
		C189.7,485.2,191.7,485.9,193.2,487.1z M190.7,495.8c0.8-0.8,1.2-1.8,1.2-3.3c0-1.4-0.4-2.5-1.2-3.3c-0.8-0.8-2-1.1-3.6-1.1h-1.8
		v8.8h2.1C188.9,496.9,190,496.4,190.7,495.8z"/>
	<polygon id="XMLID_17_" class="st0" points="207.9,485.2 207.9,488.1 200.8,488.1 200.8,491 207.2,491 207.2,493.8 200.8,493.8 
		200.8,496.9 208.1,496.9 208.1,499.7 197.4,499.7 197.4,485.2 	"/>
	<polygon id="XMLID_18_" class="st0" points="216.1,494.4 219.9,485.2 223.3,485.2 217.5,499.7 214.8,499.7 209,485.2 212.4,485.2 	
		"/>
	<polygon id="XMLID_19_" class="st0" points="235.1,485.2 235.1,488.1 227.8,488.1 227.8,491 234.3,491 234.3,493.8 227.8,493.8 
		227.8,496.9 235.3,496.9 235.3,499.7 224.6,499.7 224.6,485.2 	"/>
	<polygon id="XMLID_20_" class="st0" points="237.7,499.7 237.7,485.2 240.9,485.2 240.9,496.9 247.2,496.9 247.2,499.7 	"/>
	<path id="XMLID_23_" class="st0" d="M260.6,497.7c-1.4,1.4-3.3,2.2-5.4,2.2c-2.1,0-3.9-0.8-5.4-2.2c-1.4-1.4-2.2-3.2-2.2-5.4
		c0-2.1,0.8-3.9,2.2-5.4c1.4-1.4,3.3-2.2,5.4-2.2c2.1,0,3.9,0.8,5.4,2.2c1.4,1.4,2.2,3.2,2.2,5.4C262.8,494.4,262,496.3,260.6,497.7
		z M259.5,492.3c0-1.3-0.4-2.4-1.2-3.3c-0.8-0.8-1.8-1.3-3.1-1.3c-1.2,0-2.2,0.4-3.1,1.3c-0.8,0.8-1.2,2-1.2,3.3
		c0,1.3,0.4,2.4,1.2,3.3c0.8,0.8,1.8,1.3,3.1,1.3c1.2,0,2.2-0.4,3.1-1.3C259,494.8,259.5,493.7,259.5,492.3z"/>
	<path id="XMLID_26_" class="st0" d="M274.8,486.6c1,0.8,1.5,2.2,1.5,3.9c0,1.8-0.6,3.1-1.5,3.9c-1.1,0.8-2.6,1.2-4.7,1.2h-2v4.1
		H265v-14.5h5.2C272.2,485.2,273.9,485.6,274.8,486.6z M272.6,492.3c0.4-0.4,0.6-1.1,0.6-1.8s-0.3-1.4-0.8-1.8
		c-0.6-0.3-1.3-0.6-2.3-0.6h-1.8v4.9h2.2C271.5,492.9,272.2,492.7,272.6,492.3z"/>
	<polygon id="XMLID_27_" class="st0" points="288.8,485.2 288.8,488.1 281.6,488.1 281.6,491 288.1,491 288.1,493.8 281.6,493.8 
		281.6,496.9 289,496.9 289,499.7 278.3,499.7 278.3,485.2 	"/>
	<path id="XMLID_30_" class="st0" d="M303.3,490.1c0,2.3-0.8,3.9-2.8,4.5l3.6,5.2h-3.9l-3.2-4.6h-2.2v4.6h-3.3v-14.6h5.5
		c2.3,0,3.9,0.3,4.9,1.1C302.7,487.1,303.3,488.3,303.3,490.1z M299.3,491.7c0.4-0.3,0.6-0.8,0.6-1.8c0-0.8-0.3-1.3-0.7-1.7
		c-0.4-0.3-1.1-0.4-2.2-0.4h-2.4v4.3h2.4C298.2,492.3,298.9,492.2,299.3,491.7z"/>
	<polygon id="XMLID_31_" class="st0" points="321.4,485.2 324.8,485.2 324.8,499.8 321.4,499.8 314.7,490.8 314.7,499.8 
		311.4,499.8 311.4,485.2 314.4,485.2 321.4,494.6 	"/>
	<polygon id="XMLID_32_" class="st0" points="338.2,485.2 338.2,488.3 331,488.3 331,491.2 337.6,491.2 337.6,494 331,494 
		331,496.9 338.4,496.9 338.4,499.8 327.7,499.8 327.7,485.2 	"/>
	<polygon id="XMLID_33_" class="st0" points="346.9,488.2 346.9,499.8 343.7,499.8 343.7,488.2 339.5,488.2 339.5,485.2 351,485.2 
		351,488.2 	"/>
	<polygon id="XMLID_34_" class="st0" points="358,493.6 360.6,485.2 364.1,485.2 366.6,493.6 369.4,485.2 372.9,485.2 367.9,499.8 
		365.5,499.8 362.3,489.8 359.1,499.8 356.8,499.8 351.7,485.2 355.1,485.2 	"/>
	<path id="XMLID_37_" class="st0" d="M385.8,497.8c-1.4,1.4-3.3,2.2-5.4,2.2c-2.1,0-3.9-0.8-5.4-2.2c-1.4-1.4-2.2-3.2-2.2-5.4
		c0-2.1,0.8-3.9,2.2-5.4c1.4-1.4,3.3-2.2,5.4-2.2c2.1,0,3.9,0.8,5.4,2.2s2.2,3.2,2.2,5.4C388,494.6,387.4,496.4,385.8,497.8z
		 M384.7,492.5c0-1.3-0.4-2.4-1.2-3.3c-0.8-0.8-1.8-1.3-3.1-1.3c-1.2,0-2.2,0.4-3.1,1.3c-0.8,0.8-1.2,2-1.2,3.3
		c0,1.3,0.4,2.4,1.2,3.3c0.8,0.8,1.8,1.3,3.1,1.3c1.2,0,2.2-0.4,3.1-1.3C384.4,494.9,384.7,493.7,384.7,492.5z"/>
	<path id="XMLID_40_" class="st0" d="M402,490.1c0,2.3-0.8,3.9-2.8,4.5l3.6,5.2h-3.9l-3.2-4.6h-2.2v4.6h-3.2v-14.6h5.5
		c2.2,0,3.9,0.3,4.9,1.1C401.5,487.3,402,488.4,402,490.1z M398,491.9c0.4-0.3,0.6-0.8,0.6-1.8c0-0.8-0.3-1.3-0.7-1.7
		c-0.4-0.3-1.1-0.4-2.2-0.4h-2.4v4.3h2.4C396.9,492.5,397.7,492.2,398,491.9z"/>
	<path id="XMLID_41_" class="st0" d="M404.6,485.2h3.2v6l5.5-6h3.9l-5.7,6.4c0.6,0.7,1.4,2,2.8,3.9c1.3,1.8,2.3,3.3,2.9,4.2h-3.8
		l-4.3-5.7l-1.4,1.7v4.1h-3.2V485.2L404.6,485.2z"/>
</g>
<g>
	
		<linearGradient id="XMLID_00000063621805494941081140000008171762834602332603_" gradientUnits="userSpaceOnUse" x1="470.2283" y1="190.1002" x2="480.3641" y2="190.1002" gradientTransform="matrix(0 -38.336 38.336 0 -7037.6797 18415.2363)">
		<stop  offset="0" style="stop-color:#1C75BC"/>
		<stop  offset="1" style="stop-color:#27AAE1"/>
	</linearGradient>
	<polygon id="XMLID_42_" style="fill:url(#XMLID_00000063621805494941081140000008171762834602332603_);" points="360.5,0 360.5,0 
		359.7,0 359.7,0 359.7,0 250,44 140.3,0 140.3,0 140.3,0 139.5,0 139.5,0 29.8,44 29.8,388.6 140.3,346.7 250,388.6 250,388.6 
		250,388.6 250,388.6 250,388.6 359.7,346.7 470.2,388.6 470.2,44 	"/>
	
		<linearGradient id="XMLID_00000090286461487858740730000005682640220757901747_" gradientUnits="userSpaceOnUse" x1="470.2283" y1="186.2227" x2="480.3641" y2="186.2227" gradientTransform="matrix(0 -38.336 38.336 0 -7053.9556 18415.2363)">
		<stop  offset="0" style="stop-color:#0469A7"/>
		<stop  offset="1" style="stop-color:#1599C8"/>
	</linearGradient>
	<polygon id="XMLID_43_" style="fill:url(#XMLID_00000090286461487858740730000005682640220757901747_);" points="29.8,44 
		29.8,388.6 140.3,346.7 140.3,0 	"/>
	
		<linearGradient id="XMLID_00000045616011684436968510000007428649647056596897_" gradientUnits="userSpaceOnUse" x1="470.2283" y1="188.8002" x2="480.3641" y2="188.8002" gradientTransform="matrix(0 -38.336 38.336 0 -7043.105 18415.2363)">
		<stop  offset="0" style="stop-color:#1C75BC"/>
		<stop  offset="1" style="stop-color:#27AAE1"/>
	</linearGradient>
	<polygon id="XMLID_44_" style="fill:url(#XMLID_00000045616011684436968510000007428649647056596897_);" points="250,44 250,388.6 
		139.5,346.7 139.5,0 	"/>
	
		<linearGradient id="XMLID_00000021120195865839495410000011629198026612731043_" gradientUnits="userSpaceOnUse" x1="470.2283" y1="191.4002" x2="480.3641" y2="191.4002" gradientTransform="matrix(0 -38.336 38.336 0 -7032.2539 18415.2363)">
		<stop  offset="0" style="stop-color:#0469A7"/>
		<stop  offset="1" style="stop-color:#1599C8"/>
	</linearGradient>
	<polygon id="XMLID_45_" style="fill:url(#XMLID_00000021120195865839495410000011629198026612731043_);" points="250,44 250,388.6 
		360.5,346.7 360.5,0 	"/>
	
		<linearGradient id="XMLID_00000180326411239457316920000003112064573942308010_" gradientUnits="userSpaceOnUse" x1="470.2283" y1="193.9776" x2="480.3641" y2="193.9776" gradientTransform="matrix(0 -38.336 38.336 0 -7021.4028 18415.2363)">
		<stop  offset="0" style="stop-color:#1C75BC"/>
		<stop  offset="1" style="stop-color:#27AAE1"/>
	</linearGradient>
	<polygon id="XMLID_46_" style="fill:url(#XMLID_00000180326411239457316920000003112064573942308010_);" points="470.2,44 
		470.2,388.6 359.7,346.7 359.7,0 	"/>
	<g id="XMLID_49_">
		<g>
			<g>
				<defs>
					<path id="SVGID_1_" d="M408,201.6c-3.9-11.2-3-31.1-4.3-34.1c-13-17.7-60-21.2-81.2-44c3.9-11.2-3.9-21.2-11.2-28.5
						c-11.2-8.6-27.6-4.3-40.2-1.3c-14.2-3-27.2-7.8-40.6-12.1c-30.7-3.5-60.4,18.1-60.4,18.1c-22,13.4-56.1,42.3-72.5,59.6
						c3.9,0.4,8.6-2.2,13-3l31.1-7.8c-13,10.8-40.6,29.8-48.8,44.9c9.5-3.5,30.7-14.7,40.6-15.1c-9.1,7.8-27.6,22.5-33.2,32.4
						l0.4,1.7c7.8-3.9,26.8-15.1,34.5-16c-8.6,9.1-25,26.8-28.5,38.4c7.3-5.2,26.8-14.7,35-18.1c-1.7,4.3-6,7.8-9.1,12.5
						c-3.9,6-13,13.4-13,21.6c6.9-6,14.7-12.1,23.3-16c-3.9,8.2-10.8,14.2-12.5,23.3c5.6-5.2,16-7.8,22.5-10.4l-0.4,0.4
						c-0.4,0.4-8.6,6-13.4,12.5c4.3,0,1.3-1.3,7.3,0.4h3.5c-1.7,1.3-3.5,1.7-5.2,3c-3,1.7-6,3.5-9.1,5.2
						c13,16.4,29.4,29.8,47.5,38.9c24.2,12.1,50.5,16,76.8,12.5c-0.4-1.7-0.4-3-1.3-4.3l0,0c-0.4-1.7-1.3-3.9-1.7-5.6v-0.4
						c9.1-16.8,4.3-45.3,27.2-57c15.1-7.8,17.7-12.5,35-9.1c9.5,1.7,30.7,9.1,40.6,6.9c9.1-5.2,13.4-7.3,21.6-13.4
						c10.4,1.7,13,0.4,16.8-4.3c-3.5,4.3,6-18.1,10.8-26.8L408,201.6z"/>
				</defs>
				<clipPath id="SVGID_00000087376639693586681550000015622652368593602689_">
					<use xlink:href="#SVGID_1_"  style="overflow:visible;"/>
				</clipPath>
				
					<ellipse id="XMLID_50_" style="clip-path:url(#SVGID_00000087376639693586681550000015622652368593602689_);fill:#FFFFFF;" cx="249.6" cy="202.9" rx="204.2" ry="138.6"/>
			</g>
		</g>
	</g>
	<g id="XMLID_52_">
		<g>
			<g>
				<defs>
					<path id="SVGID_00000070094121557964352800000010822403312884041605_" d="M408,201.6c-3.9-11.2-3-31.1-4.3-34.1
						c-13-17.7-60-21.2-81.2-44c3.9-11.2-3.9-21.2-11.2-28.5c-11.2-8.6-27.6-4.3-40.2-1.3c-14.2-3-27.2-7.8-40.6-12.1
						c-30.7-3.5-60.4,18.1-60.4,18.1c-22,13.4-56.1,42.3-72.5,59.6c3.9,0.4,8.6-2.2,13-3l31.1-7.8c-13,10.8-40.6,29.8-48.8,44.9
						c9.5-3.5,30.7-14.7,40.6-15.1c-9.1,7.8-27.6,22.5-33.2,32.4l0.4,1.7c7.8-3.9,26.8-15.1,34.5-16c-8.6,9.1-25,26.8-28.5,38.4
						c7.3-5.2,26.8-14.7,35-18.1c-1.7,4.3-6,7.8-9.1,12.5c-3.9,6-13,13.4-13,21.6c6.9-6,14.7-12.1,23.3-16
						c-3.9,8.2-10.8,14.2-12.5,23.3c5.6-5.2,16-7.8,22.5-10.4l-0.4,0.4c-0.4,0.4-8.6,6-13.4,12.5c4.3,0,1.3-1.3,7.3,0.4h3.5
						c-1.7,1.3-3.5,1.7-5.2,3c-3,1.7-6,3.5-9.1,5.2c13,16.4,29.4,29.8,47.5,38.9c24.2,12.1,50.5,16,76.8,12.5
						c-0.4-1.7-0.4-3-1.3-4.3l0,0c-0.4-1.7-1.3-3.9-1.7-5.6v-0.4c9.1-16.8,4.3-45.3,27.2-57c15.1-7.8,17.7-12.5,35-9.1
						c9.5,1.7,30.7,9.1,40.6,6.9c9.1-5.2,13.4-7.3,21.6-13.4c10.4,1.7,13,0.4,16.8-4.3c-3.5,4.3,6-18.1,10.8-26.8L408,201.6z"/>
				</defs>
				<clipPath id="SVGID_00000021817122993872088910000010801182639110102953_">
					<use xlink:href="#SVGID_00000070094121557964352800000010822403312884041605_"  style="overflow:visible;"/>
				</clipPath>
				
					<polygon id="XMLID_53_" style="clip-path:url(#SVGID_00000021817122993872088910000010801182639110102953_);fill:#F1F2F2;" points="
					32.4,50.9 32.4,398.1 142.1,355.8 142.1,6.5 				"/>
			</g>
		</g>
	</g>
	<g id="XMLID_55_">
		<g>
			<g>
				<defs>
					<path id="SVGID_00000022523874318855658860000009226939451645314713_" d="M408,201.6c-3.9-11.2-3-31.1-4.3-34.1
						c-13-17.7-60-21.2-81.2-44c3.9-11.2-3.9-21.2-11.2-28.5c-11.2-8.6-27.6-4.3-40.2-1.3c-14.2-3-27.2-7.8-40.6-12.1
						c-30.7-3.5-60.4,18.1-60.4,18.1c-22,13.4-56.1,42.3-72.5,59.6c3.9,0.4,8.6-2.2,13-3l31.1-7.8c-13,10.8-40.6,29.8-48.8,44.9
						c9.5-3.5,30.7-14.7,40.6-15.1c-9.1,7.8-27.6,22.5-33.2,32.4l0.4,1.7c7.8-3.9,26.8-15.1,34.5-16c-8.6,9.1-25,26.8-28.5,38.4
						c7.3-5.2,26.8-14.7,35-18.1c-1.7,4.3-6,7.8-9.1,12.5c-3.9,6-13,13.4-13,21.6c6.9-6,14.7-12.1,23.3-16
						c-3.9,8.2-10.8,14.2-12.5,23.3c5.6-5.2,16-7.8,22.5-10.4l-0.4,0.4c-0.4,0.4-8.6,6-13.4,12.5c4.3,0,1.3-1.3,7.3,0.4h3.5
						c-1.7,1.3-3.5,1.7-5.2,3c-3,1.7-6,3.5-9.1,5.2c13,16.4,29.4,29.8,47.5,38.9c24.2,12.1,50.5,16,76.8,12.5
						c-0.4-1.7-0.4-3-1.3-4.3l0,0c-0.4-1.7-1.3-3.9-1.7-5.6v-0.4c9.1-16.8,4.3-45.3,27.2-57c15.1-7.8,17.7-12.5,35-9.1
						c9.5,1.7,30.7,9.1,40.6,6.9c9.1-5.2,13.4-7.3,21.6-13.4c10.4,1.7,13,0.4,16.8-4.3c-3.5,4.3,6-18.1,10.8-26.8L408,201.6z"/>
				</defs>
				<clipPath id="SVGID_00000070086436653667216960000005626156193875472539_">
					<use xlink:href="#SVGID_00000022523874318855658860000009226939451645314713_"  style="overflow:visible;"/>
				</clipPath>
				
					<polygon id="XMLID_56_" style="clip-path:url(#SVGID_00000070086436653667216960000005626156193875472539_);fill:#FFFFFF;" points="
					251.3,50.9 251.3,398.1 141.2,355.8 141.2,6.5 				"/>
			</g>
		</g>
	</g>
	<g id="XMLID_58_">
		<g>
			<g>
				<defs>
					<path id="SVGID_00000073695493203806049990000015397879921815455676_" d="M408,201.6c-3.9-11.2-3-31.1-4.3-34.1
						c-13-17.7-60-21.2-81.2-44c3.9-11.2-3.9-21.2-11.2-28.5c-11.2-8.6-27.6-4.3-40.2-1.3c-14.2-3-27.2-7.8-40.6-12.1
						c-30.7-3.5-60.4,18.1-60.4,18.1c-22,13.4-56.1,42.3-72.5,59.6c3.9,0.4,8.6-2.2,13-3l31.1-7.8c-13,10.8-40.6,29.8-48.8,44.9
						c9.5-3.5,30.7-14.7,40.6-15.1c-9.1,7.8-27.6,22.5-33.2,32.4l0.4,1.7c7.8-3.9,26.8-15.1,34.5-16c-8.6,9.1-25,26.8-28.5,38.4
						c7.3-5.2,26.8-14.7,35-18.1c-1.7,4.3-6,7.8-9.1,12.5c-3.9,6-13,13.4-13,21.6c6.9-6,14.7-12.1,23.3-16
						c-3.9,8.2-10.8,14.2-12.5,23.3c5.6-5.2,16-7.8,22.5-10.4l-0.4,0.4c-0.4,0.4-8.6,6-13.4,12.5c4.3,0,1.3-1.3,7.3,0.4h3.5
						c-1.7,1.3-3.5,1.7-5.2,3c-3,1.7-6,3.5-9.1,5.2c13,16.4,29.4,29.8,47.5,38.9c24.2,12.1,50.5,16,76.8,12.5
						c-0.4-1.7-0.4-3-1.3-4.3l0,0c-0.4-1.7-1.3-3.9-1.7-5.6v-0.4c9.1-16.8,4.3-45.3,27.2-57c15.1-7.8,17.7-12.5,35-9.1
						c9.5,1.7,30.7,9.1,40.6,6.9c9.1-5.2,13.4-7.3,21.6-13.4c10.4,1.7,13,0.4,16.8-4.3c-3.5,4.3,6-18.1,10.8-26.8L408,201.6z"/>
				</defs>
				<clipPath id="SVGID_00000097477004291848889520000006885907485442950070_">
					<use xlink:href="#SVGID_00000073695493203806049990000015397879921815455676_"  style="overflow:visible;"/>
				</clipPath>
				
					<polygon id="XMLID_59_" style="clip-path:url(#SVGID_00000097477004291848889520000006885907485442950070_);fill:#F1F2F2;" points="
					250.4,50.9 250.4,398.1 359.7,355.8 359.7,6.5 				"/>
			</g>
		</g>
	</g>
	<g id="XMLID_61_">
		<g>
			<g>
				<defs>
					<path id="SVGID_00000137131374110145276300000002791367809212294018_" d="M408,201.6c-3.9-11.2-3-31.1-4.3-34.1
						c-13-17.7-60-21.2-81.2-44c3.9-11.2-3.9-21.2-11.2-28.5c-11.2-8.6-27.6-4.3-40.2-1.3c-14.2-3-27.2-7.8-40.6-12.1
						c-30.7-3.5-60.4,18.1-60.4,18.1c-22,13.4-56.1,42.3-72.5,59.6c3.9,0.4,8.6-2.2,13-3l31.1-7.8c-13,10.8-40.6,29.8-48.8,44.9
						c9.5-3.5,30.7-14.7,40.6-15.1c-9.1,7.8-27.6,22.5-33.2,32.4l0.4,1.7c7.8-3.9,26.8-15.1,34.5-16c-8.6,9.1-25,26.8-28.5,38.4
						c7.3-5.2,26.8-14.7,35-18.1c-1.7,4.3-6,7.8-9.1,12.5c-3.9,6-13,13.4-13,21.6c6.9-6,14.7-12.1,23.3-16
						c-3.9,8.2-10.8,14.2-12.5,23.3c5.6-5.2,16-7.8,22.5-10.4l-0.4,0.4c-0.4,0.4-8.6,6-13.4,12.5c4.3,0,1.3-1.3,7.3,0.4h3.5
						c-1.7,1.3-3.5,1.7-5.2,3c-3,1.7-6,3.5-9.1,5.2c13,16.4,29.4,29.8,47.5,38.9c24.2,12.1,50.5,16,76.8,12.5
						c-0.4-1.7-0.4-3-1.3-4.3l0,0c-0.4-1.7-1.3-3.9-1.7-5.6v-0.4c9.1-16.8,4.3-45.3,27.2-57c15.1-7.8,17.7-12.5,35-9.1
						c9.5,1.7,30.7,9.1,40.6,6.9c9.1-5.2,13.4-7.3,21.6-13.4c10.4,1.7,13,0.4,16.8-4.3c-3.5,4.3,6-18.1,10.8-26.8L408,201.6z"/>
				</defs>
				<clipPath id="SVGID_00000012452894199201833530000014640569893917019309_">
					<use xlink:href="#SVGID_00000137131374110145276300000002791367809212294018_"  style="overflow:visible;"/>
				</clipPath>
				
					<polygon id="XMLID_62_" style="clip-path:url(#SVGID_00000012452894199201833530000014640569893917019309_);fill:#FFFFFF;" points="
					468.5,50.9 468.5,398.1 359.2,355.8 359.2,6.5 				"/>
			</g>
		</g>
	</g>
</g>
<g>
	<polygon id="XMLID_47_" class="st0" points="198.8,427.4 179.4,466.7 169.9,466.7 150.6,427.4 150.6,472.4 134.5,472.4 
		134.5,400.8 156.2,400.8 174.7,440.3 193.2,400.8 214.8,400.8 214.8,472.4 198.8,472.4 	"/>
	<path id="XMLID_65_" class="st0" d="M279.8,410.3c6.7,6.3,10.2,15,10.2,26c0,11.2-3.4,19.9-10,26.5c-6.6,6.5-16.9,9.8-30.5,9.8
		h-24.4v-71.6h25.3C263.2,400.8,272.9,403.9,279.8,410.3z M268.1,452.9c4-3.6,5.9-9,5.9-16.1s-1.9-12.5-5.9-16.3
		c-4-3.7-10-5.7-18.2-5.7h-9v43.6H251C258.5,458.5,264.1,456.5,268.1,452.9z"/>
	<polygon id="XMLID_66_" class="st0" points="349.5,400.8 365.5,400.8 365.5,472.4 349.5,472.4 315.4,427.6 315.4,472.4 
		299.3,472.4 299.3,400.8 314.3,400.8 349.5,447 	"/>
</g>
</svg>
