<svg version="1.1" id="Layer_1" xmlns="http://www.w3.org/2000/svg"
   xmlns:xlink="http://www.w3.org/1999/xlink" x="0px" y="0px"
   viewBox="0 0 500 500" style="enable-background:new 0 0 500 500;" xml:space="preserve">
<style type="text/css">
	.st0{fill:#4D4E53;}
	.st1{fill:url(#XMLID_81_);}
	.st2{fill:url(#XMLID_82_);}
	.st3{fill:url(#XMLID_86_);}
	.st4{fill:url(#XMLID_87_);}
	.st5{fill:url(#XMLID_88_);}
	.st6{clip-path:url(#XMLID_89_);fill:#FFFFFF;}
	.st7{clip-path:url(#XMLID_90_);fill:#F1F2F2;}
	.st8{clip-path:url(#XMLID_91_);fill:#FFFFFF;}
	.st9{clip-path:url(#XMLID_92_);fill:#F1F2F2;}
	.st10{clip-path:url(#XMLID_93_);fill:#FFFFFF;}
</style>
<g id="XMLID_1_">
	<polygon id="XMLID_3_" class="st0" points="333.3,233.5 329.8,240.7 328,240.7 324.5,233.5 324.5,241.8 321.5,241.8 321.5,228.7 
		325.5,228.7 328.9,235.9 332.3,228.7 336.3,228.7 336.3,241.8 333.3,241.8 333.3,233.5 	"/>
	<path id="XMLID_6_" class="st0" d="M350.1,240c-1.3,1.3-3,2-4.9,2c-1.9,0-3.6-0.7-4.9-2c-1.3-1.3-2-2.9-2-4.9c0-1.9,0.7-3.6,2-4.9
		c1.3-1.3,3-2,4.9-2c1.9,0,3.6,0.7,4.9,2c1.3,1.3,2,2.9,2,4.9C352.1,237.1,351.4,238.7,350.1,240z M349.1,235.2c0-1.2-0.4-2.2-1.1-3
		c-0.8-0.8-1.7-1.2-2.8-1.2c-1.1,0-2,0.4-2.8,1.2c-0.8,0.8-1.1,1.8-1.1,3c0,1.2,0.4,2.2,1.1,3c0.8,0.8,1.7,1.2,2.8,1.2
		c1.1,0,2-0.4,2.8-1.2C348.7,237.3,349.1,236.3,349.1,235.2z"/>
	<polygon id="XMLID_7_" class="st0" points="352.9,241.8 352.9,239.8 359.8,231.2 353.1,231.2 353.1,228.7 363.8,228.7 363.8,230.7 
		356.9,239.3 363.9,239.3 363.9,241.8 352.9,241.8 	"/>
	<rect id="XMLID_8_" x="366" y="228.7" class="st0" width="2.9" height="13.2"/>
	<polygon id="XMLID_9_" class="st0" points="371.6,241.8 371.6,228.7 374.6,228.7 374.6,239.2 380.2,239.2 380.2,241.8 	"/>
	<polygon id="XMLID_10_" class="st0" points="381.6,241.8 381.6,228.7 384.5,228.7 384.5,239.2 390.1,239.2 390.1,241.8 	"/>
	<path id="XMLID_13_" class="st0" d="M401.8,241.8l-1.2-2.8h-5.5l-1.2,2.8h-3.1l5.7-13.2h2.8l5.7,13.2H401.8z M397.9,232.6l-1.7,3.8
		h3.3L397.9,232.6z"/>
	<path id="XMLID_16_" class="st0" d="M331.6,246.6c1.3,1.2,1.9,2.8,1.9,4.8c0,2-0.6,3.7-1.8,4.9c-1.2,1.2-3.1,1.8-5.6,1.8h-4.5
		v-13.2h4.7C328.5,244.9,330.3,245.5,331.6,246.6z M329.4,254.5c0.7-0.7,1.1-1.7,1.1-3c0-1.3-0.4-2.3-1.1-3c-0.7-0.7-1.8-1-3.3-1
		h-1.6v8h1.9C327.7,255.5,328.7,255.1,329.4,254.5z"/>
	<polygon id="XMLID_17_" class="st0" points="345,244.9 345,247.5 338.5,247.5 338.5,250.2 344.4,250.2 344.4,252.7 338.5,252.7 
		338.5,255.5 345.2,255.5 345.2,258.1 335.5,258.1 335.5,244.9 	"/>
	<polygon id="XMLID_18_" class="st0" points="352.5,253.3 355.9,244.9 359,244.9 353.7,258.1 351.3,258.1 346,244.9 349.1,244.9 	
		"/>
	<polygon id="XMLID_19_" class="st0" points="369.7,244.9 369.7,247.5 363.1,247.5 363.1,250.2 369,250.2 369,252.7 363.1,252.7 
		363.1,255.5 369.9,255.5 369.9,258.1 360.2,258.1 360.2,244.9 	"/>
	<polygon id="XMLID_20_" class="st0" points="372.1,258.1 372.1,244.9 375,244.9 375,255.5 380.7,255.5 380.7,258.1 	"/>
	<path id="XMLID_23_" class="st0" d="M392.9,256.3c-1.3,1.3-3,2-4.9,2c-1.9,0-3.6-0.7-4.9-2c-1.3-1.3-2-2.9-2-4.9
		c0-1.9,0.7-3.6,2-4.9c1.3-1.3,3-2,4.9-2s3.6,0.7,4.9,2c1.3,1.3,2,2.9,2,4.9C394.9,253.3,394.2,255,392.9,256.3z M391.9,251.4
		c0-1.2-0.4-2.2-1.1-3c-0.8-0.8-1.7-1.2-2.8-1.2c-1.1,0-2,0.4-2.8,1.2c-0.8,0.8-1.1,1.8-1.1,3c0,1.2,0.4,2.2,1.1,3
		c0.8,0.8,1.7,1.2,2.8,1.2c1.1,0,2-0.4,2.8-1.2C391.5,253.6,391.9,252.6,391.9,251.4z"/>
	<path id="XMLID_26_" class="st0" d="M405.9,246.1c0.9,0.8,1.4,2,1.4,3.6c0,1.6-0.5,2.8-1.4,3.6c-1,0.8-2.4,1.1-4.3,1.1h-1.8v3.7
		h-2.9v-13.2h4.7C403.5,244.9,405,245.3,405.9,246.1z M403.8,251.3c0.4-0.4,0.5-1,0.5-1.7s-0.2-1.3-0.7-1.6
		c-0.5-0.3-1.2-0.5-2.1-0.5h-1.7v4.4h2C402.8,251.9,403.4,251.7,403.8,251.3z"/>
	<polygon id="XMLID_27_" class="st0" points="418.5,244.9 418.5,247.5 412,247.5 412,250.2 417.9,250.2 417.9,252.7 412,252.7 
		412,255.5 418.8,255.5 418.8,258.1 409,258.1 409,244.9 	"/>
	<path id="XMLID_30_" class="st0" d="M431.7,249.3c0,2.1-0.8,3.5-2.5,4.1l3.3,4.7h-3.6l-2.9-4.2h-2v4.2H421v-13.2h5
		c2.1,0,3.5,0.3,4.4,1C431.2,246.6,431.7,247.7,431.7,249.3z M428.1,250.8c0.4-0.3,0.5-0.8,0.5-1.6c0-0.7-0.2-1.2-0.6-1.5
		c-0.4-0.3-1-0.4-2-0.4h-2.2v3.9h2.2C427.1,251.3,427.8,251.2,428.1,250.8z"/>
	<polygon id="XMLID_31_" class="st0" points="330.7,261.1 333.7,261.1 333.7,274.3 330.7,274.3 324.5,266.1 324.5,274.3 
		321.5,274.3 321.5,261.1 324.3,261.1 330.7,269.6 	"/>
	<polygon id="XMLID_32_" class="st0" points="345.9,261.1 345.9,263.8 339.4,263.8 339.4,266.5 345.3,266.5 345.3,269 339.4,269 
		339.4,271.7 346.1,271.7 346.1,274.3 336.4,274.3 336.4,261.1 	"/>
	<polygon id="XMLID_33_" class="st0" points="353.8,263.7 353.8,274.3 350.9,274.3 350.9,263.7 347.1,263.7 347.1,261.1 
		357.5,261.1 357.5,263.7 	"/>
	<polygon id="XMLID_34_" class="st0" points="363.9,268.7 366.3,261.1 369.4,261.1 371.7,268.7 374.3,261.1 377.5,261.1 
		372.9,274.3 370.7,274.3 367.8,265.2 364.9,274.3 362.8,274.3 358.2,261.1 361.3,261.1 	"/>
	<path id="XMLID_37_" class="st0" d="M389.2,272.5c-1.3,1.3-3,2-4.9,2c-1.9,0-3.6-0.7-4.9-2c-1.3-1.3-2-2.9-2-4.9
		c0-1.9,0.7-3.6,2-4.9c1.3-1.3,3-2,4.9-2s3.6,0.7,4.9,2c1.3,1.3,2,2.9,2,4.9C391.2,269.6,390.6,271.2,389.2,272.5z M388.2,267.7
		c0-1.2-0.4-2.2-1.1-3c-0.8-0.8-1.7-1.2-2.8-1.2c-1.1,0-2,0.4-2.8,1.2c-0.8,0.8-1.1,1.8-1.1,3c0,1.2,0.4,2.2,1.1,3
		c0.8,0.8,1.7,1.2,2.8,1.2c1.1,0,2-0.4,2.8-1.2C387.9,269.8,388.2,268.8,388.2,267.7z"/>
	<path id="XMLID_40_" class="st0" d="M403.9,265.5c0,2.1-0.8,3.5-2.5,4.1l3.3,4.7h-3.6l-2.9-4.2h-2v4.2h-2.9v-13.2h5
		c2,0,3.5,0.3,4.4,1C403.4,262.9,403.9,264,403.9,265.5z M400.3,267.1c0.4-0.3,0.5-0.8,0.5-1.6c0-0.7-0.2-1.2-0.6-1.5
		c-0.4-0.3-1-0.4-2-0.4h-2.2v3.9h2.2C399.3,267.6,400,267.4,400.3,267.1z"/>
	<path id="XMLID_41_" class="st0" d="M406.3,261.1h2.9v5.4l5-5.4h3.6l-5.2,5.8c0.5,0.6,1.3,1.8,2.5,3.5c1.2,1.7,2.1,3,2.7,3.8h-3.4
		l-3.9-5.2l-1.3,1.5v3.7h-2.9V261.1L406.3,261.1z"/>
	
		<linearGradient id="XMLID_81_" gradientUnits="userSpaceOnUse" x1="-6.2255" y1="2.054" x2="-4.4351" y2="2.054" gradientTransform="matrix(0 -38.336 38.336 0 27.6571 45.6574)">
		<stop  offset="0" style="stop-color:#1C75BC"/>
		<stop  offset="1" style="stop-color:#27AAE1"/>
	</linearGradient>
	<polygon id="XMLID_42_" class="st1" points="125.9,215.7 125.9,215.7 125.8,215.7 125.8,215.7 125.8,215.7 106.4,223.5 87,215.7 
		87,215.7 87,215.7 86.9,215.7 86.9,215.7 67.5,223.5 67.5,284.3 87,276.9 106.4,284.3 106.4,284.3 106.4,284.3 106.4,284.3 
		106.4,284.3 125.8,276.9 145.3,284.3 145.3,223.5 	"/>
	
		<linearGradient id="XMLID_82_" gradientUnits="userSpaceOnUse" x1="-6.2255" y1="1.7185" x2="-4.4351" y2="1.7185" gradientTransform="matrix(0 -38.336 38.336 0 11.3811 45.6574)">
		<stop  offset="0" style="stop-color:#0469A7"/>
		<stop  offset="1" style="stop-color:#1599C8"/>
	</linearGradient>
	<polygon id="XMLID_43_" class="st2" points="67.5,223.5 67.5,284.3 87,276.9 87,215.7 	"/>
	
		<linearGradient id="XMLID_86_" gradientUnits="userSpaceOnUse" x1="-6.2255" y1="1.9422" x2="-4.4351" y2="1.9422" gradientTransform="matrix(0 -38.336 38.336 0 22.2316 45.6574)">
		<stop  offset="0" style="stop-color:#1C75BC"/>
		<stop  offset="1" style="stop-color:#27AAE1"/>
	</linearGradient>
	<polygon id="XMLID_44_" class="st3" points="106.4,223.5 106.4,284.3 86.9,276.9 86.9,215.7 	"/>
	
		<linearGradient id="XMLID_87_" gradientUnits="userSpaceOnUse" x1="-6.2255" y1="2.1659" x2="-4.4351" y2="2.1659" gradientTransform="matrix(0 -38.336 38.336 0 33.0826 45.6574)">
		<stop  offset="0" style="stop-color:#0469A7"/>
		<stop  offset="1" style="stop-color:#1599C8"/>
	</linearGradient>
	<polygon id="XMLID_45_" class="st4" points="106.4,223.5 106.4,284.3 125.9,276.9 125.9,215.7 	"/>
	
		<linearGradient id="XMLID_88_" gradientUnits="userSpaceOnUse" x1="-6.2255" y1="2.3896" x2="-4.4351" y2="2.3896" gradientTransform="matrix(0 -38.336 38.336 0 43.9336 45.6574)">
		<stop  offset="0" style="stop-color:#1C75BC"/>
		<stop  offset="1" style="stop-color:#27AAE1"/>
	</linearGradient>
	<polygon id="XMLID_46_" class="st5" points="145.3,223.5 145.3,284.3 125.8,276.9 125.8,215.7 	"/>
	<g id="XMLID_49_">
		<defs>
			<path id="XMLID_48_" d="M134.3,251.3c-0.7-2-0.5-5.5-0.8-6c-2.3-3.1-10.6-3.7-14.3-7.8c0.7-2-0.7-3.7-2-5c-2-1.5-4.9-0.8-7.1-0.2
				c-2.5-0.5-4.8-1.4-7.2-2.1c-5.4-0.6-10.7,3.2-10.7,3.2c-3.9,2.4-9.9,7.5-12.8,10.5c0.7,0.1,1.5-0.4,2.3-0.5l5.5-1.4
				c-2.3,1.9-7.2,5.3-8.6,7.9c1.7-0.6,5.4-2.6,7.2-2.7c-1.6,1.4-4.9,4-5.9,5.7l0.1,0.3c1.4-0.7,4.7-2.7,6.1-2.8
				c-1.5,1.6-4.4,4.7-5,6.8c1.3-0.9,4.7-2.6,6.2-3.2c-0.3,0.8-1.1,1.4-1.6,2.2c-0.7,1.1-2.3,2.4-2.3,3.8c1.2-1.1,2.6-2.1,4.1-2.8
				c-0.7,1.4-1.9,2.5-2.2,4.1c1-0.9,2.8-1.4,4-1.8l-0.1,0.1c-0.1,0.1-1.5,1.1-2.4,2.2c0.8,0,0.2-0.2,1.3,0.1l0.6,0
				c-0.3,0.2-0.6,0.3-0.9,0.5c-0.5,0.3-1.1,0.6-1.6,0.9c2.3,2.9,5.2,5.3,8.4,6.9c4.3,2.1,8.9,2.8,13.6,2.2c-0.1-0.3-0.1-0.5-0.2-0.8
				l0,0c-0.1-0.3-0.2-0.7-0.3-1l0-0.1c1.6-3,0.8-8,4.8-10.1c2.7-1.4,3.1-2.2,6.2-1.6c1.7,0.3,5.4,1.6,7.2,1.2
				c1.6-0.9,2.4-1.3,3.8-2.4c1.8,0.3,2.3,0.1,3-0.8c-0.6,0.8,1.1-3.2,1.9-4.7L134.3,251.3z"/>
		</defs>
		<clipPath id="XMLID_89_">
			<use xlink:href="#XMLID_48_"  style="overflow:visible;"/>
		</clipPath>
		<ellipse id="XMLID_50_" class="st6" cx="106.3" cy="251.5" rx="36.1" ry="24.5"/>
	</g>
	<g id="XMLID_52_">
		<defs>
			<path id="XMLID_51_" d="M134.3,251.3c-0.7-2-0.5-5.5-0.8-6c-2.3-3.1-10.6-3.7-14.3-7.8c0.7-2-0.7-3.7-2-5c-2-1.5-4.9-0.8-7.1-0.2
				c-2.5-0.5-4.8-1.4-7.2-2.1c-5.4-0.6-10.7,3.2-10.7,3.2c-3.9,2.4-9.9,7.5-12.8,10.5c0.7,0.1,1.5-0.4,2.3-0.5l5.5-1.4
				c-2.3,1.9-7.2,5.3-8.6,7.9c1.7-0.6,5.4-2.6,7.2-2.7c-1.6,1.4-4.9,4-5.9,5.7l0.1,0.3c1.4-0.7,4.7-2.7,6.1-2.8
				c-1.5,1.6-4.4,4.7-5,6.8c1.3-0.9,4.7-2.6,6.2-3.2c-0.3,0.8-1.1,1.4-1.6,2.2c-0.7,1.1-2.3,2.4-2.3,3.8c1.2-1.1,2.6-2.1,4.1-2.8
				c-0.7,1.4-1.9,2.5-2.2,4.1c1-0.9,2.8-1.4,4-1.8l-0.1,0.1c-0.1,0.1-1.5,1.1-2.4,2.2c0.8,0,0.2-0.2,1.3,0.1l0.6,0
				c-0.3,0.2-0.6,0.3-0.9,0.5c-0.5,0.3-1.1,0.6-1.6,0.9c2.3,2.9,5.2,5.3,8.4,6.9c4.3,2.1,8.9,2.8,13.6,2.2c-0.1-0.3-0.1-0.5-0.2-0.8
				l0,0c-0.1-0.3-0.2-0.7-0.3-1l0-0.1c1.6-3,0.8-8,4.8-10.1c2.7-1.4,3.1-2.2,6.2-1.6c1.7,0.3,5.4,1.6,7.2,1.2
				c1.6-0.9,2.4-1.3,3.8-2.4c1.8,0.3,2.3,0.1,3-0.8c-0.6,0.8,1.1-3.2,1.9-4.7L134.3,251.3z"/>
		</defs>
		<clipPath id="XMLID_90_">
			<use xlink:href="#XMLID_51_"  style="overflow:visible;"/>
		</clipPath>
		<polygon id="XMLID_53_" class="st7" points="68,224.7 68,286 87.3,278.5 87.3,216.8 		"/>
	</g>
	<g id="XMLID_55_">
		<defs>
			<path id="XMLID_54_" d="M134.3,251.3c-0.7-2-0.5-5.5-0.8-6c-2.3-3.1-10.6-3.7-14.3-7.8c0.7-2-0.7-3.7-2-5c-2-1.5-4.9-0.8-7.1-0.2
				c-2.5-0.5-4.8-1.4-7.2-2.1c-5.4-0.6-10.7,3.2-10.7,3.2c-3.9,2.4-9.9,7.5-12.8,10.5c0.7,0.1,1.5-0.4,2.3-0.5l5.5-1.4
				c-2.3,1.9-7.2,5.3-8.6,7.9c1.7-0.6,5.4-2.6,7.2-2.7c-1.6,1.4-4.9,4-5.9,5.7l0.1,0.3c1.4-0.7,4.7-2.7,6.1-2.8
				c-1.5,1.6-4.4,4.7-5,6.8c1.3-0.9,4.7-2.6,6.2-3.2c-0.3,0.8-1.1,1.4-1.6,2.2c-0.7,1.1-2.3,2.4-2.3,3.8c1.2-1.1,2.6-2.1,4.1-2.8
				c-0.7,1.4-1.9,2.5-2.2,4.1c1-0.9,2.8-1.4,4-1.8l-0.1,0.1c-0.1,0.1-1.5,1.1-2.4,2.2c0.8,0,0.2-0.2,1.3,0.1l0.6,0
				c-0.3,0.2-0.6,0.3-0.9,0.5c-0.5,0.3-1.1,0.6-1.6,0.9c2.3,2.9,5.2,5.3,8.4,6.9c4.3,2.1,8.9,2.8,13.6,2.2c-0.1-0.3-0.1-0.5-0.2-0.8
				l0,0c-0.1-0.3-0.2-0.7-0.3-1l0-0.1c1.6-3,0.8-8,4.8-10.1c2.7-1.4,3.1-2.2,6.2-1.6c1.7,0.3,5.4,1.6,7.2,1.2
				c1.6-0.9,2.4-1.3,3.8-2.4c1.8,0.3,2.3,0.1,3-0.8c-0.6,0.8,1.1-3.2,1.9-4.7L134.3,251.3z"/>
		</defs>
		<clipPath id="XMLID_91_">
			<use xlink:href="#XMLID_54_"  style="overflow:visible;"/>
		</clipPath>
		<polygon id="XMLID_56_" class="st8" points="106.6,224.7 106.6,286 87.2,278.5 87.2,216.8 		"/>
	</g>
	<g id="XMLID_58_">
		<defs>
			<path id="XMLID_57_" d="M134.3,251.3c-0.7-2-0.5-5.5-0.8-6c-2.3-3.1-10.6-3.7-14.3-7.8c0.7-2-0.7-3.7-2-5c-2-1.5-4.9-0.8-7.1-0.2
				c-2.5-0.5-4.8-1.4-7.2-2.1c-5.4-0.6-10.7,3.2-10.7,3.2c-3.9,2.4-9.9,7.5-12.8,10.5c0.7,0.1,1.5-0.4,2.3-0.5l5.5-1.4
				c-2.3,1.9-7.2,5.3-8.6,7.9c1.7-0.6,5.4-2.6,7.2-2.7c-1.6,1.4-4.9,4-5.9,5.7l0.1,0.3c1.4-0.7,4.7-2.7,6.1-2.8
				c-1.5,1.6-4.4,4.7-5,6.8c1.3-0.9,4.7-2.6,6.2-3.2c-0.3,0.8-1.1,1.4-1.6,2.2c-0.7,1.1-2.3,2.4-2.3,3.8c1.2-1.1,2.6-2.1,4.1-2.8
				c-0.7,1.4-1.9,2.5-2.2,4.1c1-0.9,2.8-1.4,4-1.8l-0.1,0.1c-0.1,0.1-1.5,1.1-2.4,2.2c0.8,0,0.2-0.2,1.3,0.1l0.6,0
				c-0.3,0.2-0.6,0.3-0.9,0.5c-0.5,0.3-1.1,0.6-1.6,0.9c2.3,2.9,5.2,5.3,8.4,6.9c4.3,2.1,8.9,2.8,13.6,2.2c-0.1-0.3-0.1-0.5-0.2-0.8
				l0,0c-0.1-0.3-0.2-0.7-0.3-1l0-0.1c1.6-3,0.8-8,4.8-10.1c2.7-1.4,3.1-2.2,6.2-1.6c1.7,0.3,5.4,1.6,7.2,1.2
				c1.6-0.9,2.4-1.3,3.8-2.4c1.8,0.3,2.3,0.1,3-0.8c-0.6,0.8,1.1-3.2,1.9-4.7L134.3,251.3z"/>
		</defs>
		<clipPath id="XMLID_92_">
			<use xlink:href="#XMLID_57_"  style="overflow:visible;"/>
		</clipPath>
		<polygon id="XMLID_59_" class="st9" points="106.5,224.7 106.5,286 125.8,278.5 125.8,216.8 		"/>
	</g>
	<g id="XMLID_61_">
		<defs>
			<path id="XMLID_60_" d="M134.3,251.3c-0.7-2-0.5-5.5-0.8-6c-2.3-3.1-10.6-3.7-14.3-7.8c0.7-2-0.7-3.7-2-5c-2-1.5-4.9-0.8-7.1-0.2
				c-2.5-0.5-4.8-1.4-7.2-2.1c-5.4-0.6-10.7,3.2-10.7,3.2c-3.9,2.4-9.9,7.5-12.8,10.5c0.7,0.1,1.5-0.4,2.3-0.5l5.5-1.4
				c-2.3,1.9-7.2,5.3-8.6,7.9c1.7-0.6,5.4-2.6,7.2-2.7c-1.6,1.4-4.9,4-5.9,5.7l0.1,0.3c1.4-0.7,4.7-2.7,6.1-2.8
				c-1.5,1.6-4.4,4.7-5,6.8c1.3-0.9,4.7-2.6,6.2-3.2c-0.3,0.8-1.1,1.4-1.6,2.2c-0.7,1.1-2.3,2.4-2.3,3.8c1.2-1.1,2.6-2.1,4.1-2.8
				c-0.7,1.4-1.9,2.5-2.2,4.1c1-0.9,2.8-1.4,4-1.8l-0.1,0.1c-0.1,0.1-1.5,1.1-2.4,2.2c0.8,0,0.2-0.2,1.3,0.1l0.6,0
				c-0.3,0.2-0.6,0.3-0.9,0.5c-0.5,0.3-1.1,0.6-1.6,0.9c2.3,2.9,5.2,5.3,8.4,6.9c4.3,2.1,8.9,2.8,13.6,2.2c-0.1-0.3-0.1-0.5-0.2-0.8
				l0,0c-0.1-0.3-0.2-0.7-0.3-1l0-0.1c1.6-3,0.8-8,4.8-10.1c2.7-1.4,3.1-2.2,6.2-1.6c1.7,0.3,5.4,1.6,7.2,1.2
				c1.6-0.9,2.4-1.3,3.8-2.4c1.8,0.3,2.3,0.1,3-0.8c-0.6,0.8,1.1-3.2,1.9-4.7L134.3,251.3z"/>
		</defs>
		<clipPath id="XMLID_93_">
			<use xlink:href="#XMLID_60_"  style="overflow:visible;"/>
		</clipPath>
		<polygon id="XMLID_62_" class="st10" points="145,224.7 145,286 125.7,278.5 125.7,216.8 		"/>
	</g>
	<polygon id="XMLID_47_" class="st0" points="200.9,245.7 188.6,270.5 182.6,270.5 170.4,245.7 170.4,274.2 160.2,274.2 
		160.2,228.8 173.9,228.8 185.6,253.8 197.4,228.8 211,228.8 211,274.2 200.9,274.2 200.9,245.7 	"/>
	<path id="XMLID_65_" class="st0" d="M252.2,234.8c4.3,4,6.5,9.5,6.5,16.5c0,7.1-2.1,12.6-6.3,16.8c-4.2,4.1-10.7,6.2-19.3,6.2
		h-15.5v-45.4h16C241.7,228.8,247.9,230.8,252.2,234.8z M244.8,261.8c2.5-2.3,3.7-5.7,3.7-10.2c0-4.5-1.2-7.9-3.7-10.3
		c-2.5-2.4-6.3-3.6-11.5-3.6h-5.7v27.6h6.4C238.7,265.3,242.3,264.1,244.8,261.8z"/>
	<polygon id="XMLID_66_" class="st0" points="296.4,228.8 306.5,228.8 306.5,274.2 296.4,274.2 274.8,245.8 274.8,274.2 
		264.6,274.2 264.6,228.8 274.1,228.8 296.4,258.1 	"/>
</g>
</svg>