<?xml version="1.0" encoding="utf-8"?>
<!-- Generator: Adobe Illustrator 27.0.0, SVG Export Plug-In . SVG Version: 6.00 Build 0)  -->
<svg version="1.1" id="Layer_1" xmlns="http://www.w3.org/2000/svg" xmlns:xlink="http://www.w3.org/1999/xlink" x="0px" y="0px"
	 viewBox="0 0 300 300" style="enable-background:new 0 0 300 300;" xml:space="preserve">
<style type="text/css">
	.st0{fill:#00758F;}
	.st1{fill:#F29111;}
	.st2{fill-rule:evenodd;clip-rule:evenodd;fill:#F29111;}
	.st3{fill-rule:evenodd;clip-rule:evenodd;fill:#00758F;}
</style>
<g>
	<path class="st0" d="M65.4,285.9h-9c-0.3-15.2-1.2-29.5-2.6-42.9h-0.1l-13.7,42.9h-6.8L19.6,243h-0.1c-1,12.9-1.6,27.1-1.9,42.9
		H9.5c0.5-19.1,1.9-37.1,4-53.8h11.1l13,39.5h0.1l13-39.5h10.7C63.6,251.7,65,269.7,65.4,285.9 M104.4,246.2
		c-3.7,19.9-8.5,34.3-14.5,43.4c-4.7,7-9.8,10.4-15.3,10.4c-1.5,0-3.3-0.5-5.5-1.3v-4.8c1.1,0.2,2.3,0.2,3.7,0.2
		c2.6,0,4.7-0.7,6.3-2.2c1.9-1.7,2.9-3.7,2.9-5.9c0-1.5-0.7-4.5-2.2-9.2l-9.9-30.7h8.8l7.1,23c1.6,5.2,2.3,8.8,2,10.9
		c3.9-10.4,6.6-21.6,8.1-33.9L104.4,246.2"/>
	<g>
		<path class="st1" d="M143.7,271c0,4.6-1.7,8.3-5,11.2c-3.3,2.9-7.8,4.4-13.4,4.4c-5.2,0-10.3-1.7-15.3-5l2.3-4.6
			c4.2,2.1,8.1,3.2,11.5,3.2c3.2,0,5.8-0.7,7.6-2.1c1.8-1.4,2.9-3.4,2.9-6c0-3.2-2.2-5.9-6.3-8.2c-3.8-2.1-11.3-6.4-11.3-6.4
			c-4.1-3-6.1-6.2-6.1-11.4c0-4.4,1.5-7.9,4.6-10.6c3.1-2.7,7-4,11.8-4c5,0,9.5,1.3,13.6,4l-2.1,4.6c-3.5-1.5-6.9-2.2-10.3-2.2
			c-2.8,0-4.9,0.7-6.4,2c-1.5,1.3-2.4,3-2.4,5.1c0,3.2,2.3,6,6.5,8.3c3.8,2.1,11.5,6.5,11.5,6.5C141.6,262.6,143.7,265.8,143.7,271"
			/>
		<path class="st2" d="M159.8,275.1c-2.2-3.5-3.3-9.1-3.3-16.9c0-13.5,4.1-20.3,12.3-20.3c4.3,0,7.4,1.6,9.5,4.9
			c2.2,3.5,3.3,9.1,3.3,16.7c0,13.7-4.1,20.5-12.3,20.5C164.9,280,161.8,278.4,159.8,275.1 M191.7,287.2l-9.9-4.9
			c0.9-0.7,1.7-1.5,2.5-2.4c4.2-4.9,6.3-12.2,6.3-21.9c0-17.8-7-26.7-20.9-26.7c-6.8,0-12.2,2.3-16,6.8c-4.2,4.9-6.3,12.2-6.3,21.8
			c0,9.5,1.9,16.4,5.6,20.8c3.4,4,8.5,6,15.3,6c2.6,0,4.9-0.3,7-0.9l12.8,7.5L191.7,287.2"/>
		<path class="st1" d="M223.9,285.9h-25.5v-53.8h8.6v47.2h16.9V285.9z M230,285.9h1.4v-5.5h1.9v-1.1h-5.2v1.1h1.9L230,285.9z
			 M240.9,285.9h1.3v-6.6h-2l-1.6,4.5l-1.8-4.5h-1.9v6.6h1.3v-5h0.1l1.9,5h1l1.9-5L240.9,285.9z"/>
	</g>
	<g>
		<path class="st3" d="M268.8,209.6c-15-0.4-26.6,1.1-36.3,5.3c-2.8,1.1-7.3,1.1-7.7,4.7c1.5,1.5,1.7,3.9,3,6
			c2.2,3.8,6.2,8.8,9.7,11.5c3.9,3,7.9,6,12,8.6c7.3,4.5,15.5,7.2,22.6,11.7c4.1,2.6,8.2,6,12.4,8.8c2,1.5,3.4,3.9,6,4.9v-0.6
			c-1.3-1.7-1.7-4.1-3-6c-1.9-1.9-3.7-3.6-5.6-5.4c-5.4-7.3-12.2-13.7-19.5-19c-6-4.1-19.1-9.8-21.5-16.7l-0.4-0.4
			c4.1-0.4,9-1.9,12.9-3c6.4-1.7,12.2-1.3,18.7-3c3-0.8,6-1.7,9-2.6v-1.7c-3.4-3.4-5.8-7.9-9.4-11.1c-9.5-8.3-20-16.3-30.9-23.1
			c-5.8-3.8-13.3-6.2-19.5-9.4c-2.2-1.1-6-1.7-7.3-3.6c-3.4-4.1-5.3-9.6-7.7-14.5c-5.4-10.3-10.7-21.8-15.3-32.7
			c-3.4-7.3-5.4-14.6-9.6-21.4c-19.3-31.9-40.3-51.2-72.5-70.2c-6.9-4-15.2-5.6-24-7.7c-4.7-0.2-9.4-0.6-14-0.7
			c-3-1.3-6-4.9-8.6-6.6c-10.7-6.7-38.2-21.4-46.1-2C11.3,21.8,23.9,33.8,28.2,40c3.2,4.3,7.3,9.2,9.5,14.1c1.3,3.2,1.7,6.6,3,10
			c3,8.3,5.8,17.5,9.7,25.2c2,3.9,4.3,8.1,6.9,11.6c1.5,2.1,4.1,3,4.7,6.4c-2.6,3.7-2.8,9.4-4.3,14.1c-6.7,21.2-4.1,47.5,5.4,63.1
			c3,4.7,10.1,15,19.7,11.1c8.4-3.4,6.6-14.1,9-23.5c0.6-2.3,0.2-3.8,1.3-5.3v0.4c2.6,5.2,5.2,10.3,7.7,15.6
			c5.8,9.2,15.9,18.8,24.4,25.1c4.5,3.4,8,9.2,13.7,11.3v-0.6h-0.4c-1.1-1.7-2.8-2.4-4.3-3.7c-3.4-3.4-7.1-7.5-9.7-11.3
			c-7.9-10.5-14.8-22.1-21-34.2c-3-5.8-5.6-12.2-8.1-18c-1.1-2.2-1.1-5.6-3-6.8c-2.8,4.1-6.9,7.7-9,12.8c-3.6,8.1-3.9,18-5.3,28.4
			c-0.7,0.2-0.4,0-0.7,0.4c-6-1.5-8-7.7-10.3-12.9c-5.6-13.3-6.6-34.8-1.7-50.1c1.3-3.9,6.9-16.3,4.7-20.1c-1.1-3.6-4.9-5.6-6.9-8.5
			c-2.4-3.6-5.1-8.1-6.7-12C52,72,49.7,60.3,44.8,49.8c-2.2-4.9-6.2-10-9.4-14.5c-3.6-5.1-7.5-8.6-10.3-14.6
			c-0.9-2.1-2.2-5.5-0.7-7.7c0.4-1.5,1.1-2.1,2.6-2.5c2.4-2.1,9.4,0.6,11.8,1.7c6.9,2.8,12.7,5.5,18.5,9.4c2.6,1.9,5.4,5.4,8.8,6.4
			h3.9c6,1.3,12.7,0.4,18.4,2.1c9.9,3.2,18.9,7.9,27,13c24.5,15.6,44.7,37.7,58.4,64.2c2.3,4.3,3.2,8.3,5.3,12.8
			c3.9,9.2,8.8,18.6,12.7,27.6c3.9,8.8,7.7,17.8,13.3,25.2c2.8,3.9,14,6,19.1,8.1c3.7,1.7,9.6,3.2,12.9,5.2
			c6.4,3.9,12.7,8.4,18.7,12.8C258.9,201.1,268.2,205.8,268.8,209.6"/>
		<path class="st3" d="M77.8,46.4c-2.6,0-5.2,0.3-7.7,0.9v0.4h0.4c1.5,3,4.1,5.1,6,7.7c1.5,3,2.8,6,4.3,9c0.2-0.2,0.4-0.4,0.4-0.4
			c2.6-1.9,4-4.9,4-9.4c-1.1-1.3-1.3-2.6-2.3-4C81.7,48.9,79.3,47.9,77.8,46.4"/>
	</g>
</g>
</svg>
