<?xml version="1.0" encoding="utf-8"?>
<!-- Generator: Adobe Illustrator 27.0.0, SVG Export Plug-In . SVG Version: 6.00 Build 0)  -->
<svg version="1.1" id="Layer_1" xmlns="http://www.w3.org/2000/svg" xmlns:xlink="http://www.w3.org/1999/xlink" x="0px" y="0px"
	 viewBox="0 0 300 300" style="enable-background:new 0 0 300 300;" xml:space="preserve">
<style type="text/css">
	.st0{fill:#CB3837;}
</style>
<path class="st0" d="M133.8,125.1v33H150v-33H133.8z M133.8,125.1v33H150v-33H133.8z M0,91.5v100.2h83.4v16.8H150v-16.8h150V91.5H0z
	 M83.4,174.9H66.6v-49.8H49.8v49.8h-33v-66.6h66.6V174.9z M166.8,174.9h-33v16.8h-33.6v-83.4h66.6V174.9z M283.8,174.9H267v-49.8
	h-16.8v49.8h-16.8v-49.8h-16.8v49.8h-33v-66.6h100.2V174.9z M150,125.1h-16.2v33H150V125.1z"/>
</svg>
