<?xml version="1.0" encoding="utf-8"?>
<!-- Generator: Adobe Illustrator 27.0.0, SVG Export Plug-In . SVG Version: 6.00 Build 0)  -->
<svg version="1.1" id="Layer_1" xmlns="http://www.w3.org/2000/svg" xmlns:xlink="http://www.w3.org/1999/xlink" x="0px" y="0px"
	 viewBox="0 0 300 300" style="enable-background:new 0 0 300 300;" xml:space="preserve">
<style type="text/css">
	.st0{fill-rule:evenodd;clip-rule:evenodd;fill:#8993BE;}
</style>
<g>
	<path class="st0" d="M238.4,137.7c-1,17.5-9.3,20.5-18.5,21.6h-12.3l5.1-30.8H226C233.2,128.4,238.4,131.5,238.4,137.7z"/>
	<path class="st0" d="M150,71.9c-82.8,0-150,35-150,78.1s67.2,78.1,150,78.1s150-35,150-78.1S232.8,71.9,150,71.9z M84.2,174.7H65.8
		l-4.1,21.6H42.1L58.6,113h38c16.4,1,24.7,9.2,24.7,23.6C121.2,161.3,101.7,175.7,84.2,174.7z M161.6,128.4h-15.4l-9.2,46.2h-19.5
		l16.4-83.2h19.5l-4.1,21.6h18.5c16.4,1,22.6,9.2,20.5,19.5l-7.2,42.1h-20.5l7.2-38C168.8,131.5,168.8,128.4,161.6,128.4z
		 M221.9,174.7h-18.5l-4.1,21.6h-19.5l16.4-83.2h38c16.4,1,24.7,9.2,24.7,23.6C258.9,161.3,239.4,175.7,221.9,174.7z M88.4,128.4H75
		l-5.1,30.8h12.3c9.2-1,17.5-4.1,18.5-21.6C100.7,131.5,95.5,128.4,88.4,128.4z"/>
</g>
</svg>
