<?xml version="1.0" encoding="utf-8"?>
<!-- Generator: Adobe Illustrator 27.0.0, SVG Export Plug-In . SVG Version: 6.00 Build 0)  -->
<svg version="1.1" id="Layer_1" xmlns="http://www.w3.org/2000/svg" xmlns:xlink="http://www.w3.org/1999/xlink" x="0px" y="0px"
	 viewBox="0 0 300 300" style="enable-background:new 0 0 300 300;" xml:space="preserve">
<style type="text/css">
	.st0{fill:#336791;}
</style>
<g id="XMLID_1_">
	<path class="st0" d="M97.9,177.1c-4.5,5-14.5,15.9-25.2,28.8c-7.5,9-12.7,7.3-14.5,6.7c-11.1-3.7-24.1-27.3-35.5-64.8
		C12.9,115.5,7.1,82.9,6.7,73.8c-1.5-28.9,5.5-48.9,20.8-59.7C52.3-3.5,93,7,109.4,12.3c-0.3,0.3-0.5,0.5-0.7,0.7
		C81.8,40.2,82.4,86.5,82.6,89.3c0,1.1,0.1,2.7,0.2,4.8c0.5,7.8,1.3,22.3-1,38.8c-2.1,15.3,2.6,30.3,12.9,41
		C95.6,175.1,96.8,176.2,97.9,177.1z"/>
	<path class="st0" d="M138.1,92.8c-1.6-7-5.1-11-11.1-12.4c-13-3.1-31.2,6.7-35.1,10.2c0.1,0.9,0.1,1.8,0.2,2.9
		c0.6,8.1,1.4,23.3-1,40.7c-1.8,12.4,2.1,24.5,10.4,33.2c6.6,6.8,15.1,10.6,24,10.7c1-4.2,2.7-8.6,4.4-13.4l0.7-1.8
		c0.9-2.5,2-4.8,3.1-7.3C139,143.7,145.8,128.7,138.1,92.8z M133.7,90.8c-0.3,2.4-4,5.6-8.2,5.6c-0.4,0-0.7,0-1.1-0.1
		c-2.5-0.3-5-1.8-6.7-4.2c-0.6-0.9-1.6-2.4-1.4-3.8c0-0.5,0.3-1.3,1.2-2c1.6-1.1,4.7-1.6,8.1-1.1C129.8,85.9,134.2,87.9,133.7,90.8z
		"/>
	<path class="st0" d="M145.4,196.4c0.4,1.4,0.9,3.9-0.7,5.9c-12,17-29.4,16.7-42,13.5c-2.6-0.7-4.9-1.8-6.2-2.7
		c1.1-0.6,3.1-1.3,6.7-2c17-3.5,19.7-6,25.4-13.3c1.3-1.7,2.9-3.6,4.9-5.9c1.8-2,3-2.6,4.2-2.6c0.9,0,1.8,0.4,2.8,0.8
		C142.6,191,144.6,193.6,145.4,196.4z"/>
	<path class="st0" d="M230.9,202.6c-0.7,8.8-5.7,50.5-8.2,65.3c-3.4,19.5-10.6,26.7-30.7,31.1c-20.8,4.4-28.2-6.2-33.1-18.3
		c-3.1-7.8-4.7-43.2-3.6-82.3c0-0.6-0.1-1-0.2-1.5c-0.1-0.9-0.3-1.8-0.6-2.8c-1.7-5.7-5.6-10.4-10.4-12.4c-2-0.7-5.3-2.2-9.5-1.2
		c0.9-3.7,2.4-7.8,4.2-12.3l0.7-1.8c0.9-2.1,1.8-4.3,2.9-6.6c5.6-12.6,13.5-29.9,5-68.8c-3.1-14.6-13.7-21.7-29.7-20.1
		c-9.6,1-18.3,4.9-22.7,7.1c-0.9,0.5-1.8,0.9-2.6,1.4c1.2-14.6,5.8-42.1,23-59.5c10.6-11,25.1-16.4,42.7-16.1
		c34.7,0.6,56.9,18.3,69.5,33.2c10.8,12.8,16.7,25.6,19,32.7c-17.6-1.8-29.5,1.7-35.6,10.4c-13.2,18.8,7.2,55.4,17,73
		c1.8,3.2,3.3,6,3.9,7.2c3.2,7.7,7.3,12.9,10.4,16.7c0.9,1.2,1.8,2.3,2.5,3.2C239.6,181.4,230.1,184.9,230.9,202.6z"/>
	<path class="st0" d="M244.7,107.8c0.2-5.9,0.9-10.8,1.7-15.6c0.7-4.4,1.3-8.6,1.4-13.3c-18.6-2.3-26,2-29,6
		c-9.8,14,9.3,48.4,17.5,63c2.1,3.8,3.6,6.6,4.3,8.2c0.7,2,1.7,3.6,2.5,5.1c5.6-12,4.2-24.1,2.8-35.8
		C245.3,119.6,244.5,113.6,244.7,107.8z M237.1,89.5c-0.9,0.9-2.9,2.6-5.5,2.9c-0.4,0.1-0.7,0.1-1,0.1c-4,0-7.2-3.1-7.5-5
		c-0.3-2.4,3.5-4.2,7.5-4.7s8.1,0.2,8.5,2.5C239.2,86.5,238.5,88.1,237.1,89.5z"/>
	<path class="st0" d="M197.9,2.7c7-1.6,16.6-2.9,27.4-2.7c27.3,0.7,48.9,10.8,64.1,30.3c11.7,14.9-1.2,83.1-38.5,141.8
		c-0.4-0.5-0.7-0.9-1.1-1.4c-0.2-0.2-0.3-0.4-0.5-0.6c9.7-15.9,7.7-31.7,6.1-45.6c-0.7-5.7-1.4-11.1-1.2-16.2
		c0.2-5.5,0.9-10,1.6-14.5c0.9-5.5,1.8-11.3,1.5-17.9c0.2-0.7,0.3-1.6,0.2-2.5c-0.7-6.4-7.9-25.7-23-43.2
		C226.2,20.6,214.2,9.9,197.9,2.7z"/>
	<path class="st0" d="M292.2,190.5h0.2c-2.6,2.6-7,5.8-13.4,8.8c-5.5,2.5-14.6,4.4-23.2,4.8c-9.6,0.5-14.4-1.1-15.6-2
		c-0.6-11.1,3.6-12.2,7.9-13.5c0.7-0.2,1.4-0.4,2-0.7c0.4,0.4,0.9,0.7,1.3,0.9C259.1,193.9,272.8,194.5,292.2,190.5z"/>
</g>
</svg>
