<?xml version="1.0" encoding="utf-8"?>
<!-- Generator: Adobe Illustrator 27.0.0, SVG Export Plug-In . SVG Version: 6.00 Build 0)  -->
<svg version="1.1" id="Layer_1" xmlns="http://www.w3.org/2000/svg" xmlns:xlink="http://www.w3.org/1999/xlink" x="0px" y="0px"
	 viewBox="0 0 300 300" style="enable-background:new 0 0 300 300;" xml:space="preserve">
<style type="text/css">
	.st0{fill:url(#SVGID_1_);}
	.st1{fill:url(#SVGID_00000131350920210291561900000010390901959260757691_);}
</style>
<g>
	
		<linearGradient id="SVGID_1_" gradientUnits="userSpaceOnUse" x1="1371.2725" y1="-1100.7253" x2="1371.3527" y2="-1100.6458" gradientTransform="matrix(1849.2675 0 0 1853.3917 -2535821.25 2040103.5)">
		<stop  offset="0" style="stop-color:#387EB8"/>
		<stop  offset="1" style="stop-color:#366994"/>
	</linearGradient>
	<path class="st0" d="M148.9,0.8c-76.2,0-71.4,33-71.4,33L77.6,68h72.7v10.3H48.7c0,0-48.7-5.5-48.7,71.3
		c0,76.8,42.5,74.1,42.5,74.1h25.4v-35.7c0,0-1.4-42.5,41.9-42.5h72.1c0,0,40.5,0.6,40.5-39.1V40.6C222.4,40.6,228.5,0.8,148.9,0.8z
		 M108.9,23.8c7.2,0,13.1,5.8,13.1,13.1c0,0,0,0,0,0c0,7.2-5.8,13.1-13.1,13.1c0,0,0,0,0,0c-7.2,0-13.1-5.8-13.1-13.1c0,0,0,0,0,0
		C95.8,29.6,101.6,23.8,108.9,23.8C108.8,23.8,108.8,23.8,108.9,23.8z"/>
	
		<linearGradient id="SVGID_00000093874099469827087120000011392305526023906224_" gradientUnits="userSpaceOnUse" x1="1370.9734" y1="-1101.0128" x2="1371.0596" y2="-1100.9312" gradientTransform="matrix(1849.2671 0 0 1853.3918 -2535176.5 2040731)">
		<stop  offset="0" style="stop-color:#FFE052"/>
		<stop  offset="1" style="stop-color:#FFC331"/>
	</linearGradient>
	<path style="fill:url(#SVGID_00000093874099469827087120000011392305526023906224_);" d="M151.1,299.2c76.2,0,71.4-33,71.4-33
		l-0.1-34.2h-72.7v-10.3h101.5c0,0,48.7,5.5,48.7-71.3c0-76.8-42.5-74.1-42.5-74.1h-25.4v35.7c0,0,1.4,42.5-41.9,42.5h-72.1
		c0,0-40.5-0.6-40.5,39.1v65.8C77.6,259.4,71.5,299.2,151.1,299.2L151.1,299.2z M191.2,276.2c-7.2,0-13.1-5.8-13.1-13.1c0,0,0,0,0,0
		c0-7.2,5.8-13.1,13.1-13.1c0,0,0,0,0,0c7.2,0,13.1,5.8,13.1,13.1c0,0,0,0,0,0C204.3,270.4,198.4,276.2,191.2,276.2
		C191.2,276.2,191.2,276.2,191.2,276.2L191.2,276.2z"/>
</g>
</svg>
