<?xml version="1.0" encoding="utf-8"?>
<!-- Generator: Adobe Illustrator 27.0.0, SVG Export Plug-In . SVG Version: 6.00 Build 0)  -->
<svg version="1.1" id="Layer_1" xmlns="http://www.w3.org/2000/svg" xmlns:xlink="http://www.w3.org/1999/xlink" x="0px" y="0px"
	 viewBox="0 0 300 300" style="enable-background:new 0 0 300 300;" xml:space="preserve">
<style type="text/css">
	.st0{fill:#61DAFB;}
</style>
<g>
	<path class="st0" d="M300,150c0-19.9-24.9-38.7-63-50.4c8.8-38.9,4.9-69.8-12.4-79.7c-4-2.3-8.6-3.4-13.6-3.4v-0.1
		c-16.8,0-38.8,12-61.1,32.8c-22.3-20.7-44.3-32.5-61.1-32.5v0.1c-5.1,0-9.8,1.1-13.8,3.4c-17.2,9.9-21,40.8-12.2,79.6
		C24.8,111.4,0,130.2,0,150c0,19.9,24.9,38.7,63,50.4c-8.8,38.9-4.9,69.8,12.4,79.7c4,2.3,8.6,3.4,13.8,3.4
		c16.8,0,38.8-12,61.1-32.8c22.3,20.7,44.3,32.5,61.1,32.5c5.1,0,9.8-1.1,13.8-3.4c17.2-9.9,21-40.8,12.2-79.6
		C275.2,188.7,300,169.8,300,150z M210.9,30L210.9,30c2.8,0.1,5.1,0.6,7,1.7c8.3,4.8,11.9,22.9,9.1,46.3c-0.7,5.8-1.8,11.8-3.1,18
		c-12-2.9-25.1-5.2-38.8-6.7c-8.3-11.3-16.8-21.6-25.4-30.6C179.5,40.2,198.2,30.1,210.9,30z M95.8,181.3c2.9,4.9,5.8,9.7,8.8,14.3
		c-8.7-1.3-17.1-2.9-25.1-4.8c2.3-7.9,5.1-16,8.3-24.2C90.3,171.6,92.9,176.4,95.8,181.3z M79.4,109.2c8-1.9,16.5-3.5,25.2-4.8
		c-3,4.7-6,9.5-8.8,14.5c-2.8,4.9-5.4,9.8-7.9,14.7C84.5,125.4,81.7,117.2,79.4,109.2z M95,150.2c3.8-8.2,8.1-16.4,12.7-24.4
		c4.8-8.3,9.7-16.1,14.7-23.4c9.1-0.8,18.3-1.2,27.6-1.2c9.2,0,18.5,0.4,27.5,1.2c5.1,7.3,10,15,14.8,23.2c4.6,8,8.9,16.1,12.7,24.3
		c-3.9,8.2-8.1,16.4-12.7,24.4c-4.8,8.2-9.7,16.1-14.7,23.4c-9.1,0.8-18.3,1.2-27.6,1.2c-9.2,0-18.5-0.4-27.5-1.2
		c-5.1-7.3-10-15-14.8-23.2C103.1,166.6,98.8,158.4,95,150.2z M204.2,181.2c2.8-4.9,5.4-9.8,8-14.7c3.3,8.2,6.1,16.4,8.4,24.3
		c-8,1.9-16.5,3.6-25.2,4.9C198.4,190.9,201.4,186.1,204.2,181.2z M204.1,118.7c-2.8-4.9-5.8-9.7-8.8-14.3
		c8.7,1.3,17.1,2.9,25.1,4.8c-2.3,7.9-5.1,16-8.3,24.2C209.6,128.5,207,123.6,204.1,118.7z M166.8,87.9c-5.5-0.2-11.1-0.4-16.8-0.4
		c-5.8,0-11.4,0.1-17,0.4c5.5-7.1,11.2-13.7,16.8-19.6C155.5,74.2,161.2,80.8,166.8,87.9z M81.8,32c1.8-1.1,4.2-1.6,7-1.6v-0.1
		c12.7,0,31.4,10.1,51.4,28.5c-8.6,9-17.1,19.2-25.3,30.5C101.1,90.8,88,93.1,76,96.1c-1.4-6.1-2.4-12.1-3.2-17.7
		C69.9,55,73.5,36.8,81.8,32z M66.3,187.2c-6-1.9-11.8-4-17.1-6.3c-21.6-9.2-35.7-21.3-35.7-30.9c0-9.6,14-21.8,35.7-30.9
		c5.3-2.3,11-4.3,16.9-6.2c3.5,12,8.1,24.5,13.8,37.2C74.3,162.9,69.8,175.3,66.3,187.2z M89,270c-2.8-0.1-5.1-0.6-6.9-1.7
		c-8.3-4.8-11.9-22.9-9.1-46.3c0.7-5.8,1.8-11.8,3.1-18c12,2.9,25.1,5.2,38.8,6.7c8.3,11.3,16.8,21.6,25.4,30.6
		C120.5,259.9,101.8,270,89,270z M150.1,231.7c-5.7-5.9-11.4-12.4-17-19.6c5.5,0.2,11.1,0.4,16.8,0.4c5.8,0,11.4-0.1,17-0.4
		C161.4,219.2,155.8,225.8,150.1,231.7z M218.2,268.1c-1.8,1.1-4.2,1.6-7,1.6c-12.7,0-31.4-10.1-51.4-28.5
		c8.6-9,17.1-19.2,25.3-30.5c13.8-1.5,26.9-3.7,38.9-6.7c1.4,6.2,2.5,12.1,3.2,17.8C230.1,245.1,226.5,263.3,218.2,268.1z
		 M250.7,181c-5.3,2.3-11,4.3-16.9,6.2c-3.5-12-8.1-24.5-13.8-37.2c5.6-12.7,10.1-25.1,13.6-37.1c6,1.9,11.8,4,17.2,6.2
		c21.6,9.2,35.7,21.3,35.7,30.9C286.4,159.6,272.4,171.8,250.7,181z"/>
	<circle class="st0" cx="149.9" cy="150" r="27.9"/>
</g>
</svg>
