<?xml version="1.0" encoding="utf-8"?>
<!-- Generator: Adobe Illustrator 27.0.0, SVG Export Plug-In . SVG Version: 6.00 Build 0)  -->
<svg version="1.1" id="Layer_1" xmlns="http://www.w3.org/2000/svg" xmlns:xlink="http://www.w3.org/1999/xlink" x="0px" y="0px"
	 viewBox="0 0 300 300" style="enable-background:new 0 0 300 300;" xml:space="preserve">
<style type="text/css">
	.st0{fill:#FF3E00;}
</style>
<path class="st0" d="M274.9,87.6c-0.1-5.7-0.8-11.3-2.1-16.9c-1.3-5.5-3-10.9-5.4-16.1c-2.3-5.2-5.1-10.1-8.4-14.7v-0.2
	C231.1-0.2,176-12,136.2,13.4L66.3,57.9c-4.7,3-9.1,6.4-13.1,10.2c-4,3.9-7.6,8.1-10.7,12.7c-3.1,4.6-5.7,9.5-7.8,14.7
	c-2.1,5.1-3.6,10.5-4.6,16c-0.8,4.6-1.3,9.2-1.3,13.9c-0.1,4.7,0.3,9.3,1,13.9c0.7,4.6,1.8,9.1,3.2,13.6c1.5,4.4,3.3,8.7,5.4,12.8
	c-1.5,2.3-2.9,4.6-4.1,7c-1.3,2.4-2.4,4.9-3.4,7.4c-1,2.5-1.9,5.1-2.6,7.7c-0.7,2.6-1.4,5.2-1.8,7.9c-2,11.2-1.7,22.7,0.8,33.8
	c1.3,5.5,3.1,10.9,5.4,16.1c2.3,5.2,5.2,10.1,8.5,14.7c27.9,39.9,82.9,51.7,122.7,26.3l69.9-44.3c4.7-3,9.1-6.4,13.1-10.3
	c4-3.9,7.6-8.1,10.7-12.7c3.1-4.6,5.7-9.5,7.8-14.7c2.1-5.1,3.7-10.5,4.7-15.9c0.8-4.6,1.3-9.2,1.3-13.9c0.1-4.7-0.3-9.3-1-13.9
	c-0.7-4.6-1.8-9.1-3.3-13.6c-1.5-4.4-3.3-8.7-5.4-12.8c1.5-2.3,2.9-4.6,4.1-7c1.3-2.4,2.4-4.9,3.4-7.4c1-2.5,1.9-5.1,2.6-7.7
	c0.7-2.6,1.4-5.2,1.9-7.9C274.6,99,275,93.3,274.9,87.6z M239,96.9c-0.1,0.6-0.2,1.1-0.3,1.6c-0.1,0.5-0.3,1.1-0.4,1.6
	c-0.1,0.5-0.3,1.1-0.4,1.6c-0.2,0.5-0.3,1.1-0.5,1.6l-1.3,4l-3.6-2.7c-2.1-1.5-4.2-2.9-6.4-4.3c-2.2-1.3-4.4-2.6-6.7-3.7
	c-4.6-2.3-9.3-4.2-14.2-5.7l-2.7-0.8l0.2-2.7c0.1-0.9,0.1-1.8,0-2.7c-0.1-0.9-0.2-1.8-0.5-2.7c-0.2-0.9-0.6-1.7-1-2.6
	c-0.4-0.8-0.9-1.6-1.4-2.4c-1-1.4-2.2-2.6-3.5-3.6c-1.3-1-2.8-1.8-4.4-2.4c-3.2-1.2-6.7-1.3-9.9-0.4c-0.4,0.1-0.8,0.2-1.1,0.3
	c-0.4,0.1-0.7,0.3-1.1,0.4c-0.4,0.2-0.7,0.3-1.1,0.5c-0.3,0.2-0.7,0.4-1,0.6l-69.9,44.5c-0.9,0.5-1.6,1.2-2.4,1.9
	c-0.7,0.7-1.4,1.5-1.9,2.3c-0.6,0.8-1,1.7-1.4,2.7c-0.4,0.9-0.7,1.9-0.8,2.9c-0.2,1-0.3,2-0.2,3.1c0.1,2.1,0.5,4.1,1.4,6
	c0.4,0.9,0.9,1.8,1.5,2.7c1,1.4,2.1,2.6,3.5,3.6c1.3,1,2.8,1.9,4.4,2.5c3.2,1.2,6.7,1.4,9.9,0.5c0.4-0.1,0.8-0.2,1.1-0.4
	c0.4-0.1,0.7-0.3,1.1-0.4c0.4-0.2,0.7-0.3,1.1-0.5c0.3-0.2,0.7-0.4,1-0.6l26.8-17c1.1-0.7,2.2-1.4,3.4-2c1.1-0.6,2.3-1.2,3.5-1.7
	c1.2-0.5,2.4-1,3.6-1.4c1.2-0.4,2.5-0.8,3.7-1.1c5.5-1.4,11.1-2,16.8-1.7c5.6,0.3,11.2,1.4,16.5,3.4c5.3,2,10.3,4.7,14.7,8.2
	c4.5,3.5,8.4,7.6,11.6,12.2c2,2.8,3.7,5.7,5.1,8.9c1.4,3.1,2.5,6.4,3.2,9.7c0.8,3.3,1.2,6.7,1.3,10.1c0.1,3.4-0.2,6.8-0.8,10.2
	c-0.6,3.3-1.5,6.5-2.8,9.6c-1.3,3.1-2.8,6.1-4.7,8.8c-1.9,2.8-4,5.3-6.4,7.7c-2.4,2.3-5,4.4-7.9,6.2l-69.9,44.5
	c-1.1,0.7-2.2,1.4-3.4,2c-1.1,0.6-2.3,1.2-3.5,1.7c-1.2,0.5-2.4,1-3.6,1.4c-1.2,0.4-2.5,0.8-3.7,1.2c-5.5,1.4-11.1,2-16.8,1.7
	c-5.6-0.3-11.2-1.4-16.5-3.4c-5.3-2-10.3-4.7-14.7-8.2c-4.5-3.5-8.4-7.6-11.6-12.2c-2-2.8-3.7-5.7-5.1-8.9c-1.4-3.1-2.5-6.4-3.2-9.7
	c-0.7-3.3-1.2-6.7-1.2-10.1c-0.1-3.4,0.2-6.8,0.8-10.2c0.1-0.5,0.2-1.1,0.3-1.6c0.1-0.5,0.2-1.1,0.4-1.6c0.1-0.5,0.3-1.1,0.4-1.6
	c0.2-0.5,0.3-1.1,0.5-1.6l1.3-4l3.6,2.7c2.1,1.5,4.2,2.9,6.4,4.2c2.2,1.3,4.4,2.6,6.7,3.7c2.3,1.1,4.6,2.2,7,3.1
	c2.4,0.9,4.8,1.8,7.2,2.5l2.7,0.8l-0.2,2.7c-0.1,1.8,0.1,3.7,0.6,5.4c0.2,0.9,0.6,1.7,1,2.6c0.4,0.8,0.9,1.6,1.4,2.3
	c1,1.4,2.2,2.6,3.5,3.7c1.3,1,2.8,1.9,4.4,2.5c1.6,0.6,3.3,0.9,5,1c1.7,0.1,3.4-0.1,5-0.5c0.4-0.1,0.8-0.2,1.1-0.3
	c0.4-0.1,0.7-0.3,1.1-0.4c0.4-0.2,0.7-0.3,1.1-0.5c0.3-0.2,0.7-0.4,1-0.6l69.8-44.5c0.9-0.5,1.7-1.2,2.4-1.9
	c0.7-0.7,1.4-1.5,1.9-2.3c0.6-0.8,1-1.7,1.4-2.7c0.4-0.9,0.7-1.9,0.8-2.9c0.2-1,0.2-2,0.2-3.1c0-1-0.2-2-0.4-3.1c-0.2-1-0.6-2-1-2.9
	c-0.4-0.9-0.9-1.8-1.5-2.7c-1-1.4-2.1-2.6-3.5-3.7c-1.3-1-2.8-1.9-4.4-2.5c-1.6-0.6-3.3-0.9-5-1c-1.7-0.1-3.4,0.1-5.1,0.5
	c-0.4,0.1-0.8,0.2-1.1,0.3c-0.4,0.1-0.7,0.3-1.1,0.4c-0.4,0.2-0.7,0.3-1.1,0.5c-0.3,0.2-0.7,0.4-1,0.6l-26.8,17
	c-1.1,0.7-2.2,1.3-3.4,2c-1.1,0.6-2.3,1.2-3.5,1.7c-1.2,0.5-2.4,1-3.6,1.4c-1.2,0.4-2.5,0.8-3.7,1.1c-5.5,1.4-11.1,2-16.7,1.7
	c-5.6-0.3-11.2-1.4-16.5-3.4c-5.3-2-10.2-4.7-14.7-8.2c-4.5-3.5-8.4-7.6-11.6-12.2c-2-2.8-3.7-5.7-5.1-8.9c-1.4-3.1-2.5-6.4-3.2-9.7
	c-0.7-3.3-1.2-6.7-1.2-10.1c-0.1-3.4,0.2-6.8,0.8-10.2c1.2-6.6,3.7-12.9,7.5-18.5c3.8-5.6,8.6-10.3,14.3-13.9l70-44.5
	c1.1-0.7,2.2-1.3,3.3-2c1.1-0.6,2.3-1.2,3.5-1.7c1.2-0.5,2.4-1,3.6-1.4c1.2-0.4,2.4-0.8,3.7-1.2c5.5-1.4,11.1-2,16.8-1.7
	c5.6,0.3,11.2,1.4,16.5,3.4c5.3,2,10.3,4.7,14.7,8.2c4.5,3.5,8.4,7.6,11.6,12.2c2,2.8,3.7,5.7,5.1,8.9c1.4,3.1,2.5,6.4,3.2,9.7
	c0.8,3.3,1.2,6.7,1.2,10.1C239.8,90.2,239.6,93.6,239,96.9z"/>
</svg>
