<?xml version="1.0" encoding="utf-8"?>
<!-- Generator: Adobe Illustrator 27.0.0, SVG Export Plug-In . SVG Version: 6.00 Build 0)  -->
<svg version="1.1" id="Layer_1" xmlns="http://www.w3.org/2000/svg" xmlns:xlink="http://www.w3.org/1999/xlink" x="0px" y="0px"
	 viewBox="0 0 2500 2500" style="enable-background:new 0 0 2500 2500;" xml:space="preserve">
<style type="text/css">
	.st0{fill:url(#SVGID_1_);}
</style>
<linearGradient id="SVGID_1_" gradientUnits="userSpaceOnUse" x1="1235.4786" y1="1264.1743" x2="1236.5063" y2="1263.8187" gradientTransform="matrix(2500 0 0 -1500 -3088764 1897238.125)">
	<stop  offset="0" style="stop-color:#2298BD"/>
	<stop  offset="1" style="stop-color:#0ED7B5"/>
</linearGradient>
<path class="st0" d="M1250,500c-333.3,0-541.7,166.7-625,500c125-166.7,270.8-229.2,437.5-187.5c95.1,23.8,163.1,92.8,238.3,169.1
	C1423.3,1106,1565.2,1250,1875,1250c333.3,0,541.7-166.7,625-500c-125,166.7-270.8,229.2-437.5,187.5
	c-95.1-23.8-163.1-92.8-238.3-169.1C1701.7,644,1559.8,500,1250,500z M625,1250c-333.3,0-541.7,166.7-625,500
	c125-166.7,270.8-229.2,437.5-187.5c95.1,23.8,163.1,92.8,238.3,169.1C798.3,1856,940.2,2000,1250,2000c333.3,0,541.7-166.7,625-500
	c-125,166.7-270.8,229.2-437.5,187.5c-95.1-23.8-163.1-92.8-238.3-169.1C1076.7,1394,934.8,1250,625,1250z"/>
</svg>
