<?xml version="1.0" encoding="utf-8"?>
<!-- Generator: Adobe Illustrator 27.0.0, SVG Export Plug-In . SVG Version: 6.00 Build 0)  -->
<svg version="1.1" id="Layer_1" xmlns="http://www.w3.org/2000/svg" xmlns:xlink="http://www.w3.org/1999/xlink" x="0px" y="0px"
	 viewBox="0 0 300 300" style="enable-background:new 0 0 300 300;" xml:space="preserve">
<style type="text/css">
	.st0{fill:url(#SVGID_1_);}
</style>
<linearGradient id="SVGID_1_" gradientUnits="userSpaceOnUse" x1="1371.448" y1="-1100.838" x2="1371.5713" y2="-1100.7953" gradientTransform="matrix(2500 0 0 1500 -3428628 1651374.125)">
	<stop  offset="0" style="stop-color:#2298BD"/>
	<stop  offset="1" style="stop-color:#0ED7B5"/>
</linearGradient>
<path class="st0" d="M150,60c-40,0-65,20-75,60c15-20,32.5-27.5,52.5-22.5c11.4,2.9,19.6,11.1,28.6,20.3
	c14.7,14.9,31.7,32.2,68.9,32.2c40,0,65-20,75-60c-15,20-32.5,27.5-52.5,22.5c-11.4-2.9-19.6-11.1-28.6-20.3
	C204.2,77.3,187.2,60,150,60z M75,150c-40,0-65,20-75,60c15-20,32.5-27.5,52.5-22.5c11.4,2.9,19.6,11.1,28.6,20.3
	C95.8,222.7,112.8,240,150,240c40,0,65-20,75-60c-15,20-32.5,27.5-52.5,22.5c-11.4-2.9-19.6-11.1-28.6-20.3
	C129.2,167.3,112.2,150,75,150z"/>
</svg>
