<?xml version="1.0" encoding="utf-8"?>
<!-- Generator: Adobe Illustrator 27.0.0, SVG Export Plug-In . SVG Version: 6.00 Build 0)  -->
<svg version="1.1" id="Layer_1" xmlns="http://www.w3.org/2000/svg" xmlns:xlink="http://www.w3.org/1999/xlink" x="0px" y="0px"
	 viewBox="0 0 300 300" style="enable-background:new 0 0 300 300;" xml:space="preserve">
<style type="text/css">
	.st0{fill:#007ACC;}
</style>
<path class="st0" d="M0,0v300h300V0H0z M171.4,162.8h-39v111h-27.7v-111h-39v-12.2h0l0.2,0.1v-12.3l52.5-0.2
	c28.9,0,52.6,0.1,52.6,0.3c0.3,0.1,0.3,5.6,0.3,12.4V162.8z M273,250.9c-4.8,12.5-16.5,21-33.2,23.8c-5.2,0.9-17.2,0.8-22.9-0.2
	c-12-2.2-23.5-8.2-30.5-16c-2.8-3-8.1-11-7.8-11.6l2.8-1.8l11.2-6.5l8.5-4.9l2,2.6c2.5,3.9,8,9.1,11.2,10.9c9.8,5,22.8,4.3,29.2-1.5
	c2.8-2.6,4-5.2,4-9c0-3.4-0.5-5-2.2-7.7c-2.4-3.3-7.2-6-20.7-12c-15.5-6.6-22.1-10.8-28.3-17.2c-3.5-3.9-6.8-10-8.2-15
	c-1.1-4.3-1.5-15-0.5-19.3c3.2-15,14.6-25.5,30.8-28.5c5.2-1.1,17.6-0.6,22.8,0.8l-0.1,0.1c7.6,1.8,13.5,5.2,18.7,10.7
	c2.8,3,6.9,8.2,7.2,9.6c0,0.4-13,9.2-20.9,14.1c-0.3,0.2-1.5-1.1-2.7-3c-3.9-5.6-7.9-7.9-14.1-8.4c-9-0.6-15,4.1-15,12
	c0,2.4,0.4,3.8,1.3,5.7c2,4.1,5.8,6.6,17.4,11.7c21.4,9.2,30.8,15.3,36.4,24C275.9,224.2,277.3,239.5,273,250.9z"/>
</svg>
