<?xml version="1.0" encoding="utf-8"?>
<!-- Generator: Adobe Illustrator 27.0.0, SVG Export Plug-In . SVG Version: 6.00 Build 0)  -->
<svg version="1.1" id="Layer_1" xmlns="http://www.w3.org/2000/svg" xmlns:xlink="http://www.w3.org/1999/xlink" x="0px" y="0px"
	 viewBox="0 0 300 300" style="enable-background:new 0 0 300 300;" xml:space="preserve">
<g>
	<polygon points="150,0 282.9,230.2 17.1,230.2 	"/>
	<g>
		<path d="M126.5,275.5c0-13.9-10.3-23.2-24.5-23.2s-24.5,9.3-24.5,23.2s11.5,23.2,25.7,23.2c8.6,0,16.2-3.4,20.8-9.1l-9.9-5.7
			c-2.6,2.8-6.5,4.5-11,4.5c-6.2,0-11.4-3.2-13.4-8.4H126C126.3,278.6,126.5,277.1,126.5,275.5z M89.8,271c1.6-5.1,6-8.4,12.2-8.4
			s10.6,3.2,12.2,8.4H89.8z"/>
		<path d="M265.1,275.5c0-13.9-10.3-23.2-24.5-23.2s-24.5,9.3-24.5,23.2s11.5,23.2,25.7,23.2c8.6,0,16.2-3.4,20.8-9.1l-9.9-5.7
			c-2.6,2.8-6.5,4.5-11,4.5c-6.2,0-11.4-3.2-13.4-8.4h36.1C265,278.6,265.1,277.1,265.1,275.5z M228.5,271c1.6-5.1,6-8.4,12.2-8.4
			c6.2,0,10.6,3.2,12.2,8.4H228.5z"/>
		<path d="M178.2,275.5c0,7.7,5.1,12.9,12.9,12.9c5.3,0,9.3-2.4,11.3-6.3l9.9,5.7c-4.1,6.8-11.8,10.9-21.2,10.9
			c-14.2,0-24.5-9.3-24.5-23.2c0-13.9,10.3-23.2,24.5-23.2c9.5,0,17.1,4.1,21.2,10.9l-9.9,5.7c-2.1-3.9-6-6.3-11.3-6.3
			C183.3,262.7,178.2,267.8,178.2,275.5z"/>
		<rect x="272.8" y="238.2" width="11.6" height="59.2"/>
		<polygon points="86.9,238.2 51.2,300 15.6,238.2 28.9,238.2 51.2,276.8 73.5,238.2 		"/>
		<path d="M162.8,253.6v12.5c-1.3-0.4-2.7-0.6-4.1-0.6c-7.5,0-12.9,5.1-12.9,12.9v19.1h-11.6v-43.8h11.6v11.8
			C145.8,258.9,153.4,253.6,162.8,253.6z"/>
	</g>
</g>
</svg>
