<?xml version="1.0" encoding="utf-8"?>
<!-- Generator: Adobe Illustrator 27.0.0, SVG Export Plug-In . SVG Version: 6.00 Build 0)  -->
<svg version="1.1" id="Layer_1" xmlns="http://www.w3.org/2000/svg" xmlns:xlink="http://www.w3.org/1999/xlink" x="0px" y="0px"
	 viewBox="0 0 406 406" style="enable-background:new 0 0 406 406;" xml:space="preserve">
<style type="text/css">
	.st0{fill:#0065A9;}
	.st1{fill:#007ACC;}
	.st2{fill:#1F9CF0;}
	.st3{fill-rule:evenodd;clip-rule:evenodd;fill:url(#SVGID_1_);}
</style>
<g transform="matrix(1.05404 0 0 1.05404 145.165 65.0823)">
	<g>
		<path class="st0" d="M232.2-18.7l-78.6-37.8c-9.1-4.4-20-2.5-27.1,4.6l-257.3,234.6c-6.9,6.3-6.9,17.2,0,23.5l21,19.1
			c5.7,5.2,14.2,5.5,20.3,0.9L220.4-8.9c10.4-7.9,25.3-0.5,25.3,12.6V2.8C245.7-6.4,240.5-14.7,232.2-18.7L232.2-18.7z"/>
		<path class="st1" d="M232.2,280.4l-78.6,37.8c-9.1,4.4-20,2.5-27.1-4.6L-130.8,79c-6.9-6.3-6.9-17.2,0-23.5l21-19.1
			c5.7-5.2,14.2-5.5,20.3-0.9l309.8,235.1c10.4,7.9,25.3,0.5,25.3-12.6v0.9C245.7,268.1,240.5,276.4,232.2,280.4L232.2,280.4z"/>
		<path class="st2" d="M153.6,318.2c-9.1,4.4-20,2.5-27.1-4.6c8.8,8.8,23.8,2.6,23.8-9.9V-42.1c0-12.4-15-18.7-23.8-9.9
			c7.1-7.1,18-9,27.1-4.6l78.6,37.8c8.3,4,13.5,12.3,13.5,21.5V259c0,9.2-5.3,17.5-13.5,21.5L153.6,318.2z"/>
	</g>
	
		<linearGradient id="SVGID_1_" gradientUnits="userSpaceOnUse" x1="40.6978" y1="143.1887" x2="42.1878" y2="143.1887" gradientTransform="matrix(0 268.4429 268.4429 0 -38383.2422 -10983.9287)">
		<stop  offset="0" style="stop-color:#FFFFFF;stop-opacity:0.25"/>
		<stop  offset="1" style="stop-color:#FFFFFF;stop-opacity:0"/>
	</linearGradient>
	<path class="st3" d="M134.5,319c6,2.3,12.9,2.2,18.9-0.7l78.5-37.8c8.3-4,13.5-12.3,13.5-21.5V2.7c0-9.2-5.2-17.5-13.5-21.5
		l-78.5-37.8c-8-3.8-17.3-2.9-24.3,2.2c-1,0.7-1.9,1.5-2.8,2.4L-24,85.2l-65.5-49.7c-6.1-4.6-14.6-4.2-20.3,0.9l-21,19.1
		c-6.9,6.3-6.9,17.2,0,23.5l56.8,51.8l-56.8,51.8c-6.9,6.3-6.9,17.2,0,23.5l21,19.1c5.7,5.2,14.2,5.5,20.3,0.9l65.5-49.7
		l150.3,137.2C128.7,316,131.5,317.8,134.5,319L134.5,319z M150.2,44.3L36.1,130.8l114.1,86.6V44.3z"/>
</g>
</svg>
