<?xml version="1.0" encoding="utf-8"?>
<!-- Generator: Adobe Illustrator 27.0.0, SVG Export Plug-In . SVG Version: 6.00 Build 0)  -->
<svg version="1.1" id="Layer_1" xmlns="http://www.w3.org/2000/svg" xmlns:xlink="http://www.w3.org/1999/xlink" x="0px" y="0px"
	 viewBox="0 0 300 300" style="enable-background:new 0 0 300 300;" xml:space="preserve">
<style type="text/css">
	.st0{fill:#0065A9;}
	.st1{fill:#007ACC;}
	.st2{fill:#1F9CF0;}
	.st3{fill-rule:evenodd;clip-rule:evenodd;fill:url(#SVGID_1_);}
</style>
<g transform="matrix(1.05404 0 0 1.05404 145.165 65.0823)">
	<g>
		<path class="st0" d="M136.8-30.9L78.2-59.1C71.4-62.4,63.3-61,58-55.7l-191.9,174.9c-5.1,4.7-5.1,12.8,0,17.5l15.7,14.2
			c4.3,3.9,10.6,4.1,15.1,0.7L128-23.6c7.8-5.9,18.9-0.4,18.9,9.4v-0.7C146.9-21.8,143-28,136.8-30.9L136.8-30.9z"/>
		<path class="st1" d="M136.8,192.1l-58.6,28.2c-6.8,3.3-14.9,1.9-20.2-3.4L-133.9,41.9c-5.1-4.7-5.1-12.8,0-17.5l15.7-14.2
			c4.3-3.9,10.6-4.1,15.1-0.7l231,175.3c7.8,5.9,18.9,0.4,18.9-9.4v0.7C146.9,182.9,143,189.1,136.8,192.1L136.8,192.1z"/>
		<path class="st2" d="M78.2,220.3c-6.8,3.3-14.9,1.9-20.2-3.4c6.6,6.6,17.7,1.9,17.7-7.4V-48.4c0-9.2-11.2-13.9-17.7-7.4
			c5.3-5.3,13.4-6.7,20.2-3.4L136.8-31c6.2,3,10.1,9.2,10.1,16v191.1c0,6.9-4,13-10.1,16L78.2,220.3z"/>
	</g>
	
		<linearGradient id="SVGID_1_" gradientUnits="userSpaceOnUse" x1="29.4529" y1="-41.3676" x2="30.564" y2="-41.3676" gradientTransform="matrix(0 282.9496 -282.9496 0 -11700.459 -8394.624)">
		<stop  offset="0" style="stop-color:#FFFFFF;stop-opacity:0.25"/>
		<stop  offset="1" style="stop-color:#FFFFFF;stop-opacity:0"/>
	</linearGradient>
	<path class="st3" d="M64,220.9c4.5,1.7,9.6,1.6,14.1-0.5l58.5-28.2c6.2-3,10.1-9.2,10.1-16V-15c0-6.9-3.9-13-10.1-16L78.1-59.2
		c-6-2.8-12.9-2.2-18.1,1.6c-0.7,0.5-1.4,1.1-2.1,1.8L-54.2,46.5l-48.8-37.1c-4.5-3.4-10.9-3.1-15.1,0.7l-15.7,14.2
		c-5.1,4.7-5.1,12.8,0,17.5l42.4,38.6l-42.4,38.6c-5.1,4.7-5.1,12.8,0,17.5l15.7,14.2c4.3,3.9,10.6,4.1,15.1,0.7l48.8-37.1
		L57.9,216.9C59.6,218.6,61.7,220,64,220.9L64,220.9z M75.7,16L-9.4,80.5l85.1,64.6V16z"/>
</g>
</svg>
