<?xml version="1.0" encoding="utf-8"?>
<!-- Generator: Adobe Illustrator 27.0.0, SVG Export Plug-In . SVG Version: 6.00 Build 0)  -->
<svg version="1.1" id="Layer_1" xmlns="http://www.w3.org/2000/svg" xmlns:xlink="http://www.w3.org/1999/xlink" x="0px" y="0px"
	 viewBox="0 0 300 300" style="enable-background:new 0 0 300 300;" xml:space="preserve">
<style type="text/css">
	.st0{clip-path:url(#SVGID_00000127011931283131564950000007950688875522458544_);}
	.st1{fill:#00749A;}
	.st2{fill:#464342;}
</style>
<g>
	<defs>
		<rect id="SVGID_1_" x="0" y="0" width="300" height="300"/>
	</defs>
	<clipPath id="SVGID_00000017477911164848954000000006843824783444433846_">
		<use xlink:href="#SVGID_1_"  style="overflow:visible;"/>
	</clipPath>
	<g style="clip-path:url(#SVGID_00000017477911164848954000000006843824783444433846_);">
		<path class="st1" d="M766.9,118.1h-52v5.5c16.3,0,18.9,3.5,18.9,24.1V185c0,20.6-2.6,24.4-18.9,24.4c-12.5-1.7-20.9-8.4-32.6-21.2
			l-13.4-14.5c18-3.2,27.6-14.5,27.6-27.3c0-16-13.7-28.2-39.3-28.2h-51.2v5.5c16.3,0,18.9,3.5,18.9,24.1V185
			c0,20.6-2.6,24.4-18.9,24.4v5.5h57.9v-5.5c-16.3,0-18.9-3.8-18.9-24.4v-10.5h4.9l32.3,40.4h84.6c41.6,0,59.6-22.1,59.6-48.6
			C826.5,139.9,808.4,118.1,766.9,118.1L766.9,118.1z M645,165.5v-38.7h11.9c13.1,0,18.9,9,18.9,19.5c0,10.2-5.8,19.2-18.9,19.2
			L645,165.5z M767.7,205.9h-2c-10.5,0-11.9-2.6-11.9-16v-63.1h14c30.2,0,35.8,22.1,35.8,39.3C803.5,183.8,798,205.9,767.7,205.9z
			 M444.1,176.2l20.1-59.3c5.8-17.2,3.2-22.1-15.4-22.1V89h54.7v5.8c-18.3,0-22.7,4.4-29.9,25.6l-33.2,99.4h-3.8l-29.7-91l-30.2,91
			h-3.8l-32.3-99.4c-7-21.2-11.6-25.6-28.5-25.6V89h64.6v5.8c-17.2,0-21.8,4.1-15.7,22.1l19.5,59.3L409.8,89h5.5L444.1,176.2
			L444.1,176.2z M543,218.7c-32,0-58.2-23.6-58.2-52.3c0-28.5,26.2-52,58.2-52s58.2,23.6,58.2,52C601.1,195.1,575,218.7,543,218.7z
			 M543,123.3c-26.7,0-36.1,24.1-36.1,43c0,19.2,9.3,43,36.1,43c27,0,36.3-23.8,36.3-43C579.3,147.4,570,123.3,543,123.3L543,123.3z
			"/>
		<path class="st2" d="M898.3,209.1v5.8h-66.6v-5.8c19.5,0,23-4.9,23-34v-46.5c0-29.1-3.5-33.7-23-33.7V89h60.2
			c29.9,0,46.5,15.4,46.5,36.1c0,20.1-16.6,35.8-46.5,35.8h-16.6v14.2C875.3,204.2,878.8,209.1,898.3,209.1L898.3,209.1z
			 M891.9,99.5h-16.6v50.6h16.6c16.3,0,23.8-11.3,23.8-25C915.7,111.1,908.2,99.5,891.9,99.5z M1138.2,187.6l-1.5,5.2
			c-2.6,9.6-5.8,13.1-26.5,13.1h-4.1c-15.1,0-17.7-3.5-17.7-24.1v-13.4c22.7,0,24.4,2,24.4,17.2h5.5v-43.3h-5.5
			c0,15.1-1.7,17.2-24.4,17.2v-32.6h16c20.6,0,23.8,3.5,26.5,13.1l1.5,5.5h4.6l-2-27.3h-85.5v5.5c16.3,0,18.9,3.5,18.9,24.1V185
			c0,18.9-2.2,23.6-15.1,24.3c-12.2-1.9-20.6-8.5-32-21.1l-13.4-14.5c18-3.2,27.6-14.5,27.6-27.3c0-16-13.7-28.2-39.3-28.2h-51.2
			v5.5c16.3,0,18.9,3.5,18.9,24.1V185c0,20.6-2.6,24.4-18.9,24.4v5.5h57.9v-5.5c-16.3,0-18.9-3.8-18.9-24.4v-10.5h4.9l32.3,40.4
			h119.5l1.7-27.3L1138.2,187.6L1138.2,187.6z M984.1,165.5v-38.7H996c13.1,0,18.9,9,18.9,19.5c0,10.2-5.8,19.2-18.9,19.2
			L984.1,165.5z M1197.2,218.7c-11.6,0-21.8-6.1-26.2-9.9c-1.5,1.5-4.1,5.8-4.6,9.9h-5.5v-40.1h5.8c2.3,19.2,15.7,30.5,32.9,30.5
			c9.3,0,16.9-5.2,16.9-14c0-7.6-6.7-13.4-18.6-18.9l-16.6-7.9c-11.6-5.5-20.4-15.1-20.4-27.9c0-14,13.1-25.9,31.1-25.9
			c9.6,0,17.7,3.5,22.7,7.6c1.5-1.2,2.9-4.4,3.8-7.9h5.5v34.3h-6.1c-2-13.7-9.6-25-25-25c-8.1,0-15.7,4.6-15.7,11.9
			c0,7.6,6.1,11.6,20.1,18l16,7.9c14,6.7,19.5,17.5,19.5,26.2C1232.7,205.9,1216.7,218.7,1197.2,218.7L1197.2,218.7z M1286.7,218.7
			c-11.6,0-21.8-6.1-26.2-9.9c-1.5,1.5-4.1,5.8-4.6,9.9h-5.5v-40.1h5.8c2.3,19.2,15.7,30.5,32.9,30.5c9.3,0,16.9-5.2,16.9-14
			c0-7.6-6.7-13.4-18.6-18.9l-16.6-7.9c-11.6-5.5-20.4-15.1-20.4-27.9c0-14,13.1-25.9,31.1-25.9c9.6,0,17.7,3.5,22.7,7.6
			c1.5-1.2,2.9-4.4,3.8-7.9h5.5v34.3h-6.1c-2-13.7-9.6-25-25-25c-8.1,0-15.7,4.6-15.7,11.9c0,7.6,6.1,11.6,20.1,18l16,7.9
			c14,6.7,19.5,17.5,19.5,26.2C1322.2,205.9,1306.2,218.7,1286.7,218.7L1286.7,218.7z"/>
		<g>
			<path class="st1" d="M21.3,150c0,50.9,29.6,95,72.5,115.8L32.5,97.6C25.1,114.1,21.3,132,21.3,150L21.3,150z M236.9,143.5
				c0-15.9-5.7-26.9-10.6-35.5c-6.5-10.6-12.6-19.6-12.6-30.2c0-11.8,9-22.8,21.6-22.8c0.6,0,1.1,0.1,1.7,0.1
				c-22.9-21-53.4-33.8-86.9-33.8c-45,0-84.5,23.1-107.5,58c3,0.1,5.9,0.2,8.3,0.2c13.5,0,34.3-1.6,34.3-1.6
				c6.9-0.4,7.8,9.8,0.8,10.6c0,0-7,0.8-14.7,1.2L118,229l28.2-84.5l-20.1-54.9c-6.9-0.4-13.5-1.2-13.5-1.2
				c-6.9-0.4-6.1-11,0.8-10.6c0,0,21.3,1.6,33.9,1.6c13.5,0,34.3-1.6,34.3-1.6c6.9-0.4,7.8,9.8,0.8,10.6c0,0-7,0.8-14.7,1.2
				L214.2,228l12.8-42.9C232.6,167.3,236.9,154.5,236.9,143.5L236.9,143.5z"/>
			<path class="st1" d="M152.3,161.3l-38.6,112.2c11.8,3.5,24,5.2,36.4,5.2c15,0,29.4-2.6,42.7-7.3c-0.4-0.6-0.7-1.2-0.9-1.8
				L152.3,161.3z M262.9,88.3c0.6,4.1,0.9,8.5,0.9,13.2c0,13.1-2.4,27.7-9.8,46.1l-39.3,113.6c38.3-22.3,64-63.8,64-111.2
				C278.7,128.4,273.3,107.2,262.9,88.3L262.9,88.3z"/>
			<path class="st1" d="M150,0C67.3,0,0,67.3,0,150c0,82.7,67.3,150,150,150c82.7,0,150-67.3,150-150C300,67.3,232.7,0,150,0z
				 M150,293.1C71.1,293.1,6.9,228.9,6.9,150C6.9,71.1,71.1,6.9,150,6.9c78.9,0,143.1,64.2,143.1,143.1
				C293.1,228.9,228.9,293.1,150,293.1L150,293.1z"/>
		</g>
	</g>
</g>
</svg>
